ISO-10303-21;
HEADER;
FILE_NAME('Open CASCADE Shape Model','2026-06-29T22:32:12',('Author'),(
    'Open CASCADE'),'Open CASCADE STEP processor 7.8','Open CASCADE 7.8'
  ,'Unknown');
FILE_DESCRIPTION(('Open CASCADE Model'),'2;1');
FILE_SCHEMA(('AUTOMOTIVE_DESIGN { 1 0 10303 214 1 1 1 1 }'));
ENDSEC;
DATA;
#1 = APPLICATION_PROTOCOL_DEFINITION('international standard',
  'automotive_design',2000,#2);
#2 = APPLICATION_CONTEXT(
  'core data for automotive mechanical design processes');
#3 = SHAPE_DEFINITION_REPRESENTATION(#4,#10);
#4 = PRODUCT_DEFINITION_SHAPE('','',#5);
#5 = PRODUCT_DEFINITION('design','',#6,#9);
#6 = PRODUCT_DEFINITION_FORMATION('','',#7);
#7 = PRODUCT('Open CASCADE STEP translator 7.8 1',
  'Open CASCADE STEP translator 7.8 1','',(#8));
#8 = PRODUCT_CONTEXT('',#2,'mechanical');
#9 = PRODUCT_DEFINITION_CONTEXT('part definition',#2,'design');
#10 = ADVANCED_BREP_SHAPE_REPRESENTATION('',(#11,#15),#861);
#11 = AXIS2_PLACEMENT_3D('',#12,#13,#14);
#12 = CARTESIAN_POINT('',(0.,0.,0.));
#13 = DIRECTION('',(0.,0.,1.));
#14 = DIRECTION('',(1.,0.,-0.));
#15 = MANIFOLD_SOLID_BREP('',#16);
#16 = CLOSED_SHELL('',(#17,#597,#827));
#17 = ADVANCED_FACE('',(#18),#34,.T.);
#18 = FACE_BOUND('',#19,.T.);
#19 = EDGE_LOOP('',(#20,#87,#88,#218,#343,#471));
#20 = ORIENTED_EDGE('',*,*,#21,.T.);
#21 = EDGE_CURVE('',#22,#24,#26,.T.);
#22 = VERTEX_POINT('',#23);
#23 = CARTESIAN_POINT('',(1.E-02,-1.046004268568E-18,-6.123233995737E-19
    ));
#24 = VERTEX_POINT('',#25);
#25 = CARTESIAN_POINT('',(6.123233995737E-19,-7.498798913309E-35,5.E-03)
  );
#26 = SEAM_CURVE('',#27,(#33,#78),.PCURVE_S1.);
#27 = ( BOUNDED_CURVE() B_SPLINE_CURVE(2,(#28,#29,#30,#31,#32),
.UNSPECIFIED.,.F.,.F.) B_SPLINE_CURVE_WITH_KNOTS((3,2,3),(4.712388980385
,6.28318530718,7.853981633974),.PIECEWISE_BEZIER_KNOTS.) CURVE() 
GEOMETRIC_REPRESENTATION_ITEM() RATIONAL_B_SPLINE_CURVE((1.,
0.707106781187,1.,0.707106781187,1.)) REPRESENTATION_ITEM('') );
#28 = CARTESIAN_POINT('',(-1.836970198721E-18,2.249639673993E-34,-5.E-03
    ));
#29 = CARTESIAN_POINT('',(1.E-02,-1.224646799147E-18,-5.E-03));
#30 = CARTESIAN_POINT('',(1.E-02,-1.224646799147E-18,-1.224646799147E-18
    ));
#31 = CARTESIAN_POINT('',(1.E-02,-1.224646799147E-18,5.E-03));
#32 = CARTESIAN_POINT('',(3.061616997868E-18,-3.749399456655E-34,5.E-03)
  );
#33 = PCURVE('',#34,#70);
#34 = ( BOUNDED_SURFACE() B_SPLINE_SURFACE(2,2,(
    (#35,#36,#37,#38,#39)
    ,(#40,#41,#42,#43,#44)
    ,(#45,#46,#47,#48,#49)
    ,(#50,#51,#52,#53,#54)
    ,(#55,#56,#57,#58,#59)
    ,(#60,#61,#62,#63,#64)
    ,(#65,#66,#67,#68,#69
)),.UNSPECIFIED.,.T.,.F.,.F.) B_SPLINE_SURFACE_WITH_KNOTS((1,2,2,2,2,1),
  (3,2,3),(-2.094395102393,0.,2.094395102393,4.188790204786,
    6.28318530718,8.377580409573),(-1.570796326795,0.,1.570796326795),
.UNSPECIFIED.) GEOMETRIC_REPRESENTATION_ITEM() RATIONAL_B_SPLINE_SURFACE
((
    (1.,0.707106781187,1.,0.707106781187,1.)
    ,(0.5,0.353553390593,0.5,0.353553390593,0.5)
    ,(1.,0.707106781187,1.,0.707106781187,1.)
    ,(0.5,0.353553390593,0.5,0.353553390593,0.5)
    ,(1.,0.707106781187,1.,0.707106781187,1.)
    ,(0.5,0.353553390593,0.5,0.353553390593,0.5)
,(1.,0.707106781187,1.,0.707106781187,1.
))) REPRESENTATION_ITEM('') SURFACE() );
#35 = CARTESIAN_POINT('',(6.123233995737E-19,0.,-5.E-03));
#36 = CARTESIAN_POINT('',(1.E-02,0.,-5.E-03));
#37 = CARTESIAN_POINT('',(1.E-02,0.,0.));
#38 = CARTESIAN_POINT('',(1.E-02,0.,5.E-03));
#39 = CARTESIAN_POINT('',(6.123233995737E-19,0.,5.E-03));
#40 = CARTESIAN_POINT('',(6.123233995737E-19,5.302876193625E-19,-5.E-03)
  );
#41 = CARTESIAN_POINT('',(1.E-02,8.660254037844E-03,-5.E-03));
#42 = CARTESIAN_POINT('',(1.E-02,8.660254037844E-03,0.));
#43 = CARTESIAN_POINT('',(1.E-02,8.660254037844E-03,5.E-03));
#44 = CARTESIAN_POINT('',(6.123233995737E-19,5.302876193625E-19,5.E-03)
  );
#45 = CARTESIAN_POINT('',(-3.061616997868E-19,2.651438096812E-19,-5.E-03
    ));
#46 = CARTESIAN_POINT('',(-5.E-03,4.330127018922E-03,-5.E-03));
#47 = CARTESIAN_POINT('',(-5.E-03,4.330127018922E-03,0.));
#48 = CARTESIAN_POINT('',(-5.E-03,4.330127018922E-03,5.E-03));
#49 = CARTESIAN_POINT('',(-3.061616997868E-19,2.651438096812E-19,5.E-03)
  );
#50 = CARTESIAN_POINT('',(-1.224646799147E-18,7.498798913309E-35,-5.E-03
    ));
#51 = CARTESIAN_POINT('',(-2.E-02,1.224646799147E-18,-5.E-03));
#52 = CARTESIAN_POINT('',(-2.E-02,1.224646799147E-18,0.));
#53 = CARTESIAN_POINT('',(-2.E-02,1.224646799147E-18,5.E-03));
#54 = CARTESIAN_POINT('',(-1.224646799147E-18,7.498798913309E-35,5.E-03)
  );
#55 = CARTESIAN_POINT('',(-3.061616997868E-19,-2.651438096812E-19,
    -5.E-03));
#56 = CARTESIAN_POINT('',(-5.E-03,-4.330127018922E-03,-5.E-03));
#57 = CARTESIAN_POINT('',(-5.E-03,-4.330127018922E-03,0.));
#58 = CARTESIAN_POINT('',(-5.E-03,-4.330127018922E-03,5.E-03));
#59 = CARTESIAN_POINT('',(-3.061616997868E-19,-2.651438096812E-19,5.E-03
    ));
#60 = CARTESIAN_POINT('',(6.123233995737E-19,-5.302876193625E-19,-5.E-03
    ));
#61 = CARTESIAN_POINT('',(1.E-02,-8.660254037844E-03,-5.E-03));
#62 = CARTESIAN_POINT('',(1.E-02,-8.660254037844E-03,0.));
#63 = CARTESIAN_POINT('',(1.E-02,-8.660254037844E-03,5.E-03));
#64 = CARTESIAN_POINT('',(6.123233995737E-19,-5.302876193625E-19,5.E-03)
  );
#65 = CARTESIAN_POINT('',(6.123233995737E-19,0.,-5.E-03));
#66 = CARTESIAN_POINT('',(1.E-02,0.,-5.E-03));
#67 = CARTESIAN_POINT('',(1.E-02,0.,0.));
#68 = CARTESIAN_POINT('',(1.E-02,0.,5.E-03));
#69 = CARTESIAN_POINT('',(6.123233995737E-19,0.,5.E-03));
#70 = DEFINITIONAL_REPRESENTATION('',(#71),#77);
#71 = B_SPLINE_CURVE_WITH_KNOTS('',2,(#72,#73,#74,#75,#76),
  .UNSPECIFIED.,.F.,.F.,(3,2,3),(4.712388980385,6.28318530718,
    7.853981633974),.PIECEWISE_BEZIER_KNOTS.);
#72 = CARTESIAN_POINT('',(6.28318530718,-1.570796326795));
#73 = CARTESIAN_POINT('',(6.28318530718,-0.785398163397));
#74 = CARTESIAN_POINT('',(6.28318530718,-2.720481184601E-16));
#75 = CARTESIAN_POINT('',(6.28318530718,0.785398163397));
#76 = CARTESIAN_POINT('',(6.28318530718,1.570796326795));
#77 = ( GEOMETRIC_REPRESENTATION_CONTEXT(2) 
PARAMETRIC_REPRESENTATION_CONTEXT() REPRESENTATION_CONTEXT('2D SPACE',''
  ) );
#78 = PCURVE('',#34,#79);
#79 = DEFINITIONAL_REPRESENTATION('',(#80),#86);
#80 = B_SPLINE_CURVE_WITH_KNOTS('',2,(#81,#82,#83,#84,#85),
  .UNSPECIFIED.,.F.,.F.,(3,2,3),(4.712388980385,6.28318530718,
    7.853981633974),.PIECEWISE_BEZIER_KNOTS.);
#81 = CARTESIAN_POINT('',(0.,-1.570796326795));
#82 = CARTESIAN_POINT('',(8.881784197001E-16,-0.785398163397));
#83 = CARTESIAN_POINT('',(0.,-2.720481184601E-16));
#84 = CARTESIAN_POINT('',(8.881784197001E-16,0.785398163397));
#85 = CARTESIAN_POINT('',(0.,1.570796326795));
#86 = ( GEOMETRIC_REPRESENTATION_CONTEXT(2) 
PARAMETRIC_REPRESENTATION_CONTEXT() REPRESENTATION_CONTEXT('2D SPACE',''
  ) );
#87 = ORIENTED_EDGE('',*,*,#21,.F.);
#88 = ORIENTED_EDGE('',*,*,#89,.F.);
#89 = EDGE_CURVE('',#90,#22,#92,.T.);
#90 = VERTEX_POINT('',#91);
#91 = CARTESIAN_POINT('',(4.258266985552E-10,5.E-03,0.));
#92 = SURFACE_CURVE('',#93,(#131,#172),.PCURVE_S1.);
#93 = B_SPLINE_CURVE_WITH_KNOTS('',8,(#94,#95,#96,#97,#98,#99,#100,#101,
    #102,#103,#104,#105,#106,#107,#108,#109,#110,#111,#112,#113,#114,
    #115,#116,#117,#118,#119,#120,#121,#122,#123,#124,#125,#126,#127,
    #128,#129,#130),.UNSPECIFIED.,.F.,.F.,(9,7,7,7,7,9),(0.,
    0.323997099602,0.369997038779,0.551999736839,0.808003221553,1.),
  .UNSPECIFIED.);
#94 = CARTESIAN_POINT('',(-1.E-02,-7.48533179884E-16,0.));
#95 = CARTESIAN_POINT('',(-1.E-02,7.014863524244E-04,0.));
#96 = CARTESIAN_POINT('',(-9.77514060631E-03,1.402902444881E-03,0.));
#97 = CARTESIAN_POINT('',(-9.324897613617E-03,2.073138337515E-03,0.));
#98 = CARTESIAN_POINT('',(-8.678762977751E-03,2.67930006566E-03,0.));
#99 = CARTESIAN_POINT('',(-7.892790836491E-03,3.202125619649E-03,0.));
#100 = CARTESIAN_POINT('',(-7.026018126743E-03,3.637338604625E-03,0.));
#101 = CARTESIAN_POINT('',(-6.120657253234E-03,3.989859710229E-03,0.));
#102 = CARTESIAN_POINT('',(-5.080660507289E-03,4.307256528666E-03,0.));
#103 = CARTESIAN_POINT('',(-4.950377249855E-03,4.345455332461E-03,0.));
#104 = CARTESIAN_POINT('',(-4.826808025287E-03,4.380279192849E-03,0.));
#105 = CARTESIAN_POINT('',(-4.684680978649E-03,4.419041709386E-03,0.));
#106 = CARTESIAN_POINT('',(-4.554789590618E-03,4.452572295427E-03,0.));
#107 = CARTESIAN_POINT('',(-4.413834855051E-03,4.487779644472E-03,0.));
#108 = CARTESIAN_POINT('',(-4.273283573352E-03,4.521169059645E-03,0.));
#109 = CARTESIAN_POINT('',(-3.56194519092E-03,4.682447746994E-03,0.));
#110 = CARTESIAN_POINT('',(-2.955075290025E-03,4.795653462687E-03,0.));
#111 = CARTESIAN_POINT('',(-2.310249530146E-03,4.889952934619E-03,0.));
#112 = CARTESIAN_POINT('',(-1.630515019538E-03,4.961633319815E-03,0.));
#113 = CARTESIAN_POINT('',(-9.208228132281E-04,5.007013334255E-03,0.));
#114 = CARTESIAN_POINT('',(-1.87974199808E-04,5.022816119548E-03,0.));
#115 = CARTESIAN_POINT('',(5.594330117703E-04,5.006542109616E-03,0.));
#116 = CARTESIAN_POINT('',(2.368287965284E-03,4.886933991267E-03,0.));
#117 = CARTESIAN_POINT('',(3.433892962168E-03,4.750958078791E-03,0.));
#118 = CARTESIAN_POINT('',(4.480855712391E-03,4.544994161593E-03,0.));
#119 = CARTESIAN_POINT('',(5.475461407321E-03,4.270069640049E-03,0.));
#120 = CARTESIAN_POINT('',(6.386194861849E-03,3.933298734369E-03,0.));
#121 = CARTESIAN_POINT('',(7.189604192141E-03,3.547144675861E-03,0.));
#122 = CARTESIAN_POINT('',(7.873131222667E-03,3.126804668334E-03,0.));
#123 = CARTESIAN_POINT('',(8.85622886777E-03,2.35491238685E-03,0.));
#124 = CARTESIAN_POINT('',(9.209003761497E-03,2.012417161092E-03,0.));
#125 = CARTESIAN_POINT('',(9.492172114335E-03,1.664261809716E-03,0.));
#126 = CARTESIAN_POINT('',(9.7078137623E-03,1.315875653078E-03,0.));
#127 = CARTESIAN_POINT('',(9.860316604027E-03,9.719519246079E-04,0.));
#128 = CARTESIAN_POINT('',(9.955543638037E-03,6.3631223088E-04,0.));
#129 = CARTESIAN_POINT('',(1.E-02,3.117710116664E-04,0.));
#130 = CARTESIAN_POINT('',(1.E-02,0.,0.));
#131 = PCURVE('',#34,#132);
#132 = DEFINITIONAL_REPRESENTATION('',(#133),#171);
#133 = B_SPLINE_CURVE_WITH_KNOTS('',8,(#134,#135,#136,#137,#138,#139,
    #140,#141,#142,#143,#144,#145,#146,#147,#148,#149,#150,#151,#152,
    #153,#154,#155,#156,#157,#158,#159,#160,#161,#162,#163,#164,#165,
    #166,#167,#168,#169,#170),.UNSPECIFIED.,.F.,.F.,(9,7,7,7,7,9),(0.,
    0.323997099602,0.369997038779,0.551999736839,0.808003221553,1.),
  .UNSPECIFIED.);
#134 = CARTESIAN_POINT('',(3.14159265359,-2.412226739517E-17));
#135 = CARTESIAN_POINT('',(3.014357103585,-2.412226739516E-17));
#136 = CARTESIAN_POINT('',(2.887121623037,-1.711791261827E-17));
#137 = CARTESIAN_POINT('',(2.759886593657,-4.023230314392E-17));
#138 = CARTESIAN_POINT('',(2.632652083413,-1.627736072359E-17));
#139 = CARTESIAN_POINT('',(2.505417981849,-8.712667768029E-18));
#140 = CARTESIAN_POINT('',(2.37818413456,-4.863757263395E-17));
#141 = CARTESIAN_POINT('',(2.250950410259,-1.186460778413E-17));
#142 = CARTESIAN_POINT('',(2.105652441325,-2.586256567948E-17));
#143 = CARTESIAN_POINT('',(2.087588251947,-1.852058613673E-17));
#144 = CARTESIAN_POINT('',(2.069524010347,-3.309263539301E-17));
#145 = CARTESIAN_POINT('',(2.051459906938,-1.574534185413E-17));
#146 = CARTESIAN_POINT('',(2.033395708246,-2.861146202945E-17));
#147 = CARTESIAN_POINT('',(2.015331590918,-2.299975018927E-17));
#148 = CARTESIAN_POINT('',(1.997267470428,-2.412226739517E-17));
#149 = CARTESIAN_POINT('',(1.907731218664,-2.412226739517E-17));
#150 = CARTESIAN_POINT('',(1.83625934157,-2.412226739517E-17));
#151 = CARTESIAN_POINT('',(1.764787763603,-2.412226739517E-17));
#152 = CARTESIAN_POINT('',(1.693316483172,-2.412226739517E-17));
#153 = CARTESIAN_POINT('',(1.6218454752,-2.412226739517E-17));
#154 = CARTESIAN_POINT('',(1.550374692354,-2.412226739517E-17));
#155 = CARTESIAN_POINT('',(1.478904066275,-2.412226739517E-17));
#156 = CARTESIAN_POINT('',(1.306903615785,-2.412226739517E-17));
#157 = CARTESIAN_POINT('',(1.206373839583,-2.412226739517E-17));
#158 = CARTESIAN_POINT('',(1.105843948296,-2.412226739517E-17));
#159 = CARTESIAN_POINT('',(1.005313670366,-2.412226739517E-17));
#160 = CARTESIAN_POINT('',(0.904782774237,-2.412226739517E-17));
#161 = CARTESIAN_POINT('',(0.804251128567,-2.412226739517E-17));
#162 = CARTESIAN_POINT('',(0.703718742998,-2.412226739517E-17));
#163 = CARTESIAN_POINT('',(0.527788365806,-2.412226739517E-17));
#164 = CARTESIAN_POINT('',(0.452390605494,-1.163034302602E-17));
#165 = CARTESIAN_POINT('',(0.376992565345,-1.636864383359E-17));
#166 = CARTESIAN_POINT('',(0.301594301106,-3.377117023368E-17));
#167 = CARTESIAN_POINT('',(0.22619586602,-4.393701778841E-17));
#168 = CARTESIAN_POINT('',(0.150797309372,-3.058362148256E-17));
#169 = CARTESIAN_POINT('',(7.539867503295E-02,1.521869842055E-30));
#170 = CARTESIAN_POINT('',(0.,1.577721810442E-30));
#171 = ( GEOMETRIC_REPRESENTATION_CONTEXT(2) 
PARAMETRIC_REPRESENTATION_CONTEXT() REPRESENTATION_CONTEXT('2D SPACE',''
  ) );
#172 = PCURVE('',#173,#178);
#173 = PLANE('',#174);
#174 = AXIS2_PLACEMENT_3D('',#175,#176,#177);
#175 = CARTESIAN_POINT('',(-1.E-02,-5.E-03,0.));
#176 = DIRECTION('',(0.,0.,1.));
#177 = DIRECTION('',(1.,0.,-0.));
#178 = DEFINITIONAL_REPRESENTATION('',(#179),#217);
#179 = B_SPLINE_CURVE_WITH_KNOTS('',8,(#180,#181,#182,#183,#184,#185,
    #186,#187,#188,#189,#190,#191,#192,#193,#194,#195,#196,#197,#198,
    #199,#200,#201,#202,#203,#204,#205,#206,#207,#208,#209,#210,#211,
    #212,#213,#214,#215,#216),.UNSPECIFIED.,.F.,.F.,(9,7,7,7,7,9),(0.,
    0.323997099602,0.369997038779,0.551999736839,0.808003221553,1.),
  .UNSPECIFIED.);
#180 = CARTESIAN_POINT('',(0.,4.999999999999E-03));
#181 = CARTESIAN_POINT('',(-2.094307226591E-16,5.701486352424E-03));
#182 = CARTESIAN_POINT('',(2.248593936901E-04,6.402902444881E-03));
#183 = CARTESIAN_POINT('',(6.751023863826E-04,7.073138337515E-03));
#184 = CARTESIAN_POINT('',(1.321237022249E-03,7.67930006566E-03));
#185 = CARTESIAN_POINT('',(2.107209163509E-03,8.202125619649E-03));
#186 = CARTESIAN_POINT('',(2.973981873257E-03,8.637338604625E-03));
#187 = CARTESIAN_POINT('',(3.879342746766E-03,8.989859710229E-03));
#188 = CARTESIAN_POINT('',(4.919339492711E-03,9.307256528666E-03));
#189 = CARTESIAN_POINT('',(5.049622750145E-03,9.345455332461E-03));
#190 = CARTESIAN_POINT('',(5.173191974713E-03,9.380279192849E-03));
#191 = CARTESIAN_POINT('',(5.315319021351E-03,9.419041709386E-03));
#192 = CARTESIAN_POINT('',(5.445210409382E-03,9.452572295427E-03));
#193 = CARTESIAN_POINT('',(5.586165144949E-03,9.487779644472E-03));
#194 = CARTESIAN_POINT('',(5.726716426648E-03,9.521169059645E-03));
#195 = CARTESIAN_POINT('',(6.43805480908E-03,9.682447746994E-03));
#196 = CARTESIAN_POINT('',(7.044924709975E-03,9.795653462687E-03));
#197 = CARTESIAN_POINT('',(7.689750469854E-03,9.889952934619E-03));
#198 = CARTESIAN_POINT('',(8.369484980462E-03,9.961633319815E-03));
#199 = CARTESIAN_POINT('',(9.079177186772E-03,1.000701333425E-02));
#200 = CARTESIAN_POINT('',(9.812025800192E-03,1.002281611955E-02));
#201 = CARTESIAN_POINT('',(1.055943301177E-02,1.000654210962E-02));
#202 = CARTESIAN_POINT('',(1.236828796528E-02,9.886933991267E-03));
#203 = CARTESIAN_POINT('',(1.343389296217E-02,9.750958078791E-03));
#204 = CARTESIAN_POINT('',(1.448085571239E-02,9.544994161593E-03));
#205 = CARTESIAN_POINT('',(1.547546140732E-02,9.270069640049E-03));
#206 = CARTESIAN_POINT('',(1.638619486185E-02,8.933298734369E-03));
#207 = CARTESIAN_POINT('',(1.718960419214E-02,8.547144675861E-03));
#208 = CARTESIAN_POINT('',(1.787313122267E-02,8.126804668334E-03));
#209 = CARTESIAN_POINT('',(1.885622886777E-02,7.35491238685E-03));
#210 = CARTESIAN_POINT('',(1.92090037615E-02,7.012417161092E-03));
#211 = CARTESIAN_POINT('',(1.949217211433E-02,6.664261809716E-03));
#212 = CARTESIAN_POINT('',(1.97078137623E-02,6.315875653078E-03));
#213 = CARTESIAN_POINT('',(1.986031660403E-02,5.971951924608E-03));
#214 = CARTESIAN_POINT('',(1.995554363804E-02,5.63631223088E-03));
#215 = CARTESIAN_POINT('',(2.E-02,5.311771011666E-03));
#216 = CARTESIAN_POINT('',(2.E-02,5.E-03));
#217 = ( GEOMETRIC_REPRESENTATION_CONTEXT(2) 
PARAMETRIC_REPRESENTATION_CONTEXT() REPRESENTATION_CONTEXT('2D SPACE',''
  ) );
#218 = ORIENTED_EDGE('',*,*,#219,.F.);
#219 = EDGE_CURVE('',#220,#90,#222,.T.);
#220 = VERTEX_POINT('',#221);
#221 = CARTESIAN_POINT('',(-1.E-02,-6.314913869598E-14,0.));
#222 = SURFACE_CURVE('',#223,(#261,#302),.PCURVE_S1.);
#223 = B_SPLINE_CURVE_WITH_KNOTS('',8,(#224,#225,#226,#227,#228,#229,
    #230,#231,#232,#233,#234,#235,#236,#237,#238,#239,#240,#241,#242,
    #243,#244,#245,#246,#247,#248,#249,#250,#251,#252,#253,#254,#255,
    #256,#257,#258,#259,#260),.UNSPECIFIED.,.F.,.F.,(9,7,7,7,7,9),(0.,
    0.323997099602,0.369997038779,0.551999736839,0.808003221553,1.),
  .UNSPECIFIED.);
#224 = CARTESIAN_POINT('',(-1.E-02,-7.48533179884E-16,0.));
#225 = CARTESIAN_POINT('',(-1.E-02,7.014863524244E-04,0.));
#226 = CARTESIAN_POINT('',(-9.77514060631E-03,1.402902444881E-03,0.));
#227 = CARTESIAN_POINT('',(-9.324897613617E-03,2.073138337515E-03,0.));
#228 = CARTESIAN_POINT('',(-8.678762977751E-03,2.67930006566E-03,0.));
#229 = CARTESIAN_POINT('',(-7.892790836491E-03,3.202125619649E-03,0.));
#230 = CARTESIAN_POINT('',(-7.026018126743E-03,3.637338604625E-03,0.));
#231 = CARTESIAN_POINT('',(-6.120657253234E-03,3.989859710229E-03,0.));
#232 = CARTESIAN_POINT('',(-5.080660507289E-03,4.307256528666E-03,0.));
#233 = CARTESIAN_POINT('',(-4.950377249855E-03,4.345455332461E-03,0.));
#234 = CARTESIAN_POINT('',(-4.826808025287E-03,4.380279192849E-03,0.));
#235 = CARTESIAN_POINT('',(-4.684680978649E-03,4.419041709386E-03,0.));
#236 = CARTESIAN_POINT('',(-4.554789590618E-03,4.452572295427E-03,0.));
#237 = CARTESIAN_POINT('',(-4.413834855051E-03,4.487779644472E-03,0.));
#238 = CARTESIAN_POINT('',(-4.273283573352E-03,4.521169059645E-03,0.));
#239 = CARTESIAN_POINT('',(-3.56194519092E-03,4.682447746994E-03,0.));
#240 = CARTESIAN_POINT('',(-2.955075290025E-03,4.795653462687E-03,0.));
#241 = CARTESIAN_POINT('',(-2.310249530146E-03,4.889952934619E-03,0.));
#242 = CARTESIAN_POINT('',(-1.630515019538E-03,4.961633319815E-03,0.));
#243 = CARTESIAN_POINT('',(-9.208228132281E-04,5.007013334255E-03,0.));
#244 = CARTESIAN_POINT('',(-1.87974199808E-04,5.022816119548E-03,0.));
#245 = CARTESIAN_POINT('',(5.594330117703E-04,5.006542109616E-03,0.));
#246 = CARTESIAN_POINT('',(2.368287965284E-03,4.886933991267E-03,0.));
#247 = CARTESIAN_POINT('',(3.433892962168E-03,4.750958078791E-03,0.));
#248 = CARTESIAN_POINT('',(4.480855712391E-03,4.544994161593E-03,0.));
#249 = CARTESIAN_POINT('',(5.475461407321E-03,4.270069640049E-03,0.));
#250 = CARTESIAN_POINT('',(6.386194861849E-03,3.933298734369E-03,0.));
#251 = CARTESIAN_POINT('',(7.189604192141E-03,3.547144675861E-03,0.));
#252 = CARTESIAN_POINT('',(7.873131222667E-03,3.126804668334E-03,0.));
#253 = CARTESIAN_POINT('',(8.85622886777E-03,2.35491238685E-03,0.));
#254 = CARTESIAN_POINT('',(9.209003761497E-03,2.012417161092E-03,0.));
#255 = CARTESIAN_POINT('',(9.492172114335E-03,1.664261809716E-03,0.));
#256 = CARTESIAN_POINT('',(9.7078137623E-03,1.315875653078E-03,0.));
#257 = CARTESIAN_POINT('',(9.860316604027E-03,9.719519246079E-04,0.));
#258 = CARTESIAN_POINT('',(9.955543638037E-03,6.3631223088E-04,0.));
#259 = CARTESIAN_POINT('',(1.E-02,3.117710116664E-04,0.));
#260 = CARTESIAN_POINT('',(1.E-02,0.,0.));
#261 = PCURVE('',#34,#262);
#262 = DEFINITIONAL_REPRESENTATION('',(#263),#301);
#263 = B_SPLINE_CURVE_WITH_KNOTS('',8,(#264,#265,#266,#267,#268,#269,
    #270,#271,#272,#273,#274,#275,#276,#277,#278,#279,#280,#281,#282,
    #283,#284,#285,#286,#287,#288,#289,#290,#291,#292,#293,#294,#295,
    #296,#297,#298,#299,#300),.UNSPECIFIED.,.F.,.F.,(9,7,7,7,7,9),(0.,
    0.323997099602,0.369997038779,0.551999736839,0.808003221553,1.),
  .UNSPECIFIED.);
#264 = CARTESIAN_POINT('',(3.14159265359,-2.412226739517E-17));
#265 = CARTESIAN_POINT('',(3.014357103585,-2.412226739516E-17));
#266 = CARTESIAN_POINT('',(2.887121623037,-1.711791261827E-17));
#267 = CARTESIAN_POINT('',(2.759886593657,-4.023230314392E-17));
#268 = CARTESIAN_POINT('',(2.632652083413,-1.627736072359E-17));
#269 = CARTESIAN_POINT('',(2.505417981849,-8.712667768029E-18));
#270 = CARTESIAN_POINT('',(2.37818413456,-4.863757263395E-17));
#271 = CARTESIAN_POINT('',(2.250950410259,-1.186460778413E-17));
#272 = CARTESIAN_POINT('',(2.105652441325,-2.586256567948E-17));
#273 = CARTESIAN_POINT('',(2.087588251947,-1.852058613673E-17));
#274 = CARTESIAN_POINT('',(2.069524010347,-3.309263539301E-17));
#275 = CARTESIAN_POINT('',(2.051459906938,-1.574534185413E-17));
#276 = CARTESIAN_POINT('',(2.033395708246,-2.861146202945E-17));
#277 = CARTESIAN_POINT('',(2.015331590918,-2.299975018927E-17));
#278 = CARTESIAN_POINT('',(1.997267470428,-2.412226739517E-17));
#279 = CARTESIAN_POINT('',(1.907731218664,-2.412226739517E-17));
#280 = CARTESIAN_POINT('',(1.83625934157,-2.412226739517E-17));
#281 = CARTESIAN_POINT('',(1.764787763603,-2.412226739517E-17));
#282 = CARTESIAN_POINT('',(1.693316483172,-2.412226739517E-17));
#283 = CARTESIAN_POINT('',(1.6218454752,-2.412226739517E-17));
#284 = CARTESIAN_POINT('',(1.550374692354,-2.412226739517E-17));
#285 = CARTESIAN_POINT('',(1.478904066275,-2.412226739517E-17));
#286 = CARTESIAN_POINT('',(1.306903615785,-2.412226739517E-17));
#287 = CARTESIAN_POINT('',(1.206373839583,-2.412226739517E-17));
#288 = CARTESIAN_POINT('',(1.105843948296,-2.412226739517E-17));
#289 = CARTESIAN_POINT('',(1.005313670366,-2.412226739517E-17));
#290 = CARTESIAN_POINT('',(0.904782774237,-2.412226739517E-17));
#291 = CARTESIAN_POINT('',(0.804251128567,-2.412226739517E-17));
#292 = CARTESIAN_POINT('',(0.703718742998,-2.412226739517E-17));
#293 = CARTESIAN_POINT('',(0.527788365806,-2.412226739517E-17));
#294 = CARTESIAN_POINT('',(0.452390605494,-1.163034302602E-17));
#295 = CARTESIAN_POINT('',(0.376992565345,-1.636864383359E-17));
#296 = CARTESIAN_POINT('',(0.301594301106,-3.377117023368E-17));
#297 = CARTESIAN_POINT('',(0.22619586602,-4.393701778841E-17));
#298 = CARTESIAN_POINT('',(0.150797309372,-3.058362148256E-17));
#299 = CARTESIAN_POINT('',(7.539867503295E-02,1.521869842055E-30));
#300 = CARTESIAN_POINT('',(0.,1.577721810442E-30));
#301 = ( GEOMETRIC_REPRESENTATION_CONTEXT(2) 
PARAMETRIC_REPRESENTATION_CONTEXT() REPRESENTATION_CONTEXT('2D SPACE',''
  ) );
#302 = PCURVE('',#173,#303);
#303 = DEFINITIONAL_REPRESENTATION('',(#304),#342);
#304 = B_SPLINE_CURVE_WITH_KNOTS('',8,(#305,#306,#307,#308,#309,#310,
    #311,#312,#313,#314,#315,#316,#317,#318,#319,#320,#321,#322,#323,
    #324,#325,#326,#327,#328,#329,#330,#331,#332,#333,#334,#335,#336,
    #337,#338,#339,#340,#341),.UNSPECIFIED.,.F.,.F.,(9,7,7,7,7,9),(0.,
    0.323997099602,0.369997038779,0.551999736839,0.808003221553,1.),
  .UNSPECIFIED.);
#305 = CARTESIAN_POINT('',(0.,4.999999999999E-03));
#306 = CARTESIAN_POINT('',(-2.094307226591E-16,5.701486352424E-03));
#307 = CARTESIAN_POINT('',(2.248593936901E-04,6.402902444881E-03));
#308 = CARTESIAN_POINT('',(6.751023863826E-04,7.073138337515E-03));
#309 = CARTESIAN_POINT('',(1.321237022249E-03,7.67930006566E-03));
#310 = CARTESIAN_POINT('',(2.107209163509E-03,8.202125619649E-03));
#311 = CARTESIAN_POINT('',(2.973981873257E-03,8.637338604625E-03));
#312 = CARTESIAN_POINT('',(3.879342746766E-03,8.989859710229E-03));
#313 = CARTESIAN_POINT('',(4.919339492711E-03,9.307256528666E-03));
#314 = CARTESIAN_POINT('',(5.049622750145E-03,9.345455332461E-03));
#315 = CARTESIAN_POINT('',(5.173191974713E-03,9.380279192849E-03));
#316 = CARTESIAN_POINT('',(5.315319021351E-03,9.419041709386E-03));
#317 = CARTESIAN_POINT('',(5.445210409382E-03,9.452572295427E-03));
#318 = CARTESIAN_POINT('',(5.586165144949E-03,9.487779644472E-03));
#319 = CARTESIAN_POINT('',(5.726716426648E-03,9.521169059645E-03));
#320 = CARTESIAN_POINT('',(6.43805480908E-03,9.682447746994E-03));
#321 = CARTESIAN_POINT('',(7.044924709975E-03,9.795653462687E-03));
#322 = CARTESIAN_POINT('',(7.689750469854E-03,9.889952934619E-03));
#323 = CARTESIAN_POINT('',(8.369484980462E-03,9.961633319815E-03));
#324 = CARTESIAN_POINT('',(9.079177186772E-03,1.000701333425E-02));
#325 = CARTESIAN_POINT('',(9.812025800192E-03,1.002281611955E-02));
#326 = CARTESIAN_POINT('',(1.055943301177E-02,1.000654210962E-02));
#327 = CARTESIAN_POINT('',(1.236828796528E-02,9.886933991267E-03));
#328 = CARTESIAN_POINT('',(1.343389296217E-02,9.750958078791E-03));
#329 = CARTESIAN_POINT('',(1.448085571239E-02,9.544994161593E-03));
#330 = CARTESIAN_POINT('',(1.547546140732E-02,9.270069640049E-03));
#331 = CARTESIAN_POINT('',(1.638619486185E-02,8.933298734369E-03));
#332 = CARTESIAN_POINT('',(1.718960419214E-02,8.547144675861E-03));
#333 = CARTESIAN_POINT('',(1.787313122267E-02,8.126804668334E-03));
#334 = CARTESIAN_POINT('',(1.885622886777E-02,7.35491238685E-03));
#335 = CARTESIAN_POINT('',(1.92090037615E-02,7.012417161092E-03));
#336 = CARTESIAN_POINT('',(1.949217211433E-02,6.664261809716E-03));
#337 = CARTESIAN_POINT('',(1.97078137623E-02,6.315875653078E-03));
#338 = CARTESIAN_POINT('',(1.986031660403E-02,5.971951924608E-03));
#339 = CARTESIAN_POINT('',(1.995554363804E-02,5.63631223088E-03));
#340 = CARTESIAN_POINT('',(2.E-02,5.311771011666E-03));
#341 = CARTESIAN_POINT('',(2.E-02,5.E-03));
#342 = ( GEOMETRIC_REPRESENTATION_CONTEXT(2) 
PARAMETRIC_REPRESENTATION_CONTEXT() REPRESENTATION_CONTEXT('2D SPACE',''
  ) );
#343 = ORIENTED_EDGE('',*,*,#344,.F.);
#344 = EDGE_CURVE('',#345,#220,#347,.T.);
#345 = VERTEX_POINT('',#346);
#346 = CARTESIAN_POINT('',(2.750422759337E-09,-5.E-03,0.));
#347 = SURFACE_CURVE('',#348,(#387,#429),.PCURVE_S1.);
#348 = B_SPLINE_CURVE_WITH_KNOTS('',7,(#349,#350,#351,#352,#353,#354,
    #355,#356,#357,#358,#359,#360,#361,#362,#363,#364,#365,#366,#367,
    #368,#369,#370,#371,#372,#373,#374,#375,#376,#377,#378,#379,#380,
    #381,#382,#383,#384,#385,#386),.UNSPECIFIED.,.F.,.F.,(8,6,6,6,6,6,8)
  ,(0.,0.191996757846,0.448000215091,0.630002893622,0.668002856096,
    0.946000875328,1.),.UNSPECIFIED.);
#349 = CARTESIAN_POINT('',(1.E-02,4.336808689942E-18,0.));
#350 = CARTESIAN_POINT('',(1.E-02,-3.563097276185E-04,0.));
#351 = CARTESIAN_POINT('',(9.940724850717E-03,-7.296463986336E-04,0.));
#352 = CARTESIAN_POINT('',(9.812071656014E-03,-1.117335240192E-03,0.));
#353 = CARTESIAN_POINT('',(9.603555868586E-03,-1.514416065962E-03,0.));
#354 = CARTESIAN_POINT('',(9.306532523917E-03,-1.914004715972E-03,0.));
#355 = CARTESIAN_POINT('',(8.916417474239E-03,-2.307654496449E-03,0.));
#356 = CARTESIAN_POINT('',(7.792877308408E-03,-3.189817103858E-03,0.));
#357 = CARTESIAN_POINT('',(6.988513153386E-03,-3.666253866528E-03,0.));
#358 = CARTESIAN_POINT('',(6.024803886929E-03,-4.093525655073E-03,0.));
#359 = CARTESIAN_POINT('',(4.926118927718E-03,-4.446613625023E-03,0.));
#360 = CARTESIAN_POINT('',(3.738750353517E-03,-4.708961722541E-03,0.));
#361 = CARTESIAN_POINT('',(2.519320788127E-03,-4.876947147538E-03,0.));
#362 = CARTESIAN_POINT('',(4.520579841113E-04,-5.013642139937E-03,0.));
#363 = CARTESIAN_POINT('',(-4.013182611116E-04,-5.025874112751E-03,0.));
#364 = CARTESIAN_POINT('',(-1.232525544495E-03,-4.995696867157E-03,0.));
#365 = CARTESIAN_POINT('',(-2.028504494577E-03,-4.927569772474E-03,0.));
#366 = CARTESIAN_POINT('',(-2.779824589421E-03,-4.827258204861E-03,0.));
#367 = CARTESIAN_POINT('',(-3.480827391828E-03,-4.700839236166E-03,0.));
#368 = CARTESIAN_POINT('',(-4.265261123307E-03,-4.522987955187E-03,0.));
#369 = CARTESIAN_POINT('',(-4.398260227083E-03,-4.491430401386E-03,0.));
#370 = CARTESIAN_POINT('',(-4.530145141301E-03,-4.458675497054E-03,0.));
#371 = CARTESIAN_POINT('',(-4.656861521458E-03,-4.425954939085E-03,0.));
#372 = CARTESIAN_POINT('',(-4.785280384154E-03,-4.39130353622E-03,0.));
#373 = CARTESIAN_POINT('',(-4.907858179668E-03,-4.356974284805E-03,0.));
#374 = CARTESIAN_POINT('',(-5.923557359298E-03,-4.061414465407E-03,0.));
#375 = CARTESIAN_POINT('',(-6.816227048768E-03,-3.729338475415E-03,0.));
#376 = CARTESIAN_POINT('',(-7.677352198479E-03,-3.31704655291E-03,0.));
#377 = CARTESIAN_POINT('',(-8.461552036892E-03,-2.817723941526E-03,0.));
#378 = CARTESIAN_POINT('',(-9.111517095109E-03,-2.237386564168E-03,0.));
#379 = CARTESIAN_POINT('',(-9.573650791572E-03,-1.597280964783E-03,0.));
#380 = CARTESIAN_POINT('',(-9.875682550824E-03,-7.970371789666E-04,0.));
#381 = CARTESIAN_POINT('',(-9.916905384736E-03,-6.657409897888E-04,0.));
#382 = CARTESIAN_POINT('',(-9.950055567804E-03,-5.335254830514E-04,0.));
#383 = CARTESIAN_POINT('',(-9.975005015609E-03,-4.006133912803E-04,0.));
#384 = CARTESIAN_POINT('',(-9.99166777018E-03,-2.672324515999E-04,0.));
#385 = CARTESIAN_POINT('',(-1.E-02,-1.33615405733E-04,0.));
#386 = CARTESIAN_POINT('',(-1.E-02,-7.49400541622E-16,0.));
#387 = PCURVE('',#34,#388);
#388 = DEFINITIONAL_REPRESENTATION('',(#389),#428);
#389 = B_SPLINE_CURVE_WITH_KNOTS('',7,(#390,#391,#392,#393,#394,#395,
    #396,#397,#398,#399,#400,#401,#402,#403,#404,#405,#406,#407,#408,
    #409,#410,#411,#412,#413,#414,#415,#416,#417,#418,#419,#420,#421,
    #422,#423,#424,#425,#426,#427),.UNSPECIFIED.,.F.,.F.,(8,6,6,6,6,6,8)
  ,(0.,0.191996757846,0.448000215091,0.630002893622,0.668002856096,
    0.946000875328,1.),.UNSPECIFIED.);
#390 = CARTESIAN_POINT('',(6.28318530718,1.183291357832E-30));
#391 = CARTESIAN_POINT('',(6.197015392856,1.23171473929E-30));
#392 = CARTESIAN_POINT('',(6.110845532791,1.09824957817E-18));
#393 = CARTESIAN_POINT('',(6.024675786181,1.461538533092E-20));
#394 = CARTESIAN_POINT('',(5.938506225967,-1.527813750115E-18));
#395 = CARTESIAN_POINT('',(5.852336934948,-7.658274629462E-19));
#396 = CARTESIAN_POINT('',(5.7661680019,2.140805508123E-18));
#397 = CARTESIAN_POINT('',(5.565104713681,-2.51326924907E-18));
#398 = CARTESIAN_POINT('',(5.450210666924,3.337139623086E-18));
#399 = CARTESIAN_POINT('',(5.335317652554,-5.87690428845E-19));
#400 = CARTESIAN_POINT('',(5.220425621073,-1.820623307506E-18));
#401 = CARTESIAN_POINT('',(5.105534255234,1.847387903205E-18));
#402 = CARTESIAN_POINT('',(4.990643104684,-1.352460748175E-18));
#403 = CARTESIAN_POINT('',(4.794071161267,-5.190964139851E-18));
#404 = CARTESIAN_POINT('',(4.712390432679,-7.117450034493E-18));
#405 = CARTESIAN_POINT('',(4.63070947156,-9.359220185535E-18));
#406 = CARTESIAN_POINT('',(4.549028176456,-1.184762858766E-17));
#407 = CARTESIAN_POINT('',(4.46734648878,-1.44948215505E-17));
#408 = CARTESIAN_POINT('',(4.385664396101,-1.722697007085E-17));
#409 = CARTESIAN_POINT('',(4.286927623549,-2.060013163226E-17));
#410 = CARTESIAN_POINT('',(4.26987329382,-2.047829098238E-17));
#411 = CARTESIAN_POINT('',(4.252818955604,-2.413964426973E-17));
#412 = CARTESIAN_POINT('',(4.235764581165,-1.880606892119E-17));
#413 = CARTESIAN_POINT('',(4.218710220409,-2.576163783545E-17));
#414 = CARTESIAN_POINT('',(4.201655818345,-2.247925182132E-17));
#415 = CARTESIAN_POINT('',(4.059835752811,-3.614214966239E-17));
#416 = CARTESIAN_POINT('',(3.935070241733,-7.09411139026E-18));
#417 = CARTESIAN_POINT('',(3.810304660296,-2.664642980561E-17));
#418 = CARTESIAN_POINT('',(3.685538835302,-3.506035048939E-17));
#419 = CARTESIAN_POINT('',(3.560772582881,-1.711068510749E-17));
#420 = CARTESIAN_POINT('',(3.436005792985,-2.412226739517E-17));
#421 = CARTESIAN_POINT('',(3.287003534073,-2.412226739517E-17));
#422 = CARTESIAN_POINT('',(3.262768401273,-2.412226739517E-17));
#423 = CARTESIAN_POINT('',(3.238533260255,-2.412226739517E-17));
#424 = CARTESIAN_POINT('',(3.214298112908,-2.412226739517E-17));
#425 = CARTESIAN_POINT('',(3.190062961242,-2.412226739517E-17));
#426 = CARTESIAN_POINT('',(3.165827807387,-2.412226739517E-17));
#427 = CARTESIAN_POINT('',(3.14159265359,-2.412226739517E-17));
#428 = ( GEOMETRIC_REPRESENTATION_CONTEXT(2) 
PARAMETRIC_REPRESENTATION_CONTEXT() REPRESENTATION_CONTEXT('2D SPACE',''
  ) );
#429 = PCURVE('',#173,#430);
#430 = DEFINITIONAL_REPRESENTATION('',(#431),#470);
#431 = B_SPLINE_CURVE_WITH_KNOTS('',7,(#432,#433,#434,#435,#436,#437,
    #438,#439,#440,#441,#442,#443,#444,#445,#446,#447,#448,#449,#450,
    #451,#452,#453,#454,#455,#456,#457,#458,#459,#460,#461,#462,#463,
    #464,#465,#466,#467,#468,#469),.UNSPECIFIED.,.F.,.F.,(8,6,6,6,6,6,8)
  ,(0.,0.191996757846,0.448000215091,0.630002893622,0.668002856096,
    0.946000875328,1.),.UNSPECIFIED.);
#432 = CARTESIAN_POINT('',(2.E-02,5.E-03));
#433 = CARTESIAN_POINT('',(2.E-02,4.643690272381E-03));
#434 = CARTESIAN_POINT('',(1.994072485072E-02,4.270353601366E-03));
#435 = CARTESIAN_POINT('',(1.981207165601E-02,3.882664759808E-03));
#436 = CARTESIAN_POINT('',(1.960355586859E-02,3.485583934038E-03));
#437 = CARTESIAN_POINT('',(1.930653252392E-02,3.085995284028E-03));
#438 = CARTESIAN_POINT('',(1.891641747424E-02,2.692345503551E-03));
#439 = CARTESIAN_POINT('',(1.779287730841E-02,1.810182896142E-03));
#440 = CARTESIAN_POINT('',(1.698851315339E-02,1.333746133472E-03));
#441 = CARTESIAN_POINT('',(1.602480388693E-02,9.064743449268E-04));
#442 = CARTESIAN_POINT('',(1.492611892772E-02,5.533863749773E-04));
#443 = CARTESIAN_POINT('',(1.373875035352E-02,2.910382774586E-04));
#444 = CARTESIAN_POINT('',(1.251932078813E-02,1.230528524618E-04));
#445 = CARTESIAN_POINT('',(1.045205798411E-02,-1.364213993687E-05));
#446 = CARTESIAN_POINT('',(9.598681738888E-03,-2.587411275127E-05));
#447 = CARTESIAN_POINT('',(8.767474455505E-03,4.303132843349E-06));
#448 = CARTESIAN_POINT('',(7.971495505423E-03,7.243022752573E-05));
#449 = CARTESIAN_POINT('',(7.220175410579E-03,1.727417951394E-04));
#450 = CARTESIAN_POINT('',(6.519172608172E-03,2.991607638342E-04));
#451 = CARTESIAN_POINT('',(5.734738876693E-03,4.77012044813E-04));
#452 = CARTESIAN_POINT('',(5.601739772917E-03,5.08569598614E-04));
#453 = CARTESIAN_POINT('',(5.469854858699E-03,5.413245029456E-04));
#454 = CARTESIAN_POINT('',(5.343138478542E-03,5.740450609148E-04));
#455 = CARTESIAN_POINT('',(5.214719615846E-03,6.086964637798E-04));
#456 = CARTESIAN_POINT('',(5.092141820332E-03,6.430257151949E-04));
#457 = CARTESIAN_POINT('',(4.076442640702E-03,9.385855345927E-04));
#458 = CARTESIAN_POINT('',(3.183772951232E-03,1.270661524585E-03));
#459 = CARTESIAN_POINT('',(2.322647801521E-03,1.68295344709E-03));
#460 = CARTESIAN_POINT('',(1.538447963108E-03,2.182276058474E-03));
#461 = CARTESIAN_POINT('',(8.884829048905E-04,2.762613435832E-03));
#462 = CARTESIAN_POINT('',(4.263492084282E-04,3.402719035217E-03));
#463 = CARTESIAN_POINT('',(1.243174491755E-04,4.202962821033E-03));
#464 = CARTESIAN_POINT('',(8.309461526414E-05,4.334259010211E-03));
#465 = CARTESIAN_POINT('',(4.994443219599E-05,4.466474516949E-03));
#466 = CARTESIAN_POINT('',(2.499498439137E-05,4.59938660872E-03));
#467 = CARTESIAN_POINT('',(8.332229819807E-06,4.7327675484E-03));
#468 = CARTESIAN_POINT('',(3.989125502462E-17,4.866384594267E-03));
#469 = CARTESIAN_POINT('',(0.,4.999999999999E-03));
#470 = ( GEOMETRIC_REPRESENTATION_CONTEXT(2) 
PARAMETRIC_REPRESENTATION_CONTEXT() REPRESENTATION_CONTEXT('2D SPACE',''
  ) );
#471 = ORIENTED_EDGE('',*,*,#472,.F.);
#472 = EDGE_CURVE('',#22,#345,#473,.T.);
#473 = SURFACE_CURVE('',#474,(#513,#555),.PCURVE_S1.);
#474 = B_SPLINE_CURVE_WITH_KNOTS('',7,(#475,#476,#477,#478,#479,#480,
    #481,#482,#483,#484,#485,#486,#487,#488,#489,#490,#491,#492,#493,
    #494,#495,#496,#497,#498,#499,#500,#501,#502,#503,#504,#505,#506,
    #507,#508,#509,#510,#511,#512),.UNSPECIFIED.,.F.,.F.,(8,6,6,6,6,6,8)
  ,(0.,0.191996757846,0.448000215091,0.630002893622,0.668002856096,
    0.946000875328,1.),.UNSPECIFIED.);
#475 = CARTESIAN_POINT('',(1.E-02,4.336808689942E-18,0.));
#476 = CARTESIAN_POINT('',(1.E-02,-3.563097276185E-04,0.));
#477 = CARTESIAN_POINT('',(9.940724850717E-03,-7.296463986336E-04,0.));
#478 = CARTESIAN_POINT('',(9.812071656014E-03,-1.117335240192E-03,0.));
#479 = CARTESIAN_POINT('',(9.603555868586E-03,-1.514416065962E-03,0.));
#480 = CARTESIAN_POINT('',(9.306532523917E-03,-1.914004715972E-03,0.));
#481 = CARTESIAN_POINT('',(8.916417474239E-03,-2.307654496449E-03,0.));
#482 = CARTESIAN_POINT('',(7.792877308408E-03,-3.189817103858E-03,0.));
#483 = CARTESIAN_POINT('',(6.988513153386E-03,-3.666253866528E-03,0.));
#484 = CARTESIAN_POINT('',(6.024803886929E-03,-4.093525655073E-03,0.));
#485 = CARTESIAN_POINT('',(4.926118927718E-03,-4.446613625023E-03,0.));
#486 = CARTESIAN_POINT('',(3.738750353517E-03,-4.708961722541E-03,0.));
#487 = CARTESIAN_POINT('',(2.519320788127E-03,-4.876947147538E-03,0.));
#488 = CARTESIAN_POINT('',(4.520579841113E-04,-5.013642139937E-03,0.));
#489 = CARTESIAN_POINT('',(-4.013182611116E-04,-5.025874112751E-03,0.));
#490 = CARTESIAN_POINT('',(-1.232525544495E-03,-4.995696867157E-03,0.));
#491 = CARTESIAN_POINT('',(-2.028504494577E-03,-4.927569772474E-03,0.));
#492 = CARTESIAN_POINT('',(-2.779824589421E-03,-4.827258204861E-03,0.));
#493 = CARTESIAN_POINT('',(-3.480827391828E-03,-4.700839236166E-03,0.));
#494 = CARTESIAN_POINT('',(-4.265261123307E-03,-4.522987955187E-03,0.));
#495 = CARTESIAN_POINT('',(-4.398260227083E-03,-4.491430401386E-03,0.));
#496 = CARTESIAN_POINT('',(-4.530145141301E-03,-4.458675497054E-03,0.));
#497 = CARTESIAN_POINT('',(-4.656861521458E-03,-4.425954939085E-03,0.));
#498 = CARTESIAN_POINT('',(-4.785280384154E-03,-4.39130353622E-03,0.));
#499 = CARTESIAN_POINT('',(-4.907858179668E-03,-4.356974284805E-03,0.));
#500 = CARTESIAN_POINT('',(-5.923557359298E-03,-4.061414465407E-03,0.));
#501 = CARTESIAN_POINT('',(-6.816227048768E-03,-3.729338475415E-03,0.));
#502 = CARTESIAN_POINT('',(-7.677352198479E-03,-3.31704655291E-03,0.));
#503 = CARTESIAN_POINT('',(-8.461552036892E-03,-2.817723941526E-03,0.));
#504 = CARTESIAN_POINT('',(-9.111517095109E-03,-2.237386564168E-03,0.));
#505 = CARTESIAN_POINT('',(-9.573650791572E-03,-1.597280964783E-03,0.));
#506 = CARTESIAN_POINT('',(-9.875682550824E-03,-7.970371789666E-04,0.));
#507 = CARTESIAN_POINT('',(-9.916905384736E-03,-6.657409897888E-04,0.));
#508 = CARTESIAN_POINT('',(-9.950055567804E-03,-5.335254830514E-04,0.));
#509 = CARTESIAN_POINT('',(-9.975005015609E-03,-4.006133912803E-04,0.));
#510 = CARTESIAN_POINT('',(-9.99166777018E-03,-2.672324515999E-04,0.));
#511 = CARTESIAN_POINT('',(-1.E-02,-1.33615405733E-04,0.));
#512 = CARTESIAN_POINT('',(-1.E-02,-7.49400541622E-16,0.));
#513 = PCURVE('',#34,#514);
#514 = DEFINITIONAL_REPRESENTATION('',(#515),#554);
#515 = B_SPLINE_CURVE_WITH_KNOTS('',7,(#516,#517,#518,#519,#520,#521,
    #522,#523,#524,#525,#526,#527,#528,#529,#530,#531,#532,#533,#534,
    #535,#536,#537,#538,#539,#540,#541,#542,#543,#544,#545,#546,#547,
    #548,#549,#550,#551,#552,#553),.UNSPECIFIED.,.F.,.F.,(8,6,6,6,6,6,8)
  ,(0.,0.191996757846,0.448000215091,0.630002893622,0.668002856096,
    0.946000875328,1.),.UNSPECIFIED.);
#516 = CARTESIAN_POINT('',(6.28318530718,1.183291357832E-30));
#517 = CARTESIAN_POINT('',(6.197015392856,1.23171473929E-30));
#518 = CARTESIAN_POINT('',(6.110845532791,1.09824957817E-18));
#519 = CARTESIAN_POINT('',(6.024675786181,1.461538533092E-20));
#520 = CARTESIAN_POINT('',(5.938506225967,-1.527813750115E-18));
#521 = CARTESIAN_POINT('',(5.852336934948,-7.658274629462E-19));
#522 = CARTESIAN_POINT('',(5.7661680019,2.140805508123E-18));
#523 = CARTESIAN_POINT('',(5.565104713681,-2.51326924907E-18));
#524 = CARTESIAN_POINT('',(5.450210666924,3.337139623086E-18));
#525 = CARTESIAN_POINT('',(5.335317652554,-5.87690428845E-19));
#526 = CARTESIAN_POINT('',(5.220425621073,-1.820623307506E-18));
#527 = CARTESIAN_POINT('',(5.105534255234,1.847387903205E-18));
#528 = CARTESIAN_POINT('',(4.990643104684,-1.352460748175E-18));
#529 = CARTESIAN_POINT('',(4.794071161267,-5.190964139851E-18));
#530 = CARTESIAN_POINT('',(4.712390432679,-7.117450034493E-18));
#531 = CARTESIAN_POINT('',(4.63070947156,-9.359220185535E-18));
#532 = CARTESIAN_POINT('',(4.549028176456,-1.184762858766E-17));
#533 = CARTESIAN_POINT('',(4.46734648878,-1.44948215505E-17));
#534 = CARTESIAN_POINT('',(4.385664396101,-1.722697007085E-17));
#535 = CARTESIAN_POINT('',(4.286927623549,-2.060013163226E-17));
#536 = CARTESIAN_POINT('',(4.26987329382,-2.047829098238E-17));
#537 = CARTESIAN_POINT('',(4.252818955604,-2.413964426973E-17));
#538 = CARTESIAN_POINT('',(4.235764581165,-1.880606892119E-17));
#539 = CARTESIAN_POINT('',(4.218710220409,-2.576163783545E-17));
#540 = CARTESIAN_POINT('',(4.201655818345,-2.247925182132E-17));
#541 = CARTESIAN_POINT('',(4.059835752811,-3.614214966239E-17));
#542 = CARTESIAN_POINT('',(3.935070241733,-7.09411139026E-18));
#543 = CARTESIAN_POINT('',(3.810304660296,-2.664642980561E-17));
#544 = CARTESIAN_POINT('',(3.685538835302,-3.506035048939E-17));
#545 = CARTESIAN_POINT('',(3.560772582881,-1.711068510749E-17));
#546 = CARTESIAN_POINT('',(3.436005792985,-2.412226739517E-17));
#547 = CARTESIAN_POINT('',(3.287003534073,-2.412226739517E-17));
#548 = CARTESIAN_POINT('',(3.262768401273,-2.412226739517E-17));
#549 = CARTESIAN_POINT('',(3.238533260255,-2.412226739517E-17));
#550 = CARTESIAN_POINT('',(3.214298112908,-2.412226739517E-17));
#551 = CARTESIAN_POINT('',(3.190062961242,-2.412226739517E-17));
#552 = CARTESIAN_POINT('',(3.165827807387,-2.412226739517E-17));
#553 = CARTESIAN_POINT('',(3.14159265359,-2.412226739517E-17));
#554 = ( GEOMETRIC_REPRESENTATION_CONTEXT(2) 
PARAMETRIC_REPRESENTATION_CONTEXT() REPRESENTATION_CONTEXT('2D SPACE',''
  ) );
#555 = PCURVE('',#173,#556);
#556 = DEFINITIONAL_REPRESENTATION('',(#557),#596);
#557 = B_SPLINE_CURVE_WITH_KNOTS('',7,(#558,#559,#560,#561,#562,#563,
    #564,#565,#566,#567,#568,#569,#570,#571,#572,#573,#574,#575,#576,
    #577,#578,#579,#580,#581,#582,#583,#584,#585,#586,#587,#588,#589,
    #590,#591,#592,#593,#594,#595),.UNSPECIFIED.,.F.,.F.,(8,6,6,6,6,6,8)
  ,(0.,0.191996757846,0.448000215091,0.630002893622,0.668002856096,
    0.946000875328,1.),.UNSPECIFIED.);
#558 = CARTESIAN_POINT('',(2.E-02,5.E-03));
#559 = CARTESIAN_POINT('',(2.E-02,4.643690272381E-03));
#560 = CARTESIAN_POINT('',(1.994072485072E-02,4.270353601366E-03));
#561 = CARTESIAN_POINT('',(1.981207165601E-02,3.882664759808E-03));
#562 = CARTESIAN_POINT('',(1.960355586859E-02,3.485583934038E-03));
#563 = CARTESIAN_POINT('',(1.930653252392E-02,3.085995284028E-03));
#564 = CARTESIAN_POINT('',(1.891641747424E-02,2.692345503551E-03));
#565 = CARTESIAN_POINT('',(1.779287730841E-02,1.810182896142E-03));
#566 = CARTESIAN_POINT('',(1.698851315339E-02,1.333746133472E-03));
#567 = CARTESIAN_POINT('',(1.602480388693E-02,9.064743449268E-04));
#568 = CARTESIAN_POINT('',(1.492611892772E-02,5.533863749773E-04));
#569 = CARTESIAN_POINT('',(1.373875035352E-02,2.910382774586E-04));
#570 = CARTESIAN_POINT('',(1.251932078813E-02,1.230528524618E-04));
#571 = CARTESIAN_POINT('',(1.045205798411E-02,-1.364213993687E-05));
#572 = CARTESIAN_POINT('',(9.598681738888E-03,-2.587411275127E-05));
#573 = CARTESIAN_POINT('',(8.767474455505E-03,4.303132843349E-06));
#574 = CARTESIAN_POINT('',(7.971495505423E-03,7.243022752573E-05));
#575 = CARTESIAN_POINT('',(7.220175410579E-03,1.727417951394E-04));
#576 = CARTESIAN_POINT('',(6.519172608172E-03,2.991607638342E-04));
#577 = CARTESIAN_POINT('',(5.734738876693E-03,4.77012044813E-04));
#578 = CARTESIAN_POINT('',(5.601739772917E-03,5.08569598614E-04));
#579 = CARTESIAN_POINT('',(5.469854858699E-03,5.413245029456E-04));
#580 = CARTESIAN_POINT('',(5.343138478542E-03,5.740450609148E-04));
#581 = CARTESIAN_POINT('',(5.214719615846E-03,6.086964637798E-04));
#582 = CARTESIAN_POINT('',(5.092141820332E-03,6.430257151949E-04));
#583 = CARTESIAN_POINT('',(4.076442640702E-03,9.385855345927E-04));
#584 = CARTESIAN_POINT('',(3.183772951232E-03,1.270661524585E-03));
#585 = CARTESIAN_POINT('',(2.322647801521E-03,1.68295344709E-03));
#586 = CARTESIAN_POINT('',(1.538447963108E-03,2.182276058474E-03));
#587 = CARTESIAN_POINT('',(8.884829048905E-04,2.762613435832E-03));
#588 = CARTESIAN_POINT('',(4.263492084282E-04,3.402719035217E-03));
#589 = CARTESIAN_POINT('',(1.243174491755E-04,4.202962821033E-03));
#590 = CARTESIAN_POINT('',(8.309461526414E-05,4.334259010211E-03));
#591 = CARTESIAN_POINT('',(4.994443219599E-05,4.466474516949E-03));
#592 = CARTESIAN_POINT('',(2.499498439137E-05,4.59938660872E-03));
#593 = CARTESIAN_POINT('',(8.332229819807E-06,4.7327675484E-03));
#594 = CARTESIAN_POINT('',(3.989125502462E-17,4.866384594267E-03));
#595 = CARTESIAN_POINT('',(0.,4.999999999999E-03));
#596 = ( GEOMETRIC_REPRESENTATION_CONTEXT(2) 
PARAMETRIC_REPRESENTATION_CONTEXT() REPRESENTATION_CONTEXT('2D SPACE',''
  ) );
#597 = ADVANCED_FACE('',(#598,#604),#173,.F.);
#598 = FACE_BOUND('',#599,.F.);
#599 = EDGE_LOOP('',(#600,#601,#602,#603));
#600 = ORIENTED_EDGE('',*,*,#219,.F.);
#601 = ORIENTED_EDGE('',*,*,#344,.F.);
#602 = ORIENTED_EDGE('',*,*,#472,.F.);
#603 = ORIENTED_EDGE('',*,*,#89,.F.);
#604 = FACE_BOUND('',#605,.F.);
#605 = EDGE_LOOP('',(#606));
#606 = ORIENTED_EDGE('',*,*,#607,.T.);
#607 = EDGE_CURVE('',#608,#608,#610,.T.);
#608 = VERTEX_POINT('',#609);
#609 = CARTESIAN_POINT('',(9.E-03,-9.797174393179E-19,2.16046747805E-18)
  );
#610 = SURFACE_CURVE('',#611,(#669,#730),.PCURVE_S1.);
#611 = B_SPLINE_CURVE_WITH_KNOTS('',6,(#612,#613,#614,#615,#616,#617,
    #618,#619,#620,#621,#622,#623,#624,#625,#626,#627,#628,#629,#630,
    #631,#632,#633,#634,#635,#636,#637,#638,#639,#640,#641,#642,#643,
    #644,#645,#646,#647,#648,#649,#650,#651,#652,#653,#654,#655,#656,
    #657,#658,#659,#660,#661,#662,#663,#664,#665,#666,#667,#668),
  .UNSPECIFIED.,.T.,.F.,(7,5,5,5,5,5,5,5,5,5,5,7),(0.,9.399864880715E-02
    ,0.222000037698,0.320001254211,0.336001238502,0.449000699817,
    0.500000017155,0.6459988133,0.665998769105,0.777999969602,
    0.906001354284,1.),.UNSPECIFIED.);
#612 = CARTESIAN_POINT('',(9.E-03,3.469446951954E-18,0.));
#613 = CARTESIAN_POINT('',(9.000011099701E-03,-3.256521989786E-04,0.));
#614 = CARTESIAN_POINT('',(8.928383935364E-03,-6.695416826157E-04,0.));
#615 = CARTESIAN_POINT('',(8.770236351566E-03,-1.028189358297E-03,0.));
#616 = CARTESIAN_POINT('',(8.509875955112E-03,-1.394211798534E-03,0.));
#617 = CARTESIAN_POINT('',(8.137161823927E-03,-1.757159575937E-03,0.));
#618 = CARTESIAN_POINT('',(6.99568706088E-03,-2.57721547296E-03,0.));
#619 = CARTESIAN_POINT('',(6.132816803287E-03,-3.020900981046E-03,0.));
#620 = CARTESIAN_POINT('',(5.067876821259E-03,-3.405747102245E-03,0.));
#621 = CARTESIAN_POINT('',(3.847740540433E-03,-3.694394020009E-03,0.));
#622 = CARTESIAN_POINT('',(2.568643626779E-03,-3.875794273571E-03,0.));
#623 = CARTESIAN_POINT('',(3.269676609415E-04,-4.021140800654E-03,0.));
#624 = CARTESIAN_POINT('',(-6.396367346653E-04,-4.025960331732E-03,0.));
#625 = CARTESIAN_POINT('',(-1.567441056681E-03,-3.97602020214E-03,0.));
#626 = CARTESIAN_POINT('',(-2.433174616517E-03,-3.880674923231E-03,0.));
#627 = CARTESIAN_POINT('',(-3.224108633246E-03,-3.751178607251E-03,0.));
#628 = CARTESIAN_POINT('',(-4.055204938776E-03,-3.571405623698E-03,0.));
#629 = CARTESIAN_POINT('',(-4.169201510467E-03,-3.545669123296E-03,0.));
#630 = CARTESIAN_POINT('',(-4.282362612719E-03,-3.518979181139E-03,0.));
#631 = CARTESIAN_POINT('',(-4.392912727752E-03,-3.49184912642E-03,0.));
#632 = CARTESIAN_POINT('',(-4.499943443174E-03,-3.464561874415E-03,0.));
#633 = CARTESIAN_POINT('',(-5.370750745098E-03,-3.233876678858E-03,0.));
#634 = CARTESIAN_POINT('',(-6.130161514877E-03,-2.978321804521E-03,0.));
#635 = CARTESIAN_POINT('',(-6.86180641945E-03,-2.662129082521E-03,0.));
#636 = CARTESIAN_POINT('',(-7.522386844289E-03,-2.282700173861E-03,0.));
#637 = CARTESIAN_POINT('',(-8.065129035402E-03,-1.846001110009E-03,0.));
#638 = CARTESIAN_POINT('',(-8.631272451094E-03,-1.155989496556E-03,0.));
#639 = CARTESIAN_POINT('',(-8.776484933053E-03,-9.333882838998E-04,0.));
#640 = CARTESIAN_POINT('',(-8.887625496939E-03,-7.044696909866E-04,0.));
#641 = CARTESIAN_POINT('',(-8.962519563829E-03,-4.711458287892E-04,0.));
#642 = CARTESIAN_POINT('',(-9.000018576614E-03,-2.35542660194E-04,0.));
#643 = CARTESIAN_POINT('',(-8.999813257243E-03,6.743336515122E-04,0.));
#644 = CARTESIAN_POINT('',(-8.694008982355E-03,1.34875051411E-03,0.));
#645 = CARTESIAN_POINT('',(-8.076364318694E-03,1.971309686248E-03,0.));
#646 = CARTESIAN_POINT('',(-7.243181501541E-03,2.489658534591E-03,0.));
#647 = CARTESIAN_POINT('',(-6.306934181551E-03,2.903736929561E-03,0.));
#648 = CARTESIAN_POINT('',(-5.200268671402E-03,3.265520656263E-03,0.));
#649 = CARTESIAN_POINT('',(-5.06627672023E-03,3.307319488144E-03,0.));
#650 = CARTESIAN_POINT('',(-4.931789547921E-03,3.347349667306E-03,0.));
#651 = CARTESIAN_POINT('',(-4.796977198921E-03,3.385640934412E-03,0.));
#652 = CARTESIAN_POINT('',(-4.661998266307E-03,3.422227025391E-03,0.));
#653 = CARTESIAN_POINT('',(-3.773714011935E-03,3.651988894338E-03,0.));
#654 = CARTESIAN_POINT('',(-2.919874876275E-03,3.820771013591E-03,0.));
#655 = CARTESIAN_POINT('',(-1.962514693464E-03,3.951291137423E-03,0.));
#656 = CARTESIAN_POINT('',(-9.158256808E-04,4.026123285247E-03,0.));
#657 = CARTESIAN_POINT('',(1.881681555626E-04,4.030154079603E-03,0.));
#658 = CARTESIAN_POINT('',(2.568643626777E-03,3.875794273571E-03,0.));
#659 = CARTESIAN_POINT('',(3.847740540431E-03,3.694394020009E-03,0.));
#660 = CARTESIAN_POINT('',(5.067876821258E-03,3.405747102246E-03,0.));
#661 = CARTESIAN_POINT('',(6.132816803286E-03,3.020900981045E-03,0.));
#662 = CARTESIAN_POINT('',(6.995687060879E-03,2.577215472961E-03,0.));
#663 = CARTESIAN_POINT('',(8.137161823927E-03,1.757159575937E-03,0.));
#664 = CARTESIAN_POINT('',(8.509875955111E-03,1.394211798534E-03,0.));
#665 = CARTESIAN_POINT('',(8.770236351566E-03,1.028189358298E-03,0.));
#666 = CARTESIAN_POINT('',(8.928383935365E-03,6.695416826159E-04,0.));
#667 = CARTESIAN_POINT('',(9.000011099701E-03,3.256521989787E-04,0.));
#668 = CARTESIAN_POINT('',(9.E-03,0.,0.));
#669 = PCURVE('',#173,#670);
#670 = DEFINITIONAL_REPRESENTATION('',(#671),#729);
#671 = B_SPLINE_CURVE_WITH_KNOTS('',6,(#672,#673,#674,#675,#676,#677,
    #678,#679,#680,#681,#682,#683,#684,#685,#686,#687,#688,#689,#690,
    #691,#692,#693,#694,#695,#696,#697,#698,#699,#700,#701,#702,#703,
    #704,#705,#706,#707,#708,#709,#710,#711,#712,#713,#714,#715,#716,
    #717,#718,#719,#720,#721,#722,#723,#724,#725,#726,#727,#728),
  .UNSPECIFIED.,.F.,.F.,(7,5,5,5,5,5,5,5,5,5,5,7),(0.,9.399864880715E-02
    ,0.222000037698,0.320001254211,0.336001238502,0.449000699817,
    0.500000017155,0.6459988133,0.665998769105,0.777999969602,
    0.906001354284,1.),.UNSPECIFIED.);
#672 = CARTESIAN_POINT('',(1.9E-02,5.E-03));
#673 = CARTESIAN_POINT('',(1.90000110997E-02,4.674347801021E-03));
#674 = CARTESIAN_POINT('',(1.892838393536E-02,4.330458317384E-03));
#675 = CARTESIAN_POINT('',(1.877023635157E-02,3.971810641703E-03));
#676 = CARTESIAN_POINT('',(1.850987595511E-02,3.605788201466E-03));
#677 = CARTESIAN_POINT('',(1.813716182393E-02,3.242840424063E-03));
#678 = CARTESIAN_POINT('',(1.699568706088E-02,2.42278452704E-03));
#679 = CARTESIAN_POINT('',(1.613281680329E-02,1.979099018954E-03));
#680 = CARTESIAN_POINT('',(1.506787682126E-02,1.594252897755E-03));
#681 = CARTESIAN_POINT('',(1.384774054043E-02,1.305605979991E-03));
#682 = CARTESIAN_POINT('',(1.256864362678E-02,1.124205726429E-03));
#683 = CARTESIAN_POINT('',(1.032696766094E-02,9.788591993463E-04));
#684 = CARTESIAN_POINT('',(9.360363265335E-03,9.740396682681E-04));
#685 = CARTESIAN_POINT('',(8.432558943319E-03,1.02397979786E-03));
#686 = CARTESIAN_POINT('',(7.566825383483E-03,1.119325076769E-03));
#687 = CARTESIAN_POINT('',(6.775891366754E-03,1.248821392749E-03));
#688 = CARTESIAN_POINT('',(5.944795061224E-03,1.428594376302E-03));
#689 = CARTESIAN_POINT('',(5.830798489533E-03,1.454330876704E-03));
#690 = CARTESIAN_POINT('',(5.717637387281E-03,1.481020818861E-03));
#691 = CARTESIAN_POINT('',(5.607087272248E-03,1.50815087358E-03));
#692 = CARTESIAN_POINT('',(5.500056556826E-03,1.535438125585E-03));
#693 = CARTESIAN_POINT('',(4.629249254902E-03,1.766123321142E-03));
#694 = CARTESIAN_POINT('',(3.869838485123E-03,2.021678195479E-03));
#695 = CARTESIAN_POINT('',(3.13819358055E-03,2.337870917479E-03));
#696 = CARTESIAN_POINT('',(2.477613155711E-03,2.717299826139E-03));
#697 = CARTESIAN_POINT('',(1.934870964598E-03,3.153998889991E-03));
#698 = CARTESIAN_POINT('',(1.368727548906E-03,3.844010503444E-03));
#699 = CARTESIAN_POINT('',(1.223515066947E-03,4.0666117161E-03));
#700 = CARTESIAN_POINT('',(1.112374503061E-03,4.295530309013E-03));
#701 = CARTESIAN_POINT('',(1.037480436171E-03,4.528854171211E-03));
#702 = CARTESIAN_POINT('',(9.999814233857E-04,4.764457339806E-03));
#703 = CARTESIAN_POINT('',(1.000186742757E-03,5.674333651512E-03));
#704 = CARTESIAN_POINT('',(1.305991017645E-03,6.34875051411E-03));
#705 = CARTESIAN_POINT('',(1.923635681306E-03,6.971309686248E-03));
#706 = CARTESIAN_POINT('',(2.756818498459E-03,7.489658534591E-03));
#707 = CARTESIAN_POINT('',(3.693065818449E-03,7.903736929561E-03));
#708 = CARTESIAN_POINT('',(4.799731328598E-03,8.265520656263E-03));
#709 = CARTESIAN_POINT('',(4.93372327977E-03,8.307319488144E-03));
#710 = CARTESIAN_POINT('',(5.068210452079E-03,8.347349667306E-03));
#711 = CARTESIAN_POINT('',(5.203022801079E-03,8.385640934412E-03));
#712 = CARTESIAN_POINT('',(5.338001733693E-03,8.422227025391E-03));
#713 = CARTESIAN_POINT('',(6.226285988065E-03,8.651988894338E-03));
#714 = CARTESIAN_POINT('',(7.080125123725E-03,8.820771013591E-03));
#715 = CARTESIAN_POINT('',(8.037485306536E-03,8.951291137423E-03));
#716 = CARTESIAN_POINT('',(9.0841743192E-03,9.026123285247E-03));
#717 = CARTESIAN_POINT('',(1.018816815556E-02,9.030154079603E-03));
#718 = CARTESIAN_POINT('',(1.256864362678E-02,8.875794273571E-03));
#719 = CARTESIAN_POINT('',(1.384774054043E-02,8.694394020009E-03));
#720 = CARTESIAN_POINT('',(1.506787682126E-02,8.405747102246E-03));
#721 = CARTESIAN_POINT('',(1.613281680329E-02,8.020900981045E-03));
#722 = CARTESIAN_POINT('',(1.699568706088E-02,7.577215472961E-03));
#723 = CARTESIAN_POINT('',(1.813716182393E-02,6.757159575937E-03));
#724 = CARTESIAN_POINT('',(1.850987595511E-02,6.394211798534E-03));
#725 = CARTESIAN_POINT('',(1.877023635157E-02,6.028189358298E-03));
#726 = CARTESIAN_POINT('',(1.892838393537E-02,5.669541682616E-03));
#727 = CARTESIAN_POINT('',(1.90000110997E-02,5.325652198979E-03));
#728 = CARTESIAN_POINT('',(1.9E-02,5.E-03));
#729 = ( GEOMETRIC_REPRESENTATION_CONTEXT(2) 
PARAMETRIC_REPRESENTATION_CONTEXT() REPRESENTATION_CONTEXT('2D SPACE',''
  ) );
#730 = PCURVE('',#731,#767);
#731 = ( BOUNDED_SURFACE() B_SPLINE_SURFACE(2,2,(
    (#732,#733,#734,#735,#736)
    ,(#737,#738,#739,#740,#741)
    ,(#742,#743,#744,#745,#746)
    ,(#747,#748,#749,#750,#751)
    ,(#752,#753,#754,#755,#756)
    ,(#757,#758,#759,#760,#761)
    ,(#762,#763,#764,#765,#766
)),.UNSPECIFIED.,.T.,.F.,.F.) B_SPLINE_SURFACE_WITH_KNOTS((1,2,2,2,2,1),
  (3,2,3),(-2.094395102393,0.,2.094395102393,4.188790204786,
    6.28318530718,8.377580409573),(-1.570796326795,0.,1.570796326795),
.UNSPECIFIED.) GEOMETRIC_REPRESENTATION_ITEM() RATIONAL_B_SPLINE_SURFACE
((
    (1.,0.707106781187,1.,0.707106781187,1.)
    ,(0.5,0.353553390593,0.5,0.353553390593,0.5)
    ,(1.,0.707106781187,1.,0.707106781187,1.)
    ,(0.5,0.353553390593,0.5,0.353553390593,0.5)
    ,(1.,0.707106781187,1.,0.707106781187,1.)
    ,(0.5,0.353553390593,0.5,0.353553390593,0.5)
,(1.,0.707106781187,1.,0.707106781187,1.
))) REPRESENTATION_ITEM('') SURFACE() );
#732 = CARTESIAN_POINT('',(5.510910596163E-19,0.,-4.E-03));
#733 = CARTESIAN_POINT('',(9.E-03,0.,-4.E-03));
#734 = CARTESIAN_POINT('',(9.E-03,0.,0.));
#735 = CARTESIAN_POINT('',(9.E-03,0.,4.E-03));
#736 = CARTESIAN_POINT('',(5.510910596163E-19,0.,4.E-03));
#737 = CARTESIAN_POINT('',(5.510910596163E-19,4.2423009549E-19,-4.E-03)
  );
#738 = CARTESIAN_POINT('',(9.E-03,6.928203230276E-03,-4.E-03));
#739 = CARTESIAN_POINT('',(9.E-03,6.928203230276E-03,0.));
#740 = CARTESIAN_POINT('',(9.E-03,6.928203230276E-03,4.E-03));
#741 = CARTESIAN_POINT('',(5.510910596163E-19,4.2423009549E-19,4.E-03));
#742 = CARTESIAN_POINT('',(-2.755455298082E-19,2.12115047745E-19,-4.E-03
    ));
#743 = CARTESIAN_POINT('',(-4.5E-03,3.464101615138E-03,-4.E-03));
#744 = CARTESIAN_POINT('',(-4.5E-03,3.464101615138E-03,0.));
#745 = CARTESIAN_POINT('',(-4.5E-03,3.464101615138E-03,4.E-03));
#746 = CARTESIAN_POINT('',(-2.755455298082E-19,2.12115047745E-19,4.E-03)
  );
#747 = CARTESIAN_POINT('',(-1.102182119233E-18,5.999039130647E-35,
    -4.E-03));
#748 = CARTESIAN_POINT('',(-1.8E-02,9.797174393179E-19,-4.E-03));
#749 = CARTESIAN_POINT('',(-1.8E-02,9.797174393179E-19,0.));
#750 = CARTESIAN_POINT('',(-1.8E-02,9.797174393179E-19,4.E-03));
#751 = CARTESIAN_POINT('',(-1.102182119233E-18,5.999039130647E-35,4.E-03
    ));
#752 = CARTESIAN_POINT('',(-2.755455298082E-19,-2.12115047745E-19,
    -4.E-03));
#753 = CARTESIAN_POINT('',(-4.5E-03,-3.464101615138E-03,-4.E-03));
#754 = CARTESIAN_POINT('',(-4.5E-03,-3.464101615138E-03,0.));
#755 = CARTESIAN_POINT('',(-4.5E-03,-3.464101615138E-03,4.E-03));
#756 = CARTESIAN_POINT('',(-2.755455298082E-19,-2.12115047745E-19,4.E-03
    ));
#757 = CARTESIAN_POINT('',(5.510910596163E-19,-4.2423009549E-19,-4.E-03)
  );
#758 = CARTESIAN_POINT('',(9.E-03,-6.928203230276E-03,-4.E-03));
#759 = CARTESIAN_POINT('',(9.E-03,-6.928203230276E-03,0.));
#760 = CARTESIAN_POINT('',(9.E-03,-6.928203230276E-03,4.E-03));
#761 = CARTESIAN_POINT('',(5.510910596163E-19,-4.2423009549E-19,4.E-03)
  );
#762 = CARTESIAN_POINT('',(5.510910596163E-19,0.,-4.E-03));
#763 = CARTESIAN_POINT('',(9.E-03,0.,-4.E-03));
#764 = CARTESIAN_POINT('',(9.E-03,0.,0.));
#765 = CARTESIAN_POINT('',(9.E-03,0.,4.E-03));
#766 = CARTESIAN_POINT('',(5.510910596163E-19,0.,4.E-03));
#767 = DEFINITIONAL_REPRESENTATION('',(#768),#826);
#768 = B_SPLINE_CURVE_WITH_KNOTS('',6,(#769,#770,#771,#772,#773,#774,
    #775,#776,#777,#778,#779,#780,#781,#782,#783,#784,#785,#786,#787,
    #788,#789,#790,#791,#792,#793,#794,#795,#796,#797,#798,#799,#800,
    #801,#802,#803,#804,#805,#806,#807,#808,#809,#810,#811,#812,#813,
    #814,#815,#816,#817,#818,#819,#820,#821,#822,#823,#824,#825),
  .UNSPECIFIED.,.F.,.F.,(7,5,5,5,5,5,5,5,5,5,5,7),(0.,9.399864880715E-02
    ,0.222000037698,0.320001254211,0.336001238502,0.449000699817,
    0.500000017155,0.6459988133,0.665998769105,0.777999969602,
    0.906001354284,1.),.UNSPECIFIED.);
#769 = CARTESIAN_POINT('',(6.28318530718,3.944304526105E-31));
#770 = CARTESIAN_POINT('',(6.184748296144,3.967544522083E-31));
#771 = CARTESIAN_POINT('',(6.086311338149,3.914038684534E-31));
#772 = CARTESIAN_POINT('',(5.987874501195,3.904370842255E-31));
#773 = CARTESIAN_POINT('',(5.889437890779,3.90315185852E-31));
#774 = CARTESIAN_POINT('',(5.791001638108,3.857615061688E-31));
#775 = CARTESIAN_POINT('',(5.558522337134,3.798503873685E-31));
#776 = CARTESIAN_POINT('',(5.424479632925,3.755819968467E-31));
#777 = CARTESIAN_POINT('',(5.290438219804,3.709368390723E-31));
#778 = CARTESIAN_POINT('',(5.156397950974,3.661967232118E-31));
#779 = CARTESIAN_POINT('',(5.022358144206,3.616911259982E-31));
#780 = CARTESIAN_POINT('',(4.785693652591,3.544557890622E-31));
#781 = CARTESIAN_POINT('',(4.683069046142,3.515575004502E-31));
#782 = CARTESIAN_POINT('',(4.580444079714,3.489848188932E-31));
#783 = CARTESIAN_POINT('',(4.477818593415,3.46771510441E-31));
#784 = CARTESIAN_POINT('',(4.375192543566,3.449125457804E-31));
#785 = CARTESIAN_POINT('',(4.255810880718,5.410538364013E-20));
#786 = CARTESIAN_POINT('',(4.239055734072,-1.459147568898E-19));
#787 = CARTESIAN_POINT('',(4.222300583018,1.075554633011E-19));
#788 = CARTESIAN_POINT('',(4.205545415458,1.397253186143E-19));
#789 = CARTESIAN_POINT('',(4.18879022519,-3.678875339123E-19));
#790 = CARTESIAN_POINT('',(4.053702024521,3.763521835326E-18));
#791 = CARTESIAN_POINT('',(3.935369109711,7.152988050632E-18));
#792 = CARTESIAN_POINT('',(3.817036108591,1.042146250033E-17));
#793 = CARTESIAN_POINT('',(3.698702830937,1.33765281381E-17));
#794 = CARTESIAN_POINT('',(3.580369156502,1.580966494073E-17));
#795 = CARTESIAN_POINT('',(3.408628160433,1.835649182067E-17));
#796 = CARTESIAN_POINT('',(3.355221145354,1.901145422525E-17));
#797 = CARTESIAN_POINT('',(3.30181406895,1.95148807848E-17));
#798 = CARTESIAN_POINT('',(3.248406946654,1.98569495068E-17));
#799 = CARTESIAN_POINT('',(3.194999799393,2.003239272868E-17));
#800 = CARTESIAN_POINT('',(2.988700822882,2.006310274187E-17));
#801 = CARTESIAN_POINT('',(2.835808912446,1.872264494676E-17));
#802 = CARTESIAN_POINT('',(2.682917768394,1.598767732068E-17));
#803 = CARTESIAN_POINT('',(2.530027393999,1.228421547497E-17));
#804 = CARTESIAN_POINT('',(2.377137508232,8.11552814421E-18));
#805 = CARTESIAN_POINT('',(2.203303649109,3.18276398314E-18));
#806 = CARTESIAN_POINT('',(2.182359700052,2.58543676035E-18));
#807 = CARTESIAN_POINT('',(2.161415750682,1.985823504543E-18));
#808 = CARTESIAN_POINT('',(2.140471800161,1.384686426813E-18));
#809 = CARTESIAN_POINT('',(2.119527847708,7.827367485812E-19));
#810 = CARTESIAN_POINT('',(1.98129622765,-3.304938680474E-19));
#811 = CARTESIAN_POINT('',(1.864009140733,2.160256084354E-19));
#812 = CARTESIAN_POINT('',(1.746722802562,9.01663616249E-20));
#813 = CARTESIAN_POINT('',(1.629437193645,-2.040503903445E-19));
#814 = CARTESIAN_POINT('',(1.512152104888,8.998315812597E-20));
#815 = CARTESIAN_POINT('',(1.260827162973,8.148344779335E-30));
#816 = CARTESIAN_POINT('',(1.126787356206,8.148344779334E-30));
#817 = CARTESIAN_POINT('',(0.992747087375,8.148344779337E-30));
#818 = CARTESIAN_POINT('',(0.858705674255,8.148344779334E-30));
#819 = CARTESIAN_POINT('',(0.724662970045,8.148344779336E-30));
#820 = CARTESIAN_POINT('',(0.492183669072,4.48793467658E-30));
#821 = CARTESIAN_POINT('',(0.393747416401,1.645039535654E-29));
#822 = CARTESIAN_POINT('',(0.295310805985,4.477335206837E-30));
#823 = CARTESIAN_POINT('',(0.19687396903,-6.404575425248E-31));
#824 = CARTESIAN_POINT('',(9.843701103594E-02,2.160199344976E-29));
#825 = CARTESIAN_POINT('',(0.,7.88860905221E-31));
#826 = ( GEOMETRIC_REPRESENTATION_CONTEXT(2) 
PARAMETRIC_REPRESENTATION_CONTEXT() REPRESENTATION_CONTEXT('2D SPACE',''
  ) );
#827 = ADVANCED_FACE('',(#828),#731,.F.);
#828 = FACE_BOUND('',#829,.F.);
#829 = EDGE_LOOP('',(#830,#859,#860));
#830 = ORIENTED_EDGE('',*,*,#831,.T.);
#831 = EDGE_CURVE('',#608,#832,#834,.T.);
#832 = VERTEX_POINT('',#833);
#833 = CARTESIAN_POINT('',(5.510910596163E-19,-5.999039130647E-35,4.E-03
    ));
#834 = SEAM_CURVE('',#835,(#841,#850),.PCURVE_S1.);
#835 = ( BOUNDED_CURVE() B_SPLINE_CURVE(2,(#836,#837,#838,#839,#840),
.UNSPECIFIED.,.F.,.F.) B_SPLINE_CURVE_WITH_KNOTS((3,2,3),(4.712388980385
,6.28318530718,7.853981633974),.PIECEWISE_BEZIER_KNOTS.) CURVE() 
GEOMETRIC_REPRESENTATION_ITEM() RATIONAL_B_SPLINE_CURVE((1.,
0.707106781187,1.,0.707106781187,1.)) REPRESENTATION_ITEM('') );
#836 = CARTESIAN_POINT('',(-1.653273178849E-18,1.799711739194E-34,
    -4.E-03));
#837 = CARTESIAN_POINT('',(9.E-03,-9.797174393179E-19,-4.E-03));
#838 = CARTESIAN_POINT('',(9.E-03,-9.797174393179E-19,
    -9.797174393179E-19));
#839 = CARTESIAN_POINT('',(9.E-03,-9.797174393179E-19,4.E-03));
#840 = CARTESIAN_POINT('',(2.755455298082E-18,-2.999519565324E-34,4.E-03
    ));
#841 = PCURVE('',#731,#842);
#842 = DEFINITIONAL_REPRESENTATION('',(#843),#849);
#843 = B_SPLINE_CURVE_WITH_KNOTS('',2,(#844,#845,#846,#847,#848),
  .UNSPECIFIED.,.F.,.F.,(3,2,3),(4.712388980385,6.28318530718,
    7.853981633974),.PIECEWISE_BEZIER_KNOTS.);
#844 = CARTESIAN_POINT('',(6.28318530718,-1.570796326795));
#845 = CARTESIAN_POINT('',(6.28318530718,-0.785398163397));
#846 = CARTESIAN_POINT('',(6.28318530718,-2.720481184601E-16));
#847 = CARTESIAN_POINT('',(6.28318530718,0.785398163397));
#848 = CARTESIAN_POINT('',(6.28318530718,1.570796326795));
#849 = ( GEOMETRIC_REPRESENTATION_CONTEXT(2) 
PARAMETRIC_REPRESENTATION_CONTEXT() REPRESENTATION_CONTEXT('2D SPACE',''
  ) );
#850 = PCURVE('',#731,#851);
#851 = DEFINITIONAL_REPRESENTATION('',(#852),#858);
#852 = B_SPLINE_CURVE_WITH_KNOTS('',2,(#853,#854,#855,#856,#857),
  .UNSPECIFIED.,.F.,.F.,(3,2,3),(4.712388980385,6.28318530718,
    7.853981633974),.PIECEWISE_BEZIER_KNOTS.);
#853 = CARTESIAN_POINT('',(0.,-1.570796326795));
#854 = CARTESIAN_POINT('',(8.881784197001E-16,-0.785398163397));
#855 = CARTESIAN_POINT('',(0.,-2.720481184601E-16));
#856 = CARTESIAN_POINT('',(8.881784197001E-16,0.785398163397));
#857 = CARTESIAN_POINT('',(0.,1.570796326795));
#858 = ( GEOMETRIC_REPRESENTATION_CONTEXT(2) 
PARAMETRIC_REPRESENTATION_CONTEXT() REPRESENTATION_CONTEXT('2D SPACE',''
  ) );
#859 = ORIENTED_EDGE('',*,*,#831,.F.);
#860 = ORIENTED_EDGE('',*,*,#607,.F.);
#861 = ( GEOMETRIC_REPRESENTATION_CONTEXT(3) 
GLOBAL_UNCERTAINTY_ASSIGNED_CONTEXT((#865)) GLOBAL_UNIT_ASSIGNED_CONTEXT
((#862,#863,#864)) REPRESENTATION_CONTEXT('Context #1',
  '3D Context with UNIT and UNCERTAINTY') );
#862 = ( LENGTH_UNIT() NAMED_UNIT(*) SI_UNIT(.MILLI.,.METRE.) );
#863 = ( NAMED_UNIT(*) PLANE_ANGLE_UNIT() SI_UNIT($,.RADIAN.) );
#864 = ( NAMED_UNIT(*) SI_UNIT($,.STERADIAN.) SOLID_ANGLE_UNIT() );
#865 = UNCERTAINTY_MEASURE_WITH_UNIT(LENGTH_MEASURE(5.E-06),#862,
  'distance_accuracy_value','confusion accuracy');
#866 = PRODUCT_RELATED_PRODUCT_CATEGORY('part',$,(#7));
ENDSEC;
END-ISO-10303-21;
