DBRep_DrawableShape

CASCADE Topology V1, (c) Matra-Datavision
Locations 0
Curve2ds 14
8 4.7123889803846897 7.8539816339744828
7 0 0  2 5 3  6.2831853071795862 -1.5707963267948968  6.2831853071795871 -0.78539816339744839  6.2831853071795862 -2.7204811846010155e-16  6.2831853071795871 0.78539816339744806  6.2831853071795862 1.5707963267948963 
 4.7123889803846897 3 6.2831853071795862 2 7.8539816339744828 3
8 4.7123889803846897 7.8539816339744828
7 0 0  2 5 3  0 -1.5707963267948968  8.8817841970012523e-16 -0.78539816339744839  0 -2.7204811846010155e-16  8.8817841970012523e-16 0.78539816339744806  0 1.5707963267948963 
 4.7123889803846897 3 6.2831853071795862 2 7.8539816339744828 3
7 0 0  7 38 7  6.2831853071795871 1.1832913578315177e-30  6.1970153928562572 1.2317147392903968e-30  6.1108455327912106 1.0982495781704099e-18  6.0246757861812901 1.4615385330922107e-20  5.9385062259668668 -1.527813750115497e-18  5.8523369349479006 -7.6582746294624644e-19  5.7661680018999837 2.1408055081234764e-18  5.5651047136810146 -2.5132692490697496e-18  5.4502106669235646 3.3371396230863323e-18  5.3353176525538553 -5.8769042884498216e-19  5.2204256210734084 -1.8206233075058349e-18  5.1055342552341036 1.8473879032046191e-18  4.9906431046835928 -1.3524607481750965e-18  4.794071161266797 -5.1909641398511327e-18  4.7123904326786947 -7.117450034493238e-18  4.6307094715602721 -9.3592201855346874e-18  4.5490281764555167 -1.1847628587658086e-17  4.4673464887798486 -1.4494821550497743e-17  4.3856643961007098 -1.7226970070847877e-17  4.2869276235487588 -2.0600131632259182e-17  4.2698732938203143 -2.047829098238427e-17  4.2528189556041749 -2.413964426972942e-17  4.2357645811653448 -1.8806068921194699e-17  4.2187102204090774 -2.5761637835449812e-17  4.2016558183448929 -2.2479251821319109e-17  4.05983575281111 -3.6142149662386917e-17  3.935070241732658 -7.0941113902598104e-18  3.8103046602964445 -2.6646429805605553e-17  3.6855388353021707 -3.5060350489385882e-17  3.5607725828810044 -1.7110685107487524e-17  3.4360057929849575 -2.4122267395168437e-17  3.287003534072769 -2.4122267395168437e-17  3.2627684012728762 -2.4122267395167993e-17  3.2385332602545907 -2.4122267395167852e-17  3.214298112907906 -2.4122267395168277e-17  3.1900629612423188 -2.4122267395169054e-17  3.1658278073868256 -2.41222673951695e-17  3.1415926535899286 -2.4122267395168437e-17 
 0 8 0.19199675784628803 6 0.44800021509088273 6 0.63000289362184392 6 0.66800285609594479 6 0.94600087532792831 6 1 8
7 0 0  7 38 7  0.02 0.0050000000000000044  0.02 0.0046436902723814549  0.019940724850716567 0.0042703536013663527  0.019812071656013841 0.0038826647598078413  0.019603555868585965 0.0034855839340378523  0.019306532523916658 0.0030859952840281419  0.018916417474238879 0.0026923455035513023  0.017792877308407517 0.0018101828961421369  0.016988513153385589 0.001333746133472088  0.016024803886928739 0.00090647434492679253  0.014926118927718269 0.00055338637497734215  0.013738750353516996 0.00029103827745862696  0.012519320788126726 0.00012305285246176669  0.010452057984111281 -1.3642139936874768e-05  0.0095986817388884343 -2.5874112751271271e-05  0.008767474455505294 4.3031328433492971e-06  0.0079714955054230076 7.2430227525732138e-05  0.0072201754105787582 0.00017274179513942071  0.0065191726081716989 0.0002991607638342274  0.0057347388766929852 0.00047701204481296537  0.0056017397729173496 0.00050856959861401139  0.0054698548586993734 0.00054132450294562204  0.0053431384785419134 0.0005740450609148216  0.0052147196158456319 0.00060869646377977472  0.0050921418203319618 0.0006430257151948675  0.0040764426407020318 0.00093858553459266693  0.0031837729512319514 0.0012706615245850442  0.0023226478015208286 0.0016829534470898209  0.0015384479631083974 0.0021822760584740285  0.00088848290489053155 0.0027626134358317432  0.00042634920842821725 0.0034027190352173948  0.00012431744917550607 0.0042029628210334307  8.3094615264140906e-05 0.0043342590102112364  4.9944432195986568e-05 0.0044664745169486278  2.4994984391366196e-05 0.0045993866087197062  8.3322298198069491e-06 0.004732767548400115  3.9891255024619432e-17 0.0048663845942670475  0 0.0049999999999992507 
 0 8 0.19199675784628803 6 0.44800021509088273 6 0.63000289362184392 6 0.66800285609594479 6 0.94600087532792831 6 1 8
7 0 0  8 37 6  3.1415926535899286 -2.4122267395168437e-17  3.0143571035851577 -2.4122267395162857e-17  2.8871216230374901 -1.7117912618269544e-17  2.7598865936571086 -4.0232303143923227e-17  2.6326520834131526 -1.6277360723587051e-17  2.5054179818485958 -8.7126677680287564e-18  2.3781841345602546 -4.8637572633951965e-17  2.2509504102591906 -1.186460778412734e-17  2.1056524413252955 -2.5862565679482909e-17  2.0875882519474893 -1.8520586136731523e-17  2.0695240103466834 -3.3092635393012178e-17  2.0514599069377919 -1.5745341854134842e-17  2.0333957082457603 -2.8611462029446189e-17  2.0153315909183886 -2.2999750189265006e-17  1.9972674704281757 -2.4122267395168434e-17  1.9077312186644055 -2.412226739516844e-17  1.8362593415697703 -2.412226739516844e-17  1.7647877636027083 -2.412226739516844e-17  1.6933164831719298 -2.412226739516844e-17  1.6218454752001108 -2.412226739516844e-17  1.5503746923540684 -2.412226739516844e-17  1.4789040662749382 -2.412226739516844e-17  1.3069036157852649 -2.412226739516844e-17  1.2063738395831771 -2.412226739516844e-17  1.1058439482961306 -2.412226739516844e-17  1.0053136703662711 -2.412226739516844e-17  0.90478277423724662 -2.412226739516844e-17  0.80425112856667103 -2.412226739516844e-17  0.70371874299764714 -2.412226739516844e-17  0.52778836580591326 -2.412226739516844e-17  0.45239060549378957 -1.1630343026018333e-17  0.37699256534494813 -1.6368643833588003e-17  0.3015943011055861 -3.3771170233680652e-17  0.22619586601961472 -4.3937017788407565e-17  0.15079730937214175 -3.0583621482562916e-17  0.075398675032954138 1.5218698420547938e-30  0 1.5777218104420236e-30 
 0 9 0.32399709960173367 7 0.36999703877869305 7 0.55199973683870285 7 0.80800322155250581 7 1 9
7 0 0  8 37 6  0 0.0049999999999992516  -2.0943072265907868e-16 0.0057014863524243939  0.00022485939369012558 0.0064029024448811729  0.00067510238638258447 0.0070731383375151726  0.0013212370222489855 0.0076793000656597216  0.0021072091635092097 0.0082021256196486009  0.0029739818732567023 0.0086373386046254136  0.0038793427467657439 0.0089898597102288369  0.0049193394927110334 0.0093072565286656146  0.0050496227501454658 0.0093454553324609606  0.0051731919747128267 0.0093802791928492141  0.0053153190213513155 0.0094190417093862298  0.0054452104093821157 0.0094525722954273417  0.0055861651449487012 0.0094877796444722932  0.005726716426647625 0.0095211690596450453  0.0064380548090795806 0.0096824477469937605  0.0070449247099747501 0.0097956534626865606  0.0076897504698539591 0.0098899529346188463  0.0083694849804618627 0.0099616333198152447  0.0090791771867719182 0.010007013334254524  0.0098120258001920483 0.010022816119547667  0.010559433011770314 0.01000654210961595  0.01236828796528357 0.0098869339912673587  0.013433892962168388 0.009750958078790669  0.014480855712390859 0.0095449941615928357  0.015475461407320833 0.0092700696400488652  0.016386194861848571 0.0089332987343691689  0.017189604192140863 0.0085471446758605598  0.01787313122266684 0.0081268046683339625  0.01885622886777032 0.0073549123868503893  0.019209003761496764 0.0070124171610916417  0.019492172114334603 0.0066642618097163247  0.019707813762299697 0.0063158756530775151  0.019860316604027334 0.0059719519246078951  0.019955543638037473 0.0056363122308799888  0.019999999999999993 0.0053117710116663899  0.019999999999999993 0.0050000000000000001 
 0 9 0.32399709960173367 7 0.36999703877869305 7 0.55199973683870285 7 0.80800322155250581 7 1 9
7 0 0  1 2 2  0 1.5707963267948966  6.2831853071795862 1.5707963267948966 
 0 2 6.2831853071795862 2
8 0 6.2831853071795862
7 0 0  1 2 2  0 1.5707963267948966  6.2831853071795862 1.5707963267948966 
 0 2 6.2831853071795862 2
7 0 0  6 57 12  6.2831853071795871 3.944304526105059e-31  6.1847482961437628 3.9675445220832893e-31  6.086311338149347 3.9140386845335183e-31  5.987874501194784 3.9043708422553725e-31  5.8894378907786775 3.9031518585203803e-31  5.7910016381077432 3.8576150616877148e-31  5.5585223371342138 3.7985038736847323e-31  5.4244796329249487 3.7558199684666121e-31  5.2904382198038089 3.7093683907227403e-31  5.1563979509738598 3.66196723211837e-31  5.0223581442064527 3.6169112599821449e-31  4.7856936525906377 3.5445578906218184e-31  4.6830690461418518 3.515575004502136e-31  4.5804440797141739 3.4898481889315776e-31  4.4778185934153205 3.4677151044104678e-31  4.3751925435663876 3.4491254578041035e-31  4.2558108807183848 5.4105383640126281e-20  4.2390557340718624 -1.4591475688979672e-19  4.2223005830177751 1.0755546330108244e-19  4.2055454154584098 1.3972531861428952e-19  4.1887902251896492 -3.6788753391234581e-19  4.0537020245214697 3.7635218353255034e-18  3.9353691097114569 7.1529880506315751e-18  3.8170361085906475 1.0421462500327256e-17  3.6987028309373549 1.337652813809579e-17  3.5803691565023121 1.5809664940730526e-17  3.4086281604334374 1.8356491820669132e-17  3.3552211453535139 1.9011454225251674e-17  3.3018140689501876 1.951488078479545e-17  3.2484069466540912 1.9856949506803186e-17  3.1949997993926194 2.0032392728682746e-17  2.9887008228815088 2.0063102741865877e-17  2.8358089124462627 1.8722644946761953e-17  2.6829177683939056 1.5987677320679135e-17  2.5300273939987532 1.2284215474966598e-17  2.3771375082316588 8.1155281442096359e-18  2.2033036491087885 3.1827639831396497e-18  2.1823597000523449 2.5854367603500799e-18  2.1614157506816825 1.9858235045433022e-18  2.1404718001608227 1.384686426813091e-18  2.119527847708488 7.827367485811638e-19  1.9812962276498916 -3.3049386804739309e-19  1.8640091407331589 2.160256084354304e-19  1.7467228025619408 9.0166361624904176e-20  1.629437193645092 -2.0405039034448169e-19  1.51215210488795 8.9983158125972289e-20  1.2608271629732091 8.1483447793354116e-30  1.1267873562064235 8.1483447793337272e-30  0.99274708737518069 8.1483447793370007e-30  0.85870567425534983 8.1483447793335815e-30  0.72466297004536429 8.1483447793355181e-30  0.4921836690719445 4.4879346765803046e-30  0.39374741640109168 1.6450395356540376e-29  0.29531080598484583 4.4773352068366932e-30  0.19687396903018908 -6.4045754252480045e-31  0.098437011035937091 2.160199344976233e-29  0 7.8886090522101181e-31 
 0 7 0.093998648807154389 5 0.22200003769847282 5 0.32000125421061942 5 0.33600123850248798 5 0.44900069981701013 5 0.50000001715516307 5 0.64599881329972308 5 0.66599876910529832 5 0.77799996960161355 5 0.90600135428373618 5 1 7
7 0 0  6 57 12  0.019000000000000003 0.0050000000000000036  0.019000011099701345 0.0046743478010213748  0.018928383935364362 0.0043304583173842566  0.018770236351565727 0.0039718106417026867  0.018509875955111912 0.0036057882014662421  0.018137161823926665 0.0032428404240633104  0.016995687060879949 0.0024227845270396739  0.016132816803287091 0.0019790990189539562  0.015067876821258902 0.0015942528977552876  0.013847740540432869 0.001305605979991033  0.012568643626779345 0.001124205726429372  0.010326967660941454 0.00097885919934627939  0.0093603632653346692 0.00097403966826808757  0.008432558943319339 0.0010239797978601232  0.007566825383483358 0.0011193250767694576  0.0067758913667543136 0.0012488213927493135  0.0059447950612237727 0.0014285943763021763  0.0058307984895333122 0.0014543308767035799  0.0057176373872808535 0.00148102081886146  0.0056070872722479735 0.0015081508735802591  0.0055000565568256556 0.0015354381255851743  0.0046292492549017484 0.0017661233211418482  0.0038698384851226461 0.0020216781954790456  0.0031381935805503956 0.0023378709174787121  0.0024776131557114551 0.0027172998261392367  0.0019348709645978042 0.003153998889991115  0.0013687275489059287 0.0038440105034441671  0.0012235150669473278 0.0040666117161002107  0.0011123745030614674 0.0042955303090133866  0.0010374804361712696 0.004528854171210764  0.00099998142338574665 0.0047644573398060129  0.0010001867427567547 0.0056743336515122254  0.0013059910176450812 0.0063487505141098886  0.0019236356813056368 0.0069713096862482754  0.0027568184984593045 0.0074896585345914316  0.0036930658184491888 0.0079037369295606487  0.0047997313285984269 0.0082655206562630562  0.0049337232797696182 0.0083073194881440934  0.005068210452079021 0.0083473496673055082  0.0052030228010789496 0.0083856409344117352  0.0053380017336928263 0.0084222270253913722  0.0062262859880646455 0.0086519888943377993  0.0070801251237254323 0.0088207710135908331  0.0080374853065361077 0.0089512911374225682  0.0090841743192000488 0.0090261232852470105  0.010188168155562559 0.0090301540796027795  0.012568643626777195 0.0088757942735709951  0.013847740540430982 0.0086943940200088065  0.015067876821257785 0.0084057471022462912  0.016132816803286071 0.0080209009810453449  0.0169956870608787 0.007577215472961407  0.01813716182392662 0.0067571595759371847  0.018509875955110739 0.0063942117985341515  0.018770236351565734 0.0060281893582975546  0.01892838393536531 0.0056695416826158746  0.019000011099700686 0.0053256521989787286  0.019000000000000003 0.0050000000000000001 
 0 7 0.093998648807154389 5 0.22200003769847282 5 0.32000125421061942 5 0.33600123850248798 5 0.44900069981701013 5 0.50000001715516307 5 0.64599881329972308 5 0.66599876910529832 5 0.77799996960161355 5 0.90600135428373618 5 1 7
8 4.7123889803846897 7.8539816339744828
7 0 0  2 5 3  6.2831853071795862 -1.5707963267948968  6.2831853071795871 -0.78539816339744839  6.2831853071795862 -2.7204811846010155e-16  6.2831853071795871 0.78539816339744806  6.2831853071795862 1.5707963267948963 
 4.7123889803846897 3 6.2831853071795862 2 7.8539816339744828 3
8 4.7123889803846897 7.8539816339744828
7 0 0  2 5 3  0 -1.5707963267948968  8.8817841970012523e-16 -0.78539816339744839  0 -2.7204811846010155e-16  8.8817841970012523e-16 0.78539816339744806  0 1.5707963267948963 
 4.7123889803846897 3 6.2831853071795862 2 7.8539816339744828 3
7 0 0  1 2 2  0 1.5707963267948966  6.2831853071795862 1.5707963267948966 
 0 2 6.2831853071795862 2
8 0 6.2831853071795862
7 0 0  1 2 2  0 1.5707963267948966  6.2831853071795862 1.5707963267948966 
 0 2 6.2831853071795862 2
Curves 5
8 4.7123889803846897 7.8539816339744828
7 1 0  2 5 3  -1.8369701987210296e-18 2.2496396739927866e-34 -0.0050000000000000001  1 0.0099999999999999967 -1.2246467991473528e-18 -0.005000000000000001  0.70710678118654757 0.01 -1.2246467991473532e-18 -1.2246467991473532e-18  1 0.010000000000000002 -1.2246467991473534e-18 0.0049999999999999984  0.70710678118654757 3.0616169978683832e-18 -3.7493994566546444e-34 0.0050000000000000001  1
 4.7123889803846897 3 6.2831853071795862 2 7.8539816339744828 3
7 0 0  7 38 7  0.01 4.3368086899420177e-18 0  0.01 -0.00035630972761854524 0  0.0099407248507165664 -0.00072964639863364739 0  0.0098120716560138408 -0.0011173352401921588 0  0.009603555868585965 -0.0015144160659621478 0  0.0093065325239166576 -0.0019140047159718582 0  0.0089164174742388785 -0.0023076544964486978 0  0.0077928773084075167 -0.0031898171038578635 0  0.006988513153385589 -0.0036662538665279123 0  0.0060248038869287392 -0.0040935256550732073 0  0.0049261189277182687 -0.0044466136250226581 0  0.0037387503535169959 -0.0047089617225413733 0  0.0025193207881267256 -0.0048769471475382338 0  0.00045205798411128081 -0.005013642139936875 0  -0.00040131826111156586 -0.0050258741127512715 0  -0.0012325255444947062 -0.0049956968671566512 0  -0.0020285044945769926 -0.0049275697724742683 0  -0.002779824589421242 -0.0048272582048605791 0  -0.0034808273918283013 -0.0047008392361657728 0  -0.004265261123307015 -0.0045229879551870345 0  -0.0043982602270826506 -0.0044914304013859889 0  -0.0045301451413006268 -0.0044586754970543782 0  -0.0046568615214580868 -0.0044259549390851787 0  -0.0047852803841543683 -0.0043913035362202254 0  -0.0049078581796680384 -0.0043569742848051322 0  -0.0059235573592979684 -0.0040614144654073335 0  -0.0068162270487680489 -0.0037293384754149561 0  -0.0076773521984791716 -0.0033170465529101792 0  -0.0084615520368916033 -0.0028177239415259716 0  -0.0091115170951094684 -0.0022373865641682569 0  -0.0095736507915717833 -0.0015972809647826053 0  -0.0098756825508244939 -0.00079703717896656943 0  -0.0099169053847358597 -0.00066574098978876371 0  -0.0099500555678040132 -0.00053352548305137231 0  -0.0099750050156086345 -0.00040061339128029394 0  -0.0099916677701801931 -0.00026723245159988515 0  -0.0099999999999999603 -0.00013361540573295257 0  -0.01 -7.4940054162198066e-16 0 
 0 8 0.19199675784628803 6 0.44800021509088273 6 0.63000289362184392 6 0.66800285609594479 6 0.94600087532792831 6 1 8
7 0 0  8 37 6  -0.01 -7.4853317988399226e-16 0  -0.01000000000000021 0.00070148635242439378 0  -0.0097751406063098754 0.0014029024448811728 0  -0.009324897613617416 0.0020731383375151725 0  -0.0086787629777510152 0.0026793000656597215 0  -0.0078927908364907901 0.0032021256196486008 0  -0.0070260181267432983 0.0036373386046254135 0  -0.0061206572532342563 0.0039898597102288368 0  -0.0050806605072889668 0.0043072565286656145 0  -0.0049503772498545344 0.0043454553324609605 0  -0.0048268080252871735 0.004380279192849214 0  -0.0046846809786486848 0.0044190417093862297 0  -0.0045547895906178845 0.0044525722954273416 0  -0.004413834855051299 0.0044877796444722931 0  -0.0042732835733523752 0.0045211690596450452 0  -0.0035619451909204196 0.0046824477469937604 0  -0.0029550752900252501 0.0047956534626865605 0  -0.0023102495301460411 0.0048899529346188462 0  -0.0016305150195381375 0.0049616333198152446 0  -0.00092082281322808206 0.0050070133342545236 0  -0.00018797419980795191 0.0050228161195476672 0  0.0005594330117703137 0.0050065421096159501 0  0.0023682879652835703 0.0048869339912673585 0  0.0034338929621683875 0.0047509580787906689 0  0.0044808557123908587 0.0045449941615928356 0  0.0054754614073208325 0.0042700696400488651 0  0.0063861948618485712 0.0039332987343691688 0  0.0071896041921408627 0.0035471446758605597 0  0.0078731312226668401 0.0031268046683339623 0  0.0088562288677703199 0.0023549123868503892 0  0.0092090037614967635 0.0020124171610916416 0  0.0094921721143346027 0.0016642618097163246 0  0.0097078137622996965 0.001315875653077515 0  0.0098603166040273343 0.000971951924607895 0  0.0099555436380374725 0.00063631223087998873 0  0.0099999999999999933 0.00031177101166638983 0  0.0099999999999999933 0 0 
 0 9 0.32399709960173367 7 0.36999703877869305 7 0.55199973683870285 7 0.80800322155250581 7 1 9
7 0 0  6 57 12  0.0090000000000000028 3.4694469519536142e-18 0  0.0090000110997013449 -0.0003256521989786253 0  0.0089283839353643622 -0.0006695416826157435 0  0.0087702363515657269 -0.0010281893582973134 0  0.0085098759551119115 -0.001394211798533758 0  0.0081371618239266651 -0.0017571595759366897 0  0.0069956870608799491 -0.0025772154729603262 0  0.0061328168032870906 -0.0030209009810460439 0  0.0050678768212589018 -0.0034057471022447125 0  0.0038477405404328691 -0.0036943940200089669 0  0.0025686436267793444 -0.0038757942735706281 0  0.00032696766094145353 -0.0040211408006537207 0  -0.00063963673466533102 -0.0040259603317319122 0  -0.0015674410566806612 -0.0039760202021398771 0  -0.0024331746165166422 -0.0038806749232305426 0  -0.0032241086332456866 -0.0037511786072506863 0  -0.0040552049387762275 -0.003571405623697824 0  -0.004169201510466688 -0.0035456691232964204 0  -0.0042823626127191467 -0.0035189791811385401 0  -0.0043929127277520267 -0.003491849126419741 0  -0.0044999434431743446 -0.0034645618744148258 0  -0.0053707507450982519 -0.0032338766788581521 0  -0.0061301615148773546 -0.0029783218045209546 0  -0.0068618064194496051 -0.002662129082521288 0  -0.0075223868442885452 -0.0022827001738607634 0  -0.0080651290354021958 -0.0018460011100088851 0  -0.0086312724510940707 -0.001155989496555833 0  -0.0087764849330526726 -0.00093338828389978937 0  -0.0088876254969385334 -0.00070446969098661352 0  -0.0089625195638287306 -0.0004711458287892361 0  -0.0090000185766142531 -0.0002355426601939872 0  -0.0089998132572432464 0.0006743336515122253 0  -0.0086940089823549192 0.0013487505141098885 0  -0.0080763643186943634 0.0019713096862482753 0  -0.0072431815015406957 0.0024896585345914315 0  -0.006306934181550811 0.0029037369295606486 0  -0.0052002686714015733 0.0032655206562630561 0  -0.005066276720230382 0.0033073194881440933 0  -0.0049317895479209792 0.0033473496673055081 0  -0.0047969771989210507 0.0033856409344117351 0  -0.0046619982663071739 0.0034222270253913721 0  -0.0037737140119353547 0.0036519888943377992 0  -0.0029198748762745679 0.003820771013590833 0  -0.0019625146934638925 0.0039512911374225681 0  -0.00091582568079995146 0.0040261232852470104 0  0.00018816815556255834 0.0040301540796027794 0  0.002568643626777195 0.003875794273570995 0  0.0038477405404309818 0.0036943940200088064 0  0.0050678768212577847 0.0034057471022462911 0  0.0061328168032860706 0.0030209009810453448 0  0.0069956870608787001 0.0025772154729614069 0  0.00813716182392662 0.0017571595759371846 0  0.0085098759551107388 0.0013942117985341514 0  0.0087702363515657338 0.0010281893582975545 0  0.0089283839353653093 0.00066954168261587448 0  0.0090000110997006857 0.00032565219897872852 0  0.0090000000000000028 0 0 
 0 7 0.093998648807154389 5 0.22200003769847282 5 0.32000125421061942 5 0.33600123850248798 5 0.44900069981701013 5 0.50000001715516307 5 0.64599881329972308 5 0.66599876910529832 5 0.77799996960161355 5 0.90600135428373618 5 1 7
8 4.7123889803846897 7.8539816339744828
7 1 0  2 5 3  -1.6532731788489268e-18 1.7997117391942291e-34 -0.0040000000000000001  1 0.0089999999999999976 -9.7971743931788213e-19 -0.004000000000000001  0.70710678118654757 0.0090000000000000011 -9.7971743931788251e-19 -9.7971743931788251e-19  1 0.0090000000000000028 -9.7971743931788271e-19 0.0039999999999999983  0.70710678118654757 2.7554552980815452e-18 -2.9995195653237157e-34 0.0040000000000000001  1
 4.7123889803846897 3 6.2831853071795862 2 7.8539816339744828 3
Polygon3D 0
PolygonOnTriangulations 0
Surfaces 5
9 1 1 1 0 2 2 6 5 4 3 6.123233995736766e-19 0 -0.0050000000000000001  1 0.01 0 -0.0049999999999999992  0.70710678118654757 0.01 0 0  1 0.01 0 0.0049999999999999992  0.70710678118654757 6.123233995736766e-19 0 0.0050000000000000001  1 
6.123233995736766e-19 5.3028761936245326e-19 -0.0050000000000000001  0.5 0.01 0.0086602540378443848 -0.0049999999999999992  0.35355339059327379 0.01 0.0086602540378443848 0  0.5 0.01 0.0086602540378443848 0.0049999999999999992  0.35355339059327379 6.123233995736766e-19 5.3028761936245326e-19 0.0050000000000000001  0.5 
-3.061616997868382e-19 2.6514380968122673e-19 -0.0050000000000000001  1 -0.0049999999999999975 0.0043301270189221933 -0.0049999999999999992  0.70710678118654757 -0.0049999999999999975 0.0043301270189221933 0  1 -0.0049999999999999975 0.0043301270189221933 0.0049999999999999992  0.70710678118654757 -3.061616997868382e-19 2.6514380968122673e-19 0.0050000000000000001  1 
-1.224646799147353e-18 7.4987989133092872e-35 -0.0050000000000000001  0.5 -0.019999999999999997 1.224646799147353e-18 -0.0049999999999999992  0.35355339059327379 -0.019999999999999997 1.224646799147353e-18 0  0.5 -0.019999999999999997 1.224646799147353e-18 0.0049999999999999992  0.35355339059327379 -1.224646799147353e-18 7.4987989133092872e-35 0.0050000000000000001  0.5 
-3.0616169978683854e-19 -2.6514380968122663e-19 -0.0050000000000000001  1 -0.0050000000000000044 -0.0043301270189221924 -0.0049999999999999992  0.70710678118654757 -0.0050000000000000044 -0.0043301270189221924 0  1 -0.0050000000000000044 -0.0043301270189221924 0.0049999999999999992  0.70710678118654757 -3.0616169978683854e-19 -2.6514380968122663e-19 0.0050000000000000001  1 
6.1232339957367563e-19 -5.3028761936245355e-19 -0.0050000000000000001  0.5 0.0099999999999999846 -0.0086602540378443883 -0.0049999999999999992  0.35355339059327379 0.0099999999999999846 -0.0086602540378443883 0  0.5 0.0099999999999999846 -0.0086602540378443883 0.0049999999999999992  0.35355339059327379 6.1232339957367563e-19 -5.3028761936245355e-19 0.0050000000000000001  0.5 

0 2
2.0943951023931953 2
4.1887902047863905 2
6.2831853071795862 2

-1.5707963267948966 3
0 2
1.5707963267948966 3

1 -0.01 -0.0050000000000000001 0 0 0 1 1 0 -0 -0 1 0 
9 1 1 1 0 2 2 6 5 4 3 6.123233995736766e-17 0 -1  1 1 0 -0.99999999999999989  0.70710678118654757 1 0 0  1 1 0 0.99999999999999989  0.70710678118654757 6.123233995736766e-17 0 1  1 
6.123233995736766e-17 1.0605752387249065e-16 -1  0.5 1 1.7320508075688767 -0.99999999999999989  0.35355339059327379 1 1.7320508075688767 0  0.5 1 1.7320508075688767 0.99999999999999989  0.35355339059327379 6.123233995736766e-17 1.0605752387249065e-16 1  0.5 
-3.0616169978683818e-17 5.3028761936245346e-17 -1  1 -0.49999999999999978 0.86602540378443871 -0.99999999999999989  0.70710678118654757 -0.49999999999999978 0.86602540378443871 0  1 -0.49999999999999978 0.86602540378443871 0.99999999999999989  0.70710678118654757 -3.0616169978683818e-17 5.3028761936245346e-17 1  1 
-1.224646799147353e-16 1.4997597826618573e-32 -1  0.5 -1.9999999999999996 2.4492935982947059e-16 -0.99999999999999989  0.35355339059327379 -1.9999999999999996 2.4492935982947059e-16 0  0.5 -1.9999999999999996 2.4492935982947059e-16 0.99999999999999989  0.35355339059327379 -1.224646799147353e-16 1.4997597826618573e-32 1  0.5 
-3.0616169978683855e-17 -5.3028761936245327e-17 -1  1 -0.50000000000000044 -0.86602540378443837 -0.99999999999999989  0.70710678118654757 -0.50000000000000044 -0.86602540378443837 0  1 -0.50000000000000044 -0.86602540378443837 0.99999999999999989  0.70710678118654757 -3.0616169978683855e-17 -5.3028761936245327e-17 1  1 
6.1232339957367562e-17 -1.0605752387249072e-16 -1  0.5 0.99999999999999845 -1.7320508075688776 -0.99999999999999989  0.35355339059327379 0.99999999999999845 -1.7320508075688776 0  0.5 0.99999999999999845 -1.7320508075688776 0.99999999999999989  0.35355339059327379 6.1232339957367562e-17 -1.0605752387249072e-16 1  0.5 

0 2
2.0943951023931953 2
4.1887902047863905 2
6.2831853071795862 2

-1.5707963267948966 3
0 2
1.5707963267948966 3

9 1 1 1 0 2 2 6 5 4 3 5.5109105961630897e-19 0 -0.0040000000000000001  1 0.0090000000000000011 0 -0.0039999999999999992  0.70710678118654757 0.0090000000000000011 0 0  1 0.0090000000000000011 0 0.0039999999999999992  0.70710678118654757 5.5109105961630897e-19 0 0.0040000000000000001  1 
5.5109105961630897e-19 4.2423009548996265e-19 -0.0040000000000000001  0.5 0.0090000000000000011 0.006928203230275507 -0.0039999999999999992  0.35355339059327379 0.0090000000000000011 0.006928203230275507 0  0.5 0.0090000000000000011 0.006928203230275507 0.0039999999999999992  0.35355339059327379 5.5109105961630897e-19 4.2423009548996265e-19 0.0040000000000000001  0.5 
-2.7554552980815439e-19 2.121150477449814e-19 -0.0040000000000000001  1 -0.0044999999999999988 0.0034641016151377548 -0.0039999999999999992  0.70710678118654757 -0.0044999999999999988 0.0034641016151377548 0  1 -0.0044999999999999988 0.0034641016151377548 0.0039999999999999992  0.70710678118654757 -2.7554552980815439e-19 2.121150477449814e-19 0.0040000000000000001  1 
-1.1021821192326178e-18 5.9990391306474297e-35 -0.0040000000000000001  0.5 -0.017999999999999999 9.7971743931788232e-19 -0.0039999999999999992  0.35355339059327379 -0.017999999999999999 9.7971743931788232e-19 0  0.5 -0.017999999999999999 9.7971743931788232e-19 0.0039999999999999992  0.35355339059327379 -1.1021821192326178e-18 5.9990391306474297e-35 0.0040000000000000001  0.5 
-2.7554552980815473e-19 -2.1211504774498132e-19 -0.0040000000000000001  1 -0.0045000000000000049 -0.0034641016151377535 -0.0039999999999999992  0.70710678118654757 -0.0045000000000000049 -0.0034641016151377535 0  1 -0.0045000000000000049 -0.0034641016151377535 0.0039999999999999992  0.70710678118654757 -2.7554552980815473e-19 -2.1211504774498132e-19 0.0040000000000000001  1 
5.5109105961630811e-19 -4.2423009548996289e-19 -0.0040000000000000001  0.5 0.0089999999999999872 -0.0069282032302755104 -0.0039999999999999992  0.35355339059327379 0.0089999999999999872 -0.0069282032302755104 0  0.5 0.0089999999999999872 -0.0069282032302755104 0.0039999999999999992  0.35355339059327379 5.5109105961630811e-19 -4.2423009548996289e-19 0.0040000000000000001  0.5 

0 2
2.0943951023931953 2
4.1887902047863905 2
6.2831853071795862 2

-1.5707963267948966 3
0 2
1.5707963267948966 3

9 1 1 1 0 2 2 6 5 4 3 6.123233995736766e-17 0 -1  1 1 0 -0.99999999999999989  0.70710678118654757 1 0 0  1 1 0 0.99999999999999989  0.70710678118654757 6.123233995736766e-17 0 1  1 
6.123233995736766e-17 1.0605752387249065e-16 -1  0.5 1 1.7320508075688767 -0.99999999999999989  0.35355339059327379 1 1.7320508075688767 0  0.5 1 1.7320508075688767 0.99999999999999989  0.35355339059327379 6.123233995736766e-17 1.0605752387249065e-16 1  0.5 
-3.0616169978683818e-17 5.3028761936245346e-17 -1  1 -0.49999999999999978 0.86602540378443871 -0.99999999999999989  0.70710678118654757 -0.49999999999999978 0.86602540378443871 0  1 -0.49999999999999978 0.86602540378443871 0.99999999999999989  0.70710678118654757 -3.0616169978683818e-17 5.3028761936245346e-17 1  1 
-1.224646799147353e-16 1.4997597826618573e-32 -1  0.5 -1.9999999999999996 2.4492935982947059e-16 -0.99999999999999989  0.35355339059327379 -1.9999999999999996 2.4492935982947059e-16 0  0.5 -1.9999999999999996 2.4492935982947059e-16 0.99999999999999989  0.35355339059327379 -1.224646799147353e-16 1.4997597826618573e-32 1  0.5 
-3.0616169978683855e-17 -5.3028761936245327e-17 -1  1 -0.50000000000000044 -0.86602540378443837 -0.99999999999999989  0.70710678118654757 -0.50000000000000044 -0.86602540378443837 0  1 -0.50000000000000044 -0.86602540378443837 0.99999999999999989  0.70710678118654757 -3.0616169978683855e-17 -5.3028761936245327e-17 1  1 
6.1232339957367562e-17 -1.0605752387249072e-16 -1  0.5 0.99999999999999845 -1.7320508075688776 -0.99999999999999989  0.35355339059327379 0.99999999999999845 -1.7320508075688776 0  0.5 0.99999999999999845 -1.7320508075688776 0.99999999999999989  0.35355339059327379 6.1232339957367562e-17 -1.0605752387249072e-16 1  0.5 

0 2
2.0943951023931953 2
4.1887902047863905 2
6.2831853071795862 2

-1.5707963267948966 3
0 2
1.5707963267948966 3

Triangulations 0

TShapes 26
Ve
5.000001e-06
0.01 -1.04600426856788e-18 -6.12323399573677e-19
0 0

0101101
*
Ve
1.0000020710377e-07
6.12323399573677e-19 -7.49879891330929e-35 0.005
0 0

0101101
*
Ed
 1e-09 1 1 0
1  1 0 6.28318530717959 7.85398163397448
3  1 2CN 1 0 6.28318530717959 7.85398163397448
0

0101000
+26 0 -25 0 *
Ve
5.000001e-06
2.75042275933723e-09 -0.005 0
0 0

0101101
*
Ed
 5e-06 1 1 0
1  2 0 0 0.488034305915541
2  3 1 0 0 0.488034305915541
2  4 2 0 0 0.488034305915541
0

0101000
+26 0 -23 0 *
Ve
5.000001e-06
-0.01 -6.31491386959837e-14 0
0 0

0101101
*
Ed
 5e-06 1 1 0
1  2 0 0.488034305915541 1
2  3 1 0 0.488034305915541 1
2  4 2 0 0.488034305915541 1
0

0101000
+23 0 -21 0 *
Ve
5.000001e-06
4.25826698555176e-10 0.005 0
0 0

0101101
*
Ed
 5e-06 1 1 0
1  3 0 0 0.511965569792718
2  5 1 0 0 0.511965569792718
2  6 2 0 0 0.511965569792718
0

0101000
+21 0 -19 0 *
Ed
 5e-06 1 1 0
1  3 0 0.511965569792718 1
2  5 1 0 0.511965569792718 1
2  6 2 0 0.511965569792718 1
0

0101000
+19 0 -26 0 *
Ed
 1e-07 1 1 1
2  7 3 0 0 6.28318530717959
2  8 1 0 0 6.28318530717959
0

0101000
+25 0 -25 0 *
Wi

0101100
+24 0 -22 0 -20 0 -18 0 -17 0 -24 0 -16 0 *
Fa
0  1e-07 1 0

0101000
+15 0 *
Wi

0101100
-18 0 -17 0 -22 0 -20 0 *
Ve
5.000001e-06
0.009 -9.79717439317882e-19 2.16046747804967e-18
0 0

0101101
*
Ed
 5e-06 1 1 0
1  4 0 0 1
2  9 4 0 0 1
2  10 2 0 0 1
0

0101000
+12 0 -12 0 *
Wi

0101100
+11 0 *
Fa
0  1e-07 2 0

0101000
+13 0 +10 0 *
Ve
1e-07
5.51091059616309e-19 -5.99903913064743e-35 0.004
0 0

0101101
*
Ed
 9e-10 1 1 0
1  5 0 6.28318530717959 7.85398163397448
3  11 12CN 4 0 6.28318530717959 7.85398163397448
0

0101000
+12 0 -8 0 *
Ed
 1e-07 1 1 1
2  13 5 0 0 6.28318530717959
2  14 4 0 0 6.28318530717959
0

0101000
+8 0 -8 0 *
Wi

0101100
+7 0 -11 0 -7 0 -6 0 *
Fa
0  1e-07 4 0

0101000
+5 0 *
Sh

0101100
+14 0 -9 0 -4 0 *
So

0100000
+3 0 *
Co

1100000
+2 0 *

+1 0 