ISO-10303-21;
HEADER;
FILE_NAME('Open CASCADE Shape Model','2026-06-29T22:11:33',('Author'),(
    'Open CASCADE'),'Open CASCADE STEP processor 7.8','Open CASCADE 7.8'
  ,'Unknown');
FILE_DESCRIPTION(('Open CASCADE Model'),'2;1');
FILE_SCHEMA(('AUTOMOTIVE_DESIGN { 1 0 10303 214 1 1 1 1 }'));
ENDSEC;
DATA;
#1 = APPLICATION_PROTOCOL_DEFINITION('international standard',
  'automotive_design',2000,#2);
#2 = APPLICATION_CONTEXT(
  'core data for automotive mechanical design processes');
#3 = SHAPE_DEFINITION_REPRESENTATION(#4,#10);
#4 = PRODUCT_DEFINITION_SHAPE('','',#5);
#5 = PRODUCT_DEFINITION('design','',#6,#9);
#6 = PRODUCT_DEFINITION_FORMATION('','',#7);
#7 = PRODUCT('Open CASCADE STEP translator 7.8 1',
  'Open CASCADE STEP translator 7.8 1','',(#8));
#8 = PRODUCT_CONTEXT('',#2,'mechanical');
#9 = PRODUCT_DEFINITION_CONTEXT('part definition',#2,'design');
#10 = ADVANCED_BREP_SHAPE_REPRESENTATION('',(#11,#15),#101);
#11 = AXIS2_PLACEMENT_3D('',#12,#13,#14);
#12 = CARTESIAN_POINT('',(0.,0.,0.));
#13 = DIRECTION('',(0.,0.,1.));
#14 = DIRECTION('',(1.,0.,-0.));
#15 = BREP_WITH_VOIDS('',#16,(#58));
#16 = CLOSED_SHELL('',(#17));
#17 = ADVANCED_FACE('',(#18),#22,.T.);
#18 = FACE_BOUND('',#19,.T.);
#19 = VERTEX_LOOP('',#20);
#20 = VERTEX_POINT('',#21);
#21 = CARTESIAN_POINT('',(3.061616997868E-18,-4.499279347986E-34,-2.E-02
    ));
#22 = ( BOUNDED_SURFACE() B_SPLINE_SURFACE(2,2,(
    (#23,#24,#25,#26,#27)
    ,(#28,#29,#30,#31,#32)
    ,(#33,#34,#35,#36,#37)
    ,(#38,#39,#40,#41,#42)
    ,(#43,#44,#45,#46,#47)
    ,(#48,#49,#50,#51,#52)
    ,(#53,#54,#55,#56,#57
)),.UNSPECIFIED.,.T.,.F.,.F.) B_SPLINE_SURFACE_WITH_KNOTS((1,2,2,2,2,1),
  (3,2,3),(-2.094395102393,0.,2.094395102393,4.188790204786,
    6.28318530718,8.377580409573),(-1.570796326795,0.,1.570796326795),
.UNSPECIFIED.) GEOMETRIC_REPRESENTATION_ITEM() RATIONAL_B_SPLINE_SURFACE
((
    (1.,0.707106781187,1.,0.707106781187,1.)
    ,(0.5,0.353553390593,0.5,0.353553390593,0.5)
    ,(1.,0.707106781187,1.,0.707106781187,1.)
    ,(0.5,0.353553390593,0.5,0.353553390593,0.5)
    ,(1.,0.707106781187,1.,0.707106781187,1.)
    ,(0.5,0.353553390593,0.5,0.353553390593,0.5)
,(1.,0.707106781187,1.,0.707106781187,1.
))) REPRESENTATION_ITEM('') SURFACE() );
#23 = CARTESIAN_POINT('',(3.061616997868E-18,0.,-2.E-02));
#24 = CARTESIAN_POINT('',(5.E-02,0.,-2.E-02));
#25 = CARTESIAN_POINT('',(5.E-02,0.,0.));
#26 = CARTESIAN_POINT('',(5.E-02,0.,2.E-02));
#27 = CARTESIAN_POINT('',(3.061616997868E-18,0.,2.E-02));
#28 = CARTESIAN_POINT('',(3.061616997868E-18,3.181725716175E-18,-2.E-02)
  );
#29 = CARTESIAN_POINT('',(5.E-02,5.196152422707E-02,-2.E-02));
#30 = CARTESIAN_POINT('',(5.E-02,5.196152422707E-02,0.));
#31 = CARTESIAN_POINT('',(5.E-02,5.196152422707E-02,2.E-02));
#32 = CARTESIAN_POINT('',(3.061616997868E-18,3.181725716175E-18,2.E-02)
  );
#33 = CARTESIAN_POINT('',(-1.530808498934E-18,1.590862858087E-18,-2.E-02
    ));
#34 = CARTESIAN_POINT('',(-2.5E-02,2.598076211353E-02,-2.E-02));
#35 = CARTESIAN_POINT('',(-2.5E-02,2.598076211353E-02,0.));
#36 = CARTESIAN_POINT('',(-2.5E-02,2.598076211353E-02,2.E-02));
#37 = CARTESIAN_POINT('',(-1.530808498934E-18,1.590862858087E-18,2.E-02)
  );
#38 = CARTESIAN_POINT('',(-6.123233995737E-18,4.499279347986E-34,-2.E-02
    ));
#39 = CARTESIAN_POINT('',(-1.E-01,7.347880794884E-18,-2.E-02));
#40 = CARTESIAN_POINT('',(-1.E-01,7.347880794884E-18,0.));
#41 = CARTESIAN_POINT('',(-1.E-01,7.347880794884E-18,2.E-02));
#42 = CARTESIAN_POINT('',(-6.123233995737E-18,4.499279347986E-34,2.E-02)
  );
#43 = CARTESIAN_POINT('',(-1.530808498934E-18,-1.590862858087E-18,
    -2.E-02));
#44 = CARTESIAN_POINT('',(-2.5E-02,-2.598076211353E-02,-2.E-02));
#45 = CARTESIAN_POINT('',(-2.5E-02,-2.598076211353E-02,0.));
#46 = CARTESIAN_POINT('',(-2.5E-02,-2.598076211353E-02,2.E-02));
#47 = CARTESIAN_POINT('',(-1.530808498934E-18,-1.590862858087E-18,2.E-02
    ));
#48 = CARTESIAN_POINT('',(3.061616997868E-18,-3.181725716175E-18,-2.E-02
    ));
#49 = CARTESIAN_POINT('',(5.E-02,-5.196152422707E-02,-2.E-02));
#50 = CARTESIAN_POINT('',(5.E-02,-5.196152422707E-02,0.));
#51 = CARTESIAN_POINT('',(5.E-02,-5.196152422707E-02,2.E-02));
#52 = CARTESIAN_POINT('',(3.061616997868E-18,-3.181725716175E-18,2.E-02)
  );
#53 = CARTESIAN_POINT('',(3.061616997868E-18,0.,-2.E-02));
#54 = CARTESIAN_POINT('',(5.E-02,0.,-2.E-02));
#55 = CARTESIAN_POINT('',(5.E-02,0.,0.));
#56 = CARTESIAN_POINT('',(5.E-02,0.,2.E-02));
#57 = CARTESIAN_POINT('',(3.061616997868E-18,0.,2.E-02));
#58 = ORIENTED_CLOSED_SHELL('',*,#59,.F.);
#59 = CLOSED_SHELL('',(#60));
#60 = ADVANCED_FACE('',(#61),#65,.T.);
#61 = FACE_BOUND('',#62,.T.);
#62 = VERTEX_LOOP('',#63);
#63 = VERTEX_POINT('',#64);
#64 = CARTESIAN_POINT('',(2.939152317954E-18,-4.199327391453E-34,
    -1.8E-02));
#65 = ( BOUNDED_SURFACE() B_SPLINE_SURFACE(2,2,(
    (#66,#67,#68,#69,#70)
    ,(#71,#72,#73,#74,#75)
    ,(#76,#77,#78,#79,#80)
    ,(#81,#82,#83,#84,#85)
    ,(#86,#87,#88,#89,#90)
    ,(#91,#92,#93,#94,#95)
    ,(#96,#97,#98,#99,#100
)),.UNSPECIFIED.,.T.,.F.,.F.) B_SPLINE_SURFACE_WITH_KNOTS((1,2,2,2,2,1),
  (3,2,3),(-2.094395102393,0.,2.094395102393,4.188790204786,
    6.28318530718,8.377580409573),(-1.570796326795,0.,1.570796326795),
.UNSPECIFIED.) GEOMETRIC_REPRESENTATION_ITEM() RATIONAL_B_SPLINE_SURFACE
((
    (1.,0.707106781187,1.,0.707106781187,1.)
    ,(0.5,0.353553390593,0.5,0.353553390593,0.5)
    ,(1.,0.707106781187,1.,0.707106781187,1.)
    ,(0.5,0.353553390593,0.5,0.353553390593,0.5)
    ,(1.,0.707106781187,1.,0.707106781187,1.)
    ,(0.5,0.353553390593,0.5,0.353553390593,0.5)
,(1.,0.707106781187,1.,0.707106781187,1.
))) REPRESENTATION_ITEM('') SURFACE() );
#66 = CARTESIAN_POINT('',(2.939152317954E-18,0.,-1.8E-02));
#67 = CARTESIAN_POINT('',(4.8E-02,0.,-1.8E-02));
#68 = CARTESIAN_POINT('',(4.8E-02,0.,0.));
#69 = CARTESIAN_POINT('',(4.8E-02,0.,1.8E-02));
#70 = CARTESIAN_POINT('',(2.939152317954E-18,0.,1.8E-02));
#71 = CARTESIAN_POINT('',(2.939152317954E-18,2.96961066843E-18,-1.8E-02)
  );
#72 = CARTESIAN_POINT('',(4.8E-02,4.849742261193E-02,-1.8E-02));
#73 = CARTESIAN_POINT('',(4.8E-02,4.849742261193E-02,0.));
#74 = CARTESIAN_POINT('',(4.8E-02,4.849742261193E-02,1.8E-02));
#75 = CARTESIAN_POINT('',(2.939152317954E-18,2.96961066843E-18,1.8E-02)
  );
#76 = CARTESIAN_POINT('',(-1.469576158977E-18,1.484805334215E-18,
    -1.8E-02));
#77 = CARTESIAN_POINT('',(-2.4E-02,2.424871130596E-02,-1.8E-02));
#78 = CARTESIAN_POINT('',(-2.4E-02,2.424871130596E-02,0.));
#79 = CARTESIAN_POINT('',(-2.4E-02,2.424871130596E-02,1.8E-02));
#80 = CARTESIAN_POINT('',(-1.469576158977E-18,1.484805334215E-18,1.8E-02
    ));
#81 = CARTESIAN_POINT('',(-5.878304635907E-18,4.199327391453E-34,
    -1.8E-02));
#82 = CARTESIAN_POINT('',(-9.6E-02,6.858022075225E-18,-1.8E-02));
#83 = CARTESIAN_POINT('',(-9.6E-02,6.858022075225E-18,0.));
#84 = CARTESIAN_POINT('',(-9.6E-02,6.858022075225E-18,1.8E-02));
#85 = CARTESIAN_POINT('',(-5.878304635907E-18,4.199327391453E-34,1.8E-02
    ));
#86 = CARTESIAN_POINT('',(-1.469576158977E-18,-1.484805334215E-18,
    -1.8E-02));
#87 = CARTESIAN_POINT('',(-2.4E-02,-2.424871130596E-02,-1.8E-02));
#88 = CARTESIAN_POINT('',(-2.4E-02,-2.424871130596E-02,0.));
#89 = CARTESIAN_POINT('',(-2.4E-02,-2.424871130596E-02,1.8E-02));
#90 = CARTESIAN_POINT('',(-1.469576158977E-18,-1.484805334215E-18,
    1.8E-02));
#91 = CARTESIAN_POINT('',(2.939152317954E-18,-2.96961066843E-18,-1.8E-02
    ));
#92 = CARTESIAN_POINT('',(4.8E-02,-4.849742261193E-02,-1.8E-02));
#93 = CARTESIAN_POINT('',(4.8E-02,-4.849742261193E-02,0.));
#94 = CARTESIAN_POINT('',(4.8E-02,-4.849742261193E-02,1.8E-02));
#95 = CARTESIAN_POINT('',(2.939152317954E-18,-2.96961066843E-18,1.8E-02)
  );
#96 = CARTESIAN_POINT('',(2.939152317954E-18,0.,-1.8E-02));
#97 = CARTESIAN_POINT('',(4.8E-02,0.,-1.8E-02));
#98 = CARTESIAN_POINT('',(4.8E-02,0.,0.));
#99 = CARTESIAN_POINT('',(4.8E-02,0.,1.8E-02));
#100 = CARTESIAN_POINT('',(2.939152317954E-18,0.,1.8E-02));
#101 = ( GEOMETRIC_REPRESENTATION_CONTEXT(3) 
GLOBAL_UNCERTAINTY_ASSIGNED_CONTEXT((#105)) GLOBAL_UNIT_ASSIGNED_CONTEXT
((#102,#103,#104)) REPRESENTATION_CONTEXT('Context #1',
  '3D Context with UNIT and UNCERTAINTY') );
#102 = ( LENGTH_UNIT() NAMED_UNIT(*) SI_UNIT(.MILLI.,.METRE.) );
#103 = ( NAMED_UNIT(*) PLANE_ANGLE_UNIT() SI_UNIT($,.RADIAN.) );
#104 = ( NAMED_UNIT(*) SI_UNIT($,.STERADIAN.) SOLID_ANGLE_UNIT() );
#105 = UNCERTAINTY_MEASURE_WITH_UNIT(LENGTH_MEASURE(1.E-07),#102,
  'distance_accuracy_value','confusion accuracy');
#106 = PRODUCT_RELATED_PRODUCT_CATEGORY('part',$,(#7));
ENDSEC;
END-ISO-10303-21;
