ISO-10303-21;
HEADER;
FILE_NAME('Open CASCADE Shape Model','2026-06-29T22:15:09',('Author'),(
    'Open CASCADE'),'Open CASCADE STEP processor 7.8','Open CASCADE 7.8'
  ,'Unknown');
FILE_DESCRIPTION(('Open CASCADE Model'),'2;1');
FILE_SCHEMA(('AUTOMOTIVE_DESIGN { 1 0 10303 214 1 1 1 1 }'));
ENDSEC;
DATA;
#1 = APPLICATION_PROTOCOL_DEFINITION('international standard',
  'automotive_design',2000,#2);
#2 = APPLICATION_CONTEXT(
  'core data for automotive mechanical design processes');
#3 = SHAPE_DEFINITION_REPRESENTATION(#4,#10);
#4 = PRODUCT_DEFINITION_SHAPE('','',#5);
#5 = PRODUCT_DEFINITION('design','',#6,#9);
#6 = PRODUCT_DEFINITION_FORMATION('','',#7);
#7 = PRODUCT('Open CASCADE STEP translator 7.8 1',
  'Open CASCADE STEP translator 7.8 1','',(#8));
#8 = PRODUCT_CONTEXT('',#2,'mechanical');
#9 = PRODUCT_DEFINITION_CONTEXT('part definition',#2,'design');
#10 = ADVANCED_BREP_SHAPE_REPRESENTATION('',(#11,#15),#633);
#11 = AXIS2_PLACEMENT_3D('',#12,#13,#14);
#12 = CARTESIAN_POINT('',(0.,0.,0.));
#13 = DIRECTION('',(0.,0.,1.));
#14 = DIRECTION('',(1.,0.,-0.));
#15 = MANIFOLD_SOLID_BREP('',#16);
#16 = CLOSED_SHELL('',(#17,#327,#599));
#17 = ADVANCED_FACE('',(#18),#34,.T.);
#18 = FACE_BOUND('',#19,.T.);
#19 = EDGE_LOOP('',(#20,#87,#88));
#20 = ORIENTED_EDGE('',*,*,#21,.T.);
#21 = EDGE_CURVE('',#22,#24,#26,.T.);
#22 = VERTEX_POINT('',#23);
#23 = CARTESIAN_POINT('',(5.E-02,-7.347880794884E-18,-2.089141765488E-17
    ));
#24 = VERTEX_POINT('',#25);
#25 = CARTESIAN_POINT('',(3.061616997868E-18,-4.499279347986E-34,2.E-02)
  );
#26 = SEAM_CURVE('',#27,(#33,#78),.PCURVE_S1.);
#27 = ( BOUNDED_CURVE() B_SPLINE_CURVE(2,(#28,#29,#30,#31,#32),
.UNSPECIFIED.,.F.,.F.) B_SPLINE_CURVE_WITH_KNOTS((3,2,3),(4.712388980385
,6.28318530718,7.853981633974),.PIECEWISE_BEZIER_KNOTS.) CURVE() 
GEOMETRIC_REPRESENTATION_ITEM() RATIONAL_B_SPLINE_CURVE((1.,
0.707106781187,1.,0.707106781187,1.)) REPRESENTATION_ITEM('') );
#28 = CARTESIAN_POINT('',(-9.184850993605E-18,1.349783804396E-33,-2.E-02
    ));
#29 = CARTESIAN_POINT('',(5.E-02,-7.347880794884E-18,-2.E-02));
#30 = CARTESIAN_POINT('',(5.E-02,-7.347880794884E-18,-4.898587196589E-18
    ));
#31 = CARTESIAN_POINT('',(5.E-02,-7.347880794884E-18,2.E-02));
#32 = CARTESIAN_POINT('',(1.530808498934E-17,-2.249639673993E-33,2.E-02)
  );
#33 = PCURVE('',#34,#70);
#34 = ( BOUNDED_SURFACE() B_SPLINE_SURFACE(2,2,(
    (#35,#36,#37,#38,#39)
    ,(#40,#41,#42,#43,#44)
    ,(#45,#46,#47,#48,#49)
    ,(#50,#51,#52,#53,#54)
    ,(#55,#56,#57,#58,#59)
    ,(#60,#61,#62,#63,#64)
    ,(#65,#66,#67,#68,#69
)),.UNSPECIFIED.,.T.,.F.,.F.) B_SPLINE_SURFACE_WITH_KNOTS((1,2,2,2,2,1),
  (3,2,3),(-2.094395102393,0.,2.094395102393,4.188790204786,
    6.28318530718,8.377580409573),(-1.570796326795,0.,1.570796326795),
.UNSPECIFIED.) GEOMETRIC_REPRESENTATION_ITEM() RATIONAL_B_SPLINE_SURFACE
((
    (1.,0.707106781187,1.,0.707106781187,1.)
    ,(0.5,0.353553390593,0.5,0.353553390593,0.5)
    ,(1.,0.707106781187,1.,0.707106781187,1.)
    ,(0.5,0.353553390593,0.5,0.353553390593,0.5)
    ,(1.,0.707106781187,1.,0.707106781187,1.)
    ,(0.5,0.353553390593,0.5,0.353553390593,0.5)
,(1.,0.707106781187,1.,0.707106781187,1.
))) REPRESENTATION_ITEM('') SURFACE() );
#35 = CARTESIAN_POINT('',(3.061616997868E-18,0.,-2.E-02));
#36 = CARTESIAN_POINT('',(5.E-02,0.,-2.E-02));
#37 = CARTESIAN_POINT('',(5.E-02,0.,0.));
#38 = CARTESIAN_POINT('',(5.E-02,0.,2.E-02));
#39 = CARTESIAN_POINT('',(3.061616997868E-18,0.,2.E-02));
#40 = CARTESIAN_POINT('',(3.061616997868E-18,3.181725716175E-18,-2.E-02)
  );
#41 = CARTESIAN_POINT('',(5.E-02,5.196152422707E-02,-2.E-02));
#42 = CARTESIAN_POINT('',(5.E-02,5.196152422707E-02,0.));
#43 = CARTESIAN_POINT('',(5.E-02,5.196152422707E-02,2.E-02));
#44 = CARTESIAN_POINT('',(3.061616997868E-18,3.181725716175E-18,2.E-02)
  );
#45 = CARTESIAN_POINT('',(-1.530808498934E-18,1.590862858087E-18,-2.E-02
    ));
#46 = CARTESIAN_POINT('',(-2.5E-02,2.598076211353E-02,-2.E-02));
#47 = CARTESIAN_POINT('',(-2.5E-02,2.598076211353E-02,0.));
#48 = CARTESIAN_POINT('',(-2.5E-02,2.598076211353E-02,2.E-02));
#49 = CARTESIAN_POINT('',(-1.530808498934E-18,1.590862858087E-18,2.E-02)
  );
#50 = CARTESIAN_POINT('',(-6.123233995737E-18,4.499279347986E-34,-2.E-02
    ));
#51 = CARTESIAN_POINT('',(-1.E-01,7.347880794884E-18,-2.E-02));
#52 = CARTESIAN_POINT('',(-1.E-01,7.347880794884E-18,0.));
#53 = CARTESIAN_POINT('',(-1.E-01,7.347880794884E-18,2.E-02));
#54 = CARTESIAN_POINT('',(-6.123233995737E-18,4.499279347986E-34,2.E-02)
  );
#55 = CARTESIAN_POINT('',(-1.530808498934E-18,-1.590862858087E-18,
    -2.E-02));
#56 = CARTESIAN_POINT('',(-2.5E-02,-2.598076211353E-02,-2.E-02));
#57 = CARTESIAN_POINT('',(-2.5E-02,-2.598076211353E-02,0.));
#58 = CARTESIAN_POINT('',(-2.5E-02,-2.598076211353E-02,2.E-02));
#59 = CARTESIAN_POINT('',(-1.530808498934E-18,-1.590862858087E-18,2.E-02
    ));
#60 = CARTESIAN_POINT('',(3.061616997868E-18,-3.181725716175E-18,-2.E-02
    ));
#61 = CARTESIAN_POINT('',(5.E-02,-5.196152422707E-02,-2.E-02));
#62 = CARTESIAN_POINT('',(5.E-02,-5.196152422707E-02,0.));
#63 = CARTESIAN_POINT('',(5.E-02,-5.196152422707E-02,2.E-02));
#64 = CARTESIAN_POINT('',(3.061616997868E-18,-3.181725716175E-18,2.E-02)
  );
#65 = CARTESIAN_POINT('',(3.061616997868E-18,0.,-2.E-02));
#66 = CARTESIAN_POINT('',(5.E-02,0.,-2.E-02));
#67 = CARTESIAN_POINT('',(5.E-02,0.,0.));
#68 = CARTESIAN_POINT('',(5.E-02,0.,2.E-02));
#69 = CARTESIAN_POINT('',(3.061616997868E-18,0.,2.E-02));
#70 = DEFINITIONAL_REPRESENTATION('',(#71),#77);
#71 = B_SPLINE_CURVE_WITH_KNOTS('',2,(#72,#73,#74,#75,#76),
  .UNSPECIFIED.,.F.,.F.,(3,2,3),(4.712388980385,6.28318530718,
    7.853981633974),.PIECEWISE_BEZIER_KNOTS.);
#72 = CARTESIAN_POINT('',(6.28318530718,-1.570796326795));
#73 = CARTESIAN_POINT('',(6.28318530718,-0.785398163397));
#74 = CARTESIAN_POINT('',(6.28318530718,-2.720481184601E-16));
#75 = CARTESIAN_POINT('',(6.28318530718,0.785398163397));
#76 = CARTESIAN_POINT('',(6.28318530718,1.570796326795));
#77 = ( GEOMETRIC_REPRESENTATION_CONTEXT(2) 
PARAMETRIC_REPRESENTATION_CONTEXT() REPRESENTATION_CONTEXT('2D SPACE',''
  ) );
#78 = PCURVE('',#34,#79);
#79 = DEFINITIONAL_REPRESENTATION('',(#80),#86);
#80 = B_SPLINE_CURVE_WITH_KNOTS('',2,(#81,#82,#83,#84,#85),
  .UNSPECIFIED.,.F.,.F.,(3,2,3),(4.712388980385,6.28318530718,
    7.853981633974),.PIECEWISE_BEZIER_KNOTS.);
#81 = CARTESIAN_POINT('',(0.,-1.570796326795));
#82 = CARTESIAN_POINT('',(8.881784197001E-16,-0.785398163397));
#83 = CARTESIAN_POINT('',(0.,-2.720481184601E-16));
#84 = CARTESIAN_POINT('',(8.881784197001E-16,0.785398163397));
#85 = CARTESIAN_POINT('',(0.,1.570796326795));
#86 = ( GEOMETRIC_REPRESENTATION_CONTEXT(2) 
PARAMETRIC_REPRESENTATION_CONTEXT() REPRESENTATION_CONTEXT('2D SPACE',''
  ) );
#87 = ORIENTED_EDGE('',*,*,#21,.F.);
#88 = ORIENTED_EDGE('',*,*,#89,.F.);
#89 = EDGE_CURVE('',#22,#22,#90,.T.);
#90 = SURFACE_CURVE('',#91,(#166,#244),.PCURVE_S1.);
#91 = B_SPLINE_CURVE_WITH_KNOTS('',7,(#92,#93,#94,#95,#96,#97,#98,#99,
    #100,#101,#102,#103,#104,#105,#106,#107,#108,#109,#110,#111,#112,
    #113,#114,#115,#116,#117,#118,#119,#120,#121,#122,#123,#124,#125,
    #126,#127,#128,#129,#130,#131,#132,#133,#134,#135,#136,#137,#138,
    #139,#140,#141,#142,#143,#144,#145,#146,#147,#148,#149,#150,#151,
    #152,#153,#154,#155,#156,#157,#158,#159,#160,#161,#162,#163,#164,
    #165),.UNSPECIFIED.,.T.,.F.,(8,6,6,6,6,6,6,6,6,6,6,6,8),(0.,
    9.996307019534E-02,0.23100794326,0.302031133711,0.318031575495,
    0.334030184305,0.499999999997,0.665969815689,0.681968424499,
    0.697968866283,0.768992056734,0.900036929802,1.),.UNSPECIFIED.);
#92 = CARTESIAN_POINT('',(5.E-02,4.163336342344E-17,0.));
#93 = CARTESIAN_POINT('',(5.000005186109E-02,-2.227558365983E-03,0.));
#94 = CARTESIAN_POINT('',(4.967828202476E-02,-4.565413424394E-03,0.));
#95 = CARTESIAN_POINT('',(4.897777200293E-02,-6.996071347176E-03,0.));
#96 = CARTESIAN_POINT('',(4.78392357276E-02,-9.485249773543E-03,0.));
#97 = CARTESIAN_POINT('',(4.621476246516E-02,-1.198488420313E-02,0.));
#98 = CARTESIAN_POINT('',(4.408155973075E-02,-1.443613438915E-02,0.));
#99 = CARTESIAN_POINT('',(3.80129209614E-02,-1.983560978663E-02,0.));
#100 = CARTESIAN_POINT('',(3.37252923097E-02,-2.270201942982E-02,0.));
#101 = CARTESIAN_POINT('',(2.861920666988E-02,-2.523313253785E-02,0.));
#102 = CARTESIAN_POINT('',(2.284689148116E-02,-2.727082846892E-02,0.));
#103 = CARTESIAN_POINT('',(1.667247951773E-02,-2.872048943233E-02,0.));
#104 = CARTESIAN_POINT('',(1.040059011045E-02,-2.957670727637E-02,0.));
#105 = CARTESIAN_POINT('',(9.12867283686E-04,-3.006214444645E-02,0.));
#106 = CARTESIAN_POINT('',(-2.386249648862E-03,-3.007350783029E-02,0.));
#107 = CARTESIAN_POINT('',(-5.613084290814E-03,-2.993367217454E-02,0.));
#108 = CARTESIAN_POINT('',(-8.737241590615E-03,-2.965531285545E-02,0.));
#109 = CARTESIAN_POINT('',(-1.173512301607E-02,-2.925398651136E-02,0.));
#110 = CARTESIAN_POINT('',(-1.45902688905E-02,-2.874635825703E-02,0.));
#111 = CARTESIAN_POINT('',(-1.790272976933E-02,-2.801372702168E-02,0.));
#112 = CARTESIAN_POINT('',(-1.850404578765E-02,-2.787444403499E-02,0.));
#113 = CARTESIAN_POINT('',(-1.909753992674E-02,-2.77307652959E-02,0.));
#114 = CARTESIAN_POINT('',(-1.968311849159E-02,-2.75828742681E-02,0.));
#115 = CARTESIAN_POINT('',(-2.026070294931E-02,-2.743095252117E-02,0.));
#116 = CARTESIAN_POINT('',(-2.083022992909E-02,-2.727517973056E-02,0.));
#117 = CARTESIAN_POINT('',(-2.195289819938E-02,-2.695634407227E-02,0.));
#118 = CARTESIAN_POINT('',(-2.250659403654E-02,-2.679308840972E-02,0.));
#119 = CARTESIAN_POINT('',(-2.305100980937E-02,-2.662673018167E-02,0.));
#120 = CARTESIAN_POINT('',(-2.358817493239E-02,-2.645672265195E-02,0.));
#121 = CARTESIAN_POINT('',(-2.411754789567E-02,-2.628341814828E-02,0.));
#122 = CARTESIAN_POINT('',(-2.463684104401E-02,-2.61077793449E-02,0.));
#123 = CARTESIAN_POINT('',(-3.048513836398E-02,-2.406562081726E-02,0.));
#124 = CARTESIAN_POINT('',(-3.58168006086E-02,-2.158660439723E-02,0.));
#125 = CARTESIAN_POINT('',(-4.0867831364E-02,-1.84037931839E-02,0.));
#126 = CARTESIAN_POINT('',(-4.527164878859E-02,-1.446558786434E-02,0.));
#127 = CARTESIAN_POINT('',(-4.84262061383E-02,-9.858120238895E-03,0.));
#128 = CARTESIAN_POINT('',(-4.999976616878E-02,-4.929709892884E-03,0.));
#129 = CARTESIAN_POINT('',(-4.999976616878E-02,4.929709892856E-03,0.));
#130 = CARTESIAN_POINT('',(-4.842620613829E-02,9.858120238947E-03,0.));
#131 = CARTESIAN_POINT('',(-4.527164878861E-02,1.446558786424E-02,0.));
#132 = CARTESIAN_POINT('',(-4.0867831364E-02,1.840379318397E-02,0.));
#133 = CARTESIAN_POINT('',(-3.581680060861E-02,2.158660439719E-02,0.));
#134 = CARTESIAN_POINT('',(-3.048513836399E-02,2.406562081727E-02,0.));
#135 = CARTESIAN_POINT('',(-2.463684104402E-02,2.610777934489E-02,0.));
#136 = CARTESIAN_POINT('',(-2.411754789568E-02,2.628341814828E-02,0.));
#137 = CARTESIAN_POINT('',(-2.35881749324E-02,2.645672265194E-02,0.));
#138 = CARTESIAN_POINT('',(-2.305100980938E-02,2.662673018167E-02,0.));
#139 = CARTESIAN_POINT('',(-2.250659403655E-02,2.679308840972E-02,0.));
#140 = CARTESIAN_POINT('',(-2.195289819939E-02,2.695634407227E-02,0.));
#141 = CARTESIAN_POINT('',(-2.08302299291E-02,2.727517973055E-02,0.));
#142 = CARTESIAN_POINT('',(-2.026070294932E-02,2.743095252116E-02,0.));
#143 = CARTESIAN_POINT('',(-1.96831184916E-02,2.75828742681E-02,0.));
#144 = CARTESIAN_POINT('',(-1.909753992675E-02,2.773076529589E-02,0.));
#145 = CARTESIAN_POINT('',(-1.850404578766E-02,2.787444403498E-02,0.));
#146 = CARTESIAN_POINT('',(-1.790272976934E-02,2.801372702168E-02,0.));
#147 = CARTESIAN_POINT('',(-1.459026889051E-02,2.874635825703E-02,0.));
#148 = CARTESIAN_POINT('',(-1.173512301608E-02,2.925398651136E-02,0.));
#149 = CARTESIAN_POINT('',(-8.737241590626E-03,2.965531285545E-02,0.));
#150 = CARTESIAN_POINT('',(-5.613084290826E-03,2.993367217453E-02,0.));
#151 = CARTESIAN_POINT('',(-2.386249648873E-03,3.007350783029E-02,0.));
#152 = CARTESIAN_POINT('',(9.128672836753E-04,3.006214444646E-02,0.));
#153 = CARTESIAN_POINT('',(1.040059011047E-02,2.957670727637E-02,0.));
#154 = CARTESIAN_POINT('',(1.667247951766E-02,2.872048943235E-02,0.));
#155 = CARTESIAN_POINT('',(2.284689148118E-02,2.727082846892E-02,0.));
#156 = CARTESIAN_POINT('',(2.861920666991E-02,2.523313253785E-02,0.));
#157 = CARTESIAN_POINT('',(3.372529230964E-02,2.270201942984E-02,0.));
#158 = CARTESIAN_POINT('',(3.801292096142E-02,1.983560978663E-02,0.));
#159 = CARTESIAN_POINT('',(4.408155973075E-02,1.443613438915E-02,0.));
#160 = CARTESIAN_POINT('',(4.621476246516E-02,1.198488420313E-02,0.));
#161 = CARTESIAN_POINT('',(4.783923572759E-02,9.485249773545E-03,0.));
#162 = CARTESIAN_POINT('',(4.897777200293E-02,6.996071347178E-03,0.));
#163 = CARTESIAN_POINT('',(4.967828202476E-02,4.565413424395E-03,0.));
#164 = CARTESIAN_POINT('',(5.000005186109E-02,2.227558365983E-03,0.));
#165 = CARTESIAN_POINT('',(5.E-02,0.,0.));
#166 = PCURVE('',#34,#167);
#167 = DEFINITIONAL_REPRESENTATION('',(#168),#243);
#168 = B_SPLINE_CURVE_WITH_KNOTS('',7,(#169,#170,#171,#172,#173,#174,
    #175,#176,#177,#178,#179,#180,#181,#182,#183,#184,#185,#186,#187,
    #188,#189,#190,#191,#192,#193,#194,#195,#196,#197,#198,#199,#200,
    #201,#202,#203,#204,#205,#206,#207,#208,#209,#210,#211,#212,#213,
    #214,#215,#216,#217,#218,#219,#220,#221,#222,#223,#224,#225,#226,
    #227,#228,#229,#230,#231,#232,#233,#234,#235,#236,#237,#238,#239,
    #240,#241,#242),.UNSPECIFIED.,.F.,.F.,(8,6,6,6,6,6,6,6,6,6,6,6,8),(
    0.,9.996307019534E-02,0.23100794326,0.302031133711,0.318031575495,
    0.334030184305,0.499999999997,0.665969815689,0.681968424499,
    0.697968866283,0.768992056734,0.900036929802,1.),.UNSPECIFIED.);
#169 = CARTESIAN_POINT('',(6.28318530718,1.183291357832E-30));
#170 = CARTESIAN_POINT('',(6.193409648253,5.609599708155E-20));
#171 = CARTESIAN_POINT('',(6.10363650004,-9.201138710814E-20));
#172 = CARTESIAN_POINT('',(6.013867236811,-2.529659781453E-20));
#173 = CARTESIAN_POINT('',(5.924103591576,1.119453605431E-19));
#174 = CARTESIAN_POINT('',(5.834347546629,4.475062354156E-20));
#175 = CARTESIAN_POINT('',(5.744601224093,-1.998618340781E-19));
#176 = CARTESIAN_POINT('',(5.537230940784,-2.098936775731E-19));
#177 = CARTESIAN_POINT('',(5.419613635228,7.933856321346E-20));
#178 = CARTESIAN_POINT('',(5.302020765522,-1.133089846552E-19));
#179 = CARTESIAN_POINT('',(5.184449734608,3.989107411308E-19));
#180 = CARTESIAN_POINT('',(5.06689155101,4.832052312508E-19));
#181 = CARTESIAN_POINT('',(4.949334517667,-2.221102820339E-18));
#182 = CARTESIAN_POINT('',(4.768052071016,-5.852614745772E-18));
#183 = CARTESIAN_POINT('',(4.704332340866,-7.418354578213E-18));
#184 = CARTESIAN_POINT('',(4.640608931428,-9.16064795772E-18));
#185 = CARTESIAN_POINT('',(4.576880804179,-1.104726454074E-17));
#186 = CARTESIAN_POINT('',(4.51314728531,-1.304517615321E-17));
#187 = CARTESIAN_POINT('',(4.449408089621,-1.512320563914E-17));
#188 = CARTESIAN_POINT('',(4.371302625352,-1.773485378176E-17));
#189 = CARTESIAN_POINT('',(4.356941622128,-1.821773518824E-17));
#190 = CARTESIAN_POINT('',(4.342580335169,-1.870300858526E-17));
#191 = CARTESIAN_POINT('',(4.328218765501,-1.919037252355E-17));
#192 = CARTESIAN_POINT('',(4.313856914751,-1.967953544786E-17));
#193 = CARTESIAN_POINT('',(4.299494785142,-2.0170215697E-17));
#194 = CARTESIAN_POINT('',(4.270771619176,-2.115401107015E-17));
#195 = CARTESIAN_POINT('',(4.256410605023,-2.164712547425E-17));
#196 = CARTESIAN_POINT('',(4.242049271868,-2.214121593754E-17));
#197 = CARTESIAN_POINT('',(4.227687706908,-2.263601892511E-17));
#198 = CARTESIAN_POINT('',(4.213325892676,-2.313128530006E-17));
#199 = CARTESIAN_POINT('',(4.198963740514,-2.362677930848E-17));
#200 = CARTESIAN_POINT('',(4.035606422819,-2.412226739517E-17));
#201 = CARTESIAN_POINT('',(3.886621284451,-2.412226739517E-17));
#202 = CARTESIAN_POINT('',(3.737635076499,-2.412226739517E-17));
#203 = CARTESIAN_POINT('',(3.588641856642,-2.412226739517E-17));
#204 = CARTESIAN_POINT('',(3.439634465372,-2.412226739517E-17));
#205 = CARTESIAN_POINT('',(3.290612571506,-2.412226739517E-17));
#206 = CARTESIAN_POINT('',(2.992572735674,-2.412226739517E-17));
#207 = CARTESIAN_POINT('',(2.843550841807,-2.412226739517E-17));
#208 = CARTESIAN_POINT('',(2.694543450538,-2.412226739517E-17));
#209 = CARTESIAN_POINT('',(2.545550230682,-2.412226739517E-17));
#210 = CARTESIAN_POINT('',(2.396564022728,-2.412226739517E-17));
#211 = CARTESIAN_POINT('',(2.247578884361,-2.412226739517E-17));
#212 = CARTESIAN_POINT('',(2.084221566666,-2.412226739517E-17));
#213 = CARTESIAN_POINT('',(2.069859414504,-2.412226739517E-17));
#214 = CARTESIAN_POINT('',(2.055497600271,-2.412226739517E-17));
#215 = CARTESIAN_POINT('',(2.041136035312,-2.412226739517E-17));
#216 = CARTESIAN_POINT('',(2.026774702157,-2.412226739517E-17));
#217 = CARTESIAN_POINT('',(2.012413688004,-2.412226739517E-17));
#218 = CARTESIAN_POINT('',(1.983690522038,-2.412226739517E-17));
#219 = CARTESIAN_POINT('',(1.969328392429,-2.412226739517E-17));
#220 = CARTESIAN_POINT('',(1.954966541679,-2.412226739517E-17));
#221 = CARTESIAN_POINT('',(1.940604972011,-2.412226739517E-17));
#222 = CARTESIAN_POINT('',(1.926243685051,-2.412226739517E-17));
#223 = CARTESIAN_POINT('',(1.911882681828,-2.412226739517E-17));
#224 = CARTESIAN_POINT('',(1.833777217559,-2.412226739517E-17));
#225 = CARTESIAN_POINT('',(1.770038021869,-2.412226739517E-17));
#226 = CARTESIAN_POINT('',(1.706304503001,-2.412226739517E-17));
#227 = CARTESIAN_POINT('',(1.642576375751,-2.412226739517E-17));
#228 = CARTESIAN_POINT('',(1.578852966314,-2.412226739517E-17));
#229 = CARTESIAN_POINT('',(1.515133236164,-2.412226739517E-17));
#230 = CARTESIAN_POINT('',(1.333850789512,-2.412226739517E-17));
#231 = CARTESIAN_POINT('',(1.216293756172,-2.412226739517E-17));
#232 = CARTESIAN_POINT('',(1.09873557257,-2.412226739517E-17));
#233 = CARTESIAN_POINT('',(0.981164541656,-2.412226739517E-17));
#234 = CARTESIAN_POINT('',(0.863571671954,-2.412226739517E-17));
#235 = CARTESIAN_POINT('',(0.745954366395,-2.412226739517E-17));
#236 = CARTESIAN_POINT('',(0.538584083087,-1.383068438417E-17));
#237 = CARTESIAN_POINT('',(0.448837760551,-4.014102353121E-17));
#238 = CARTESIAN_POINT('',(0.359081715604,-2.891430417111E-17));
#239 = CARTESIAN_POINT('',(0.269318070369,-4.89080933157E-18));
#240 = CARTESIAN_POINT('',(0.17954880714,-1.613620679955E-17));
#241 = CARTESIAN_POINT('',(8.977565892699E-02,-5.848767018756E-17));
#242 = CARTESIAN_POINT('',(0.,1.577721810442E-30));
#243 = ( GEOMETRIC_REPRESENTATION_CONTEXT(2) 
PARAMETRIC_REPRESENTATION_CONTEXT() REPRESENTATION_CONTEXT('2D SPACE',''
  ) );
#244 = PCURVE('',#245,#250);
#245 = PLANE('',#246);
#246 = AXIS2_PLACEMENT_3D('',#247,#248,#249);
#247 = CARTESIAN_POINT('',(-0.1,-6.E-02,0.));
#248 = DIRECTION('',(0.,0.,1.));
#249 = DIRECTION('',(1.,0.,-0.));
#250 = DEFINITIONAL_REPRESENTATION('',(#251),#326);
#251 = B_SPLINE_CURVE_WITH_KNOTS('',7,(#252,#253,#254,#255,#256,#257,
    #258,#259,#260,#261,#262,#263,#264,#265,#266,#267,#268,#269,#270,
    #271,#272,#273,#274,#275,#276,#277,#278,#279,#280,#281,#282,#283,
    #284,#285,#286,#287,#288,#289,#290,#291,#292,#293,#294,#295,#296,
    #297,#298,#299,#300,#301,#302,#303,#304,#305,#306,#307,#308,#309,
    #310,#311,#312,#313,#314,#315,#316,#317,#318,#319,#320,#321,#322,
    #323,#324,#325),.UNSPECIFIED.,.F.,.F.,(8,6,6,6,6,6,6,6,6,6,6,6,8),(
    0.,9.996307019534E-02,0.23100794326,0.302031133711,0.318031575495,
    0.334030184305,0.499999999997,0.665969815689,0.681968424499,
    0.697968866283,0.768992056734,0.900036929802,1.),.UNSPECIFIED.);
#252 = CARTESIAN_POINT('',(0.15,6.E-02));
#253 = CARTESIAN_POINT('',(0.150000051861,5.777244163402E-02));
#254 = CARTESIAN_POINT('',(0.149678282025,5.543458657561E-02));
#255 = CARTESIAN_POINT('',(0.148977772003,5.300392865282E-02));
#256 = CARTESIAN_POINT('',(0.147839235728,5.051475022646E-02));
#257 = CARTESIAN_POINT('',(0.146214762465,4.801511579687E-02));
#258 = CARTESIAN_POINT('',(0.144081559731,4.556386561085E-02));
#259 = CARTESIAN_POINT('',(0.138012920961,4.016439021337E-02));
#260 = CARTESIAN_POINT('',(0.13372529231,3.729798057018E-02));
#261 = CARTESIAN_POINT('',(0.12861920667,3.476686746215E-02));
#262 = CARTESIAN_POINT('',(0.122846891481,3.272917153108E-02));
#263 = CARTESIAN_POINT('',(0.116672479518,3.127951056767E-02));
#264 = CARTESIAN_POINT('',(0.11040059011,3.042329272363E-02));
#265 = CARTESIAN_POINT('',(0.100912867284,2.993785555355E-02));
#266 = CARTESIAN_POINT('',(9.761375035114E-02,2.992649216971E-02));
#267 = CARTESIAN_POINT('',(9.438691570919E-02,3.006632782546E-02));
#268 = CARTESIAN_POINT('',(9.126275840939E-02,3.034468714455E-02));
#269 = CARTESIAN_POINT('',(8.826487698393E-02,3.074601348864E-02));
#270 = CARTESIAN_POINT('',(8.54097311095E-02,3.125364174297E-02));
#271 = CARTESIAN_POINT('',(8.209727023067E-02,3.198627297832E-02));
#272 = CARTESIAN_POINT('',(8.149595421235E-02,3.212555596501E-02));
#273 = CARTESIAN_POINT('',(8.090246007326E-02,3.22692347041E-02));
#274 = CARTESIAN_POINT('',(8.031688150841E-02,3.24171257319E-02));
#275 = CARTESIAN_POINT('',(7.973929705069E-02,3.256904747883E-02));
#276 = CARTESIAN_POINT('',(7.916977007091E-02,3.272482026944E-02));
#277 = CARTESIAN_POINT('',(7.804710180062E-02,3.304365592773E-02));
#278 = CARTESIAN_POINT('',(7.749340596346E-02,3.320691159028E-02));
#279 = CARTESIAN_POINT('',(7.694899019063E-02,3.337326981833E-02));
#280 = CARTESIAN_POINT('',(7.641182506761E-02,3.354327734805E-02));
#281 = CARTESIAN_POINT('',(7.588245210433E-02,3.371658185172E-02));
#282 = CARTESIAN_POINT('',(7.536315895599E-02,3.38922206551E-02));
#283 = CARTESIAN_POINT('',(6.951486163602E-02,3.593437918274E-02));
#284 = CARTESIAN_POINT('',(6.41831993914E-02,3.841339560277E-02));
#285 = CARTESIAN_POINT('',(5.9132168636E-02,4.15962068161E-02));
#286 = CARTESIAN_POINT('',(5.472835121141E-02,4.553441213566E-02));
#287 = CARTESIAN_POINT('',(5.15737938617E-02,5.01418797611E-02));
#288 = CARTESIAN_POINT('',(5.000023383122E-02,5.507029010712E-02));
#289 = CARTESIAN_POINT('',(5.000023383122E-02,6.492970989286E-02));
#290 = CARTESIAN_POINT('',(5.157379386171E-02,6.985812023895E-02));
#291 = CARTESIAN_POINT('',(5.472835121139E-02,7.446558786424E-02));
#292 = CARTESIAN_POINT('',(5.9132168636E-02,7.840379318397E-02));
#293 = CARTESIAN_POINT('',(6.418319939139E-02,8.158660439719E-02));
#294 = CARTESIAN_POINT('',(6.951486163601E-02,8.406562081727E-02));
#295 = CARTESIAN_POINT('',(7.536315895598E-02,8.610777934489E-02));
#296 = CARTESIAN_POINT('',(7.588245210432E-02,8.628341814828E-02));
#297 = CARTESIAN_POINT('',(7.64118250676E-02,8.645672265194E-02));
#298 = CARTESIAN_POINT('',(7.694899019062E-02,8.662673018167E-02));
#299 = CARTESIAN_POINT('',(7.749340596345E-02,8.679308840972E-02));
#300 = CARTESIAN_POINT('',(7.804710180061E-02,8.695634407227E-02));
#301 = CARTESIAN_POINT('',(7.91697700709E-02,8.727517973055E-02));
#302 = CARTESIAN_POINT('',(7.973929705068E-02,8.743095252116E-02));
#303 = CARTESIAN_POINT('',(8.03168815084E-02,8.75828742681E-02));
#304 = CARTESIAN_POINT('',(8.090246007325E-02,8.773076529589E-02));
#305 = CARTESIAN_POINT('',(8.149595421234E-02,8.787444403498E-02));
#306 = CARTESIAN_POINT('',(8.209727023066E-02,8.801372702168E-02));
#307 = CARTESIAN_POINT('',(8.540973110949E-02,8.874635825703E-02));
#308 = CARTESIAN_POINT('',(8.826487698392E-02,8.925398651136E-02));
#309 = CARTESIAN_POINT('',(9.126275840937E-02,8.965531285545E-02));
#310 = CARTESIAN_POINT('',(9.438691570917E-02,8.993367217453E-02));
#311 = CARTESIAN_POINT('',(9.761375035113E-02,9.007350783029E-02));
#312 = CARTESIAN_POINT('',(0.100912867284,9.006214444646E-02));
#313 = CARTESIAN_POINT('',(0.11040059011,8.957670727637E-02));
#314 = CARTESIAN_POINT('',(0.116672479518,8.872048943235E-02));
#315 = CARTESIAN_POINT('',(0.122846891481,8.727082846892E-02));
#316 = CARTESIAN_POINT('',(0.12861920667,8.523313253785E-02));
#317 = CARTESIAN_POINT('',(0.13372529231,8.270201942984E-02));
#318 = CARTESIAN_POINT('',(0.138012920961,7.983560978663E-02));
#319 = CARTESIAN_POINT('',(0.144081559731,7.443613438915E-02));
#320 = CARTESIAN_POINT('',(0.146214762465,7.198488420313E-02));
#321 = CARTESIAN_POINT('',(0.147839235728,6.948524977355E-02));
#322 = CARTESIAN_POINT('',(0.148977772003,6.699607134718E-02));
#323 = CARTESIAN_POINT('',(0.149678282025,6.456541342439E-02));
#324 = CARTESIAN_POINT('',(0.150000051861,6.222755836598E-02));
#325 = CARTESIAN_POINT('',(0.15,6.E-02));
#326 = ( GEOMETRIC_REPRESENTATION_CONTEXT(2) 
PARAMETRIC_REPRESENTATION_CONTEXT() REPRESENTATION_CONTEXT('2D SPACE',''
  ) );
#327 = ADVANCED_FACE('',(#328,#331),#245,.F.);
#328 = FACE_BOUND('',#329,.F.);
#329 = EDGE_LOOP('',(#330));
#330 = ORIENTED_EDGE('',*,*,#89,.F.);
#331 = FACE_BOUND('',#332,.F.);
#332 = EDGE_LOOP('',(#333));
#333 = ORIENTED_EDGE('',*,*,#334,.T.);
#334 = EDGE_CURVE('',#335,#335,#337,.T.);
#335 = VERTEX_POINT('',#336);
#336 = CARTESIAN_POINT('',(4.8E-02,-6.858022075225E-18,
    -1.880227588939E-17));
#337 = SURFACE_CURVE('',#338,(#411,#487),.PCURVE_S1.);
#338 = B_SPLINE_CURVE_WITH_KNOTS('',8,(#339,#340,#341,#342,#343,#344,
    #345,#346,#347,#348,#349,#350,#351,#352,#353,#354,#355,#356,#357,
    #358,#359,#360,#361,#362,#363,#364,#365,#366,#367,#368,#369,#370,
    #371,#372,#373,#374,#375,#376,#377,#378,#379,#380,#381,#382,#383,
    #384,#385,#386,#387,#388,#389,#390,#391,#392,#393,#394,#395,#396,
    #397,#398,#399,#400,#401,#402,#403,#404,#405,#406,#407,#408,#409,
    #410),.UNSPECIFIED.,.T.,.F.,(9,7,7,7,7,7,7,7,7,7,9),(0.,
    9.896539642852E-02,0.229006168636,0.305029513305,0.334028669703,
    0.499999999999,0.665971330296,0.694970486694,0.770993831363,
    0.901034603571,1.),.UNSPECIFIED.);
#339 = CARTESIAN_POINT('',(4.8E-02,4.857225732735E-17,0.));
#340 = CARTESIAN_POINT('',(4.800004420874E-02,-1.800936598929E-03,0.));
#341 = CARTESIAN_POINT('',(4.777299307712E-02,-3.677577916324E-03,0.));
#342 = CARTESIAN_POINT('',(4.72857150445E-02,-5.619974777481E-03,0.));
#343 = CARTESIAN_POINT('',(4.650397854459E-02,-7.61070479083E-03,0.));
#344 = CARTESIAN_POINT('',(4.539716034059E-02,-9.625843223933E-03,0.));
#345 = CARTESIAN_POINT('',(4.394295386045E-02,-1.163593387949E-02,0.));
#346 = CARTESIAN_POINT('',(4.213207753201E-02,-1.360695997132E-02,0.));
#347 = CARTESIAN_POINT('',(3.713559007005E-02,-1.799092880049E-02,0.));
#348 = CARTESIAN_POINT('',(3.369817536787E-02,-2.034865877556E-02,0.));
#349 = CARTESIAN_POINT('',(2.967460375609E-02,-2.249568515865E-02,0.));
#350 = CARTESIAN_POINT('',(2.513643519639E-02,-2.434377048317E-02,0.));
#351 = CARTESIAN_POINT('',(2.020957857652E-02,-2.582318375912E-02,0.));
#352 = CARTESIAN_POINT('',(1.50569626688E-02,-2.689808258459E-02,0.));
#353 = CARTESIAN_POINT('',(9.847224338579E-03,-2.756935319263E-02,0.));
#354 = CARTESIAN_POINT('',(1.70608953015E-03,-2.803764055373E-02,0.));
#355 = CARTESIAN_POINT('',(-1.272293631135E-03,-2.808178696315E-02,0.));
#356 = CARTESIAN_POINT('',(-4.198089071062E-03,-2.800271161828E-02,0.));
#357 = CARTESIAN_POINT('',(-7.047710634792E-03,-2.780871553788E-02,0.));
#358 = CARTESIAN_POINT('',(-9.801793698683E-03,-2.751016878004E-02,0.));
#359 = CARTESIAN_POINT('',(-1.244535644587E-02,-2.711864241934E-02,0.));
#360 = CARTESIAN_POINT('',(-1.496796114183E-02,-2.664604052408E-02,0.));
#361 = CARTESIAN_POINT('',(-1.827764756625E-02,-2.589691508599E-02,0.));
#362 = CARTESIAN_POINT('',(-1.91738527198E-02,-2.567965572955E-02,0.));
#363 = CARTESIAN_POINT('',(-2.00480477189E-02,-2.545398193896E-02,0.));
#364 = CARTESIAN_POINT('',(-2.091014937386E-02,-2.521706792494E-02,0.));
#365 = CARTESIAN_POINT('',(-2.174251255685E-02,-2.497545982279E-02,0.));
#366 = CARTESIAN_POINT('',(-2.256653980924E-02,-2.472245684923E-02,0.));
#367 = CARTESIAN_POINT('',(-2.336276646082E-02,-2.446523631813E-02,0.));
#368 = CARTESIAN_POINT('',(-2.862547524033E-02,-2.267860676562E-02,0.));
#369 = CARTESIAN_POINT('',(-3.310447478444E-02,-2.072596079136E-02,0.));
#370 = CARTESIAN_POINT('',(-3.741469808759E-02,-1.829089232118E-02,0.));
#371 = CARTESIAN_POINT('',(-4.134692711466E-02,-1.533907533457E-02,0.));
#372 = CARTESIAN_POINT('',(-4.459642010322E-02,-1.188861825268E-02,0.));
#373 = CARTESIAN_POINT('',(-4.686680920692E-02,-8.050954747924E-03,0.));
#374 = CARTESIAN_POINT('',(-4.799980357489E-02,-4.025935244916E-03,0.));
#375 = CARTESIAN_POINT('',(-4.799980357489E-02,4.025935244915E-03,0.));
#376 = CARTESIAN_POINT('',(-4.686680920694E-02,8.050954747896E-03,0.));
#377 = CARTESIAN_POINT('',(-4.45964201032E-02,1.188861825269E-02,0.));
#378 = CARTESIAN_POINT('',(-4.134692711467E-02,1.533907533457E-02,0.));
#379 = CARTESIAN_POINT('',(-3.741469808762E-02,1.829089232115E-02,0.));
#380 = CARTESIAN_POINT('',(-3.310447478443E-02,2.072596079137E-02,0.));
#381 = CARTESIAN_POINT('',(-2.862547524034E-02,2.267860676562E-02,0.));
#382 = CARTESIAN_POINT('',(-2.336276646082E-02,2.446523631813E-02,0.));
#383 = CARTESIAN_POINT('',(-2.256653980929E-02,2.472245684918E-02,0.));
#384 = CARTESIAN_POINT('',(-2.174251255677E-02,2.497545982291E-02,0.));
#385 = CARTESIAN_POINT('',(-2.091014937401E-02,2.521706792478E-02,0.));
#386 = CARTESIAN_POINT('',(-2.004804771878E-02,2.545398193908E-02,0.));
#387 = CARTESIAN_POINT('',(-1.917385271987E-02,2.567965572949E-02,0.));
#388 = CARTESIAN_POINT('',(-1.827764756625E-02,2.5896915086E-02,0.));
#389 = CARTESIAN_POINT('',(-1.496796114184E-02,2.664604052408E-02,0.));
#390 = CARTESIAN_POINT('',(-1.244535644588E-02,2.711864241934E-02,0.));
#391 = CARTESIAN_POINT('',(-9.801793698693E-03,2.751016878003E-02,0.));
#392 = CARTESIAN_POINT('',(-7.047710634803E-03,2.780871553788E-02,0.));
#393 = CARTESIAN_POINT('',(-4.198089071073E-03,2.800271161828E-02,0.));
#394 = CARTESIAN_POINT('',(-1.272293631146E-03,2.808178696315E-02,0.));
#395 = CARTESIAN_POINT('',(1.706089530139E-03,2.803764055373E-02,0.));
#396 = CARTESIAN_POINT('',(9.847224338551E-03,2.756935319264E-02,0.));
#397 = CARTESIAN_POINT('',(1.505696266883E-02,2.689808258459E-02,0.));
#398 = CARTESIAN_POINT('',(2.020957857651E-02,2.582318375912E-02,0.));
#399 = CARTESIAN_POINT('',(2.513643519635E-02,2.434377048318E-02,0.));
#400 = CARTESIAN_POINT('',(2.967460375608E-02,2.249568515866E-02,0.));
#401 = CARTESIAN_POINT('',(3.36981753679E-02,2.034865877556E-02,0.));
#402 = CARTESIAN_POINT('',(3.713559007002E-02,1.79909288005E-02,0.));
#403 = CARTESIAN_POINT('',(4.213207753201E-02,1.360695997132E-02,0.));
#404 = CARTESIAN_POINT('',(4.394295386044E-02,1.163593387949E-02,0.));
#405 = CARTESIAN_POINT('',(4.539716034059E-02,9.625843223936E-03,0.));
#406 = CARTESIAN_POINT('',(4.650397854459E-02,7.610704790832E-03,0.));
#407 = CARTESIAN_POINT('',(4.72857150445E-02,5.619974777482E-03,0.));
#408 = CARTESIAN_POINT('',(4.777299307712E-02,3.677577916325E-03,0.));
#409 = CARTESIAN_POINT('',(4.800004420874E-02,1.80093659893E-03,0.));
#410 = CARTESIAN_POINT('',(4.8E-02,0.,0.));
#411 = PCURVE('',#245,#412);
#412 = DEFINITIONAL_REPRESENTATION('',(#413),#486);
#413 = B_SPLINE_CURVE_WITH_KNOTS('',8,(#414,#415,#416,#417,#418,#419,
    #420,#421,#422,#423,#424,#425,#426,#427,#428,#429,#430,#431,#432,
    #433,#434,#435,#436,#437,#438,#439,#440,#441,#442,#443,#444,#445,
    #446,#447,#448,#449,#450,#451,#452,#453,#454,#455,#456,#457,#458,
    #459,#460,#461,#462,#463,#464,#465,#466,#467,#468,#469,#470,#471,
    #472,#473,#474,#475,#476,#477,#478,#479,#480,#481,#482,#483,#484,
    #485),.UNSPECIFIED.,.F.,.F.,(9,7,7,7,7,7,7,7,7,7,9),(0.,
    9.896539642852E-02,0.229006168636,0.305029513305,0.334028669703,
    0.499999999999,0.665971330296,0.694970486694,0.770993831363,
    0.901034603571,1.),.UNSPECIFIED.);
#414 = CARTESIAN_POINT('',(0.148,6.E-02));
#415 = CARTESIAN_POINT('',(0.148000044209,5.819906340107E-02));
#416 = CARTESIAN_POINT('',(0.147772993077,5.632242208368E-02));
#417 = CARTESIAN_POINT('',(0.147285715045,5.438002522252E-02));
#418 = CARTESIAN_POINT('',(0.146503978545,5.238929520917E-02));
#419 = CARTESIAN_POINT('',(0.145397160341,5.037415677607E-02));
#420 = CARTESIAN_POINT('',(0.14394295386,4.836406612051E-02));
#421 = CARTESIAN_POINT('',(0.142132077532,4.639304002868E-02));
#422 = CARTESIAN_POINT('',(0.13713559007,4.200907119951E-02));
#423 = CARTESIAN_POINT('',(0.133698175368,3.965134122444E-02));
#424 = CARTESIAN_POINT('',(0.129674603756,3.750431484135E-02));
#425 = CARTESIAN_POINT('',(0.125136435196,3.565622951683E-02));
#426 = CARTESIAN_POINT('',(0.120209578577,3.417681624088E-02));
#427 = CARTESIAN_POINT('',(0.115056962669,3.310191741541E-02));
#428 = CARTESIAN_POINT('',(0.109847224339,3.243064680737E-02));
#429 = CARTESIAN_POINT('',(0.10170608953,3.196235944627E-02));
#430 = CARTESIAN_POINT('',(9.872770636887E-02,3.191821303685E-02));
#431 = CARTESIAN_POINT('',(9.580191092894E-02,3.199728838172E-02));
#432 = CARTESIAN_POINT('',(9.295228936521E-02,3.219128446212E-02));
#433 = CARTESIAN_POINT('',(9.019820630132E-02,3.248983121996E-02));
#434 = CARTESIAN_POINT('',(8.755464355413E-02,3.288135758066E-02));
#435 = CARTESIAN_POINT('',(8.503203885817E-02,3.335395947592E-02));
#436 = CARTESIAN_POINT('',(8.172235243375E-02,3.410308491401E-02));
#437 = CARTESIAN_POINT('',(8.08261472802E-02,3.432034427045E-02));
#438 = CARTESIAN_POINT('',(7.99519522811E-02,3.454601806104E-02));
#439 = CARTESIAN_POINT('',(7.908985062614E-02,3.478293207506E-02));
#440 = CARTESIAN_POINT('',(7.825748744315E-02,3.502454017721E-02));
#441 = CARTESIAN_POINT('',(7.743346019076E-02,3.527754315077E-02));
#442 = CARTESIAN_POINT('',(7.663723353918E-02,3.553476368187E-02));
#443 = CARTESIAN_POINT('',(7.137452475967E-02,3.732139323438E-02));
#444 = CARTESIAN_POINT('',(6.689552521556E-02,3.927403920864E-02));
#445 = CARTESIAN_POINT('',(6.258530191241E-02,4.170910767882E-02));
#446 = CARTESIAN_POINT('',(5.865307288534E-02,4.466092466543E-02));
#447 = CARTESIAN_POINT('',(5.540357989678E-02,4.811138174732E-02));
#448 = CARTESIAN_POINT('',(5.313319079308E-02,5.194904525208E-02));
#449 = CARTESIAN_POINT('',(5.200019642511E-02,5.597406475508E-02));
#450 = CARTESIAN_POINT('',(5.200019642511E-02,6.402593524491E-02));
#451 = CARTESIAN_POINT('',(5.313319079306E-02,6.80509547479E-02));
#452 = CARTESIAN_POINT('',(5.54035798968E-02,7.188861825269E-02));
#453 = CARTESIAN_POINT('',(5.865307288533E-02,7.533907533457E-02));
#454 = CARTESIAN_POINT('',(6.258530191238E-02,7.829089232115E-02));
#455 = CARTESIAN_POINT('',(6.689552521557E-02,8.072596079137E-02));
#456 = CARTESIAN_POINT('',(7.137452475966E-02,8.267860676562E-02));
#457 = CARTESIAN_POINT('',(7.663723353918E-02,8.446523631813E-02));
#458 = CARTESIAN_POINT('',(7.743346019071E-02,8.472245684918E-02));
#459 = CARTESIAN_POINT('',(7.825748744323E-02,8.497545982291E-02));
#460 = CARTESIAN_POINT('',(7.908985062599E-02,8.521706792478E-02));
#461 = CARTESIAN_POINT('',(7.995195228122E-02,8.545398193908E-02));
#462 = CARTESIAN_POINT('',(8.082614728013E-02,8.567965572949E-02));
#463 = CARTESIAN_POINT('',(8.172235243375E-02,8.5896915086E-02));
#464 = CARTESIAN_POINT('',(8.503203885816E-02,8.664604052408E-02));
#465 = CARTESIAN_POINT('',(8.755464355412E-02,8.711864241934E-02));
#466 = CARTESIAN_POINT('',(9.019820630131E-02,8.751016878003E-02));
#467 = CARTESIAN_POINT('',(9.29522893652E-02,8.780871553788E-02));
#468 = CARTESIAN_POINT('',(9.580191092893E-02,8.800271161828E-02));
#469 = CARTESIAN_POINT('',(9.872770636885E-02,8.808178696315E-02));
#470 = CARTESIAN_POINT('',(0.10170608953,8.803764055373E-02));
#471 = CARTESIAN_POINT('',(0.109847224339,8.756935319264E-02));
#472 = CARTESIAN_POINT('',(0.115056962669,8.689808258459E-02));
#473 = CARTESIAN_POINT('',(0.120209578577,8.582318375912E-02));
#474 = CARTESIAN_POINT('',(0.125136435196,8.434377048318E-02));
#475 = CARTESIAN_POINT('',(0.129674603756,8.249568515866E-02));
#476 = CARTESIAN_POINT('',(0.133698175368,8.034865877556E-02));
#477 = CARTESIAN_POINT('',(0.13713559007,7.79909288005E-02));
#478 = CARTESIAN_POINT('',(0.142132077532,7.360695997132E-02));
#479 = CARTESIAN_POINT('',(0.14394295386,7.163593387949E-02));
#480 = CARTESIAN_POINT('',(0.145397160341,6.962584322394E-02));
#481 = CARTESIAN_POINT('',(0.146503978545,6.761070479083E-02));
#482 = CARTESIAN_POINT('',(0.147285715045,6.561997477748E-02));
#483 = CARTESIAN_POINT('',(0.147772993077,6.367757791632E-02));
#484 = CARTESIAN_POINT('',(0.148000044209,6.180093659893E-02));
#485 = CARTESIAN_POINT('',(0.148,6.E-02));
#486 = ( GEOMETRIC_REPRESENTATION_CONTEXT(2) 
PARAMETRIC_REPRESENTATION_CONTEXT() REPRESENTATION_CONTEXT('2D SPACE',''
  ) );
#487 = PCURVE('',#488,#524);
#488 = ( BOUNDED_SURFACE() B_SPLINE_SURFACE(2,2,(
    (#489,#490,#491,#492,#493)
    ,(#494,#495,#496,#497,#498)
    ,(#499,#500,#501,#502,#503)
    ,(#504,#505,#506,#507,#508)
    ,(#509,#510,#511,#512,#513)
    ,(#514,#515,#516,#517,#518)
    ,(#519,#520,#521,#522,#523
)),.UNSPECIFIED.,.T.,.F.,.F.) B_SPLINE_SURFACE_WITH_KNOTS((1,2,2,2,2,1),
  (3,2,3),(-2.094395102393,0.,2.094395102393,4.188790204786,
    6.28318530718,8.377580409573),(-1.570796326795,0.,1.570796326795),
.UNSPECIFIED.) GEOMETRIC_REPRESENTATION_ITEM() RATIONAL_B_SPLINE_SURFACE
((
    (1.,0.707106781187,1.,0.707106781187,1.)
    ,(0.5,0.353553390593,0.5,0.353553390593,0.5)
    ,(1.,0.707106781187,1.,0.707106781187,1.)
    ,(0.5,0.353553390593,0.5,0.353553390593,0.5)
    ,(1.,0.707106781187,1.,0.707106781187,1.)
    ,(0.5,0.353553390593,0.5,0.353553390593,0.5)
,(1.,0.707106781187,1.,0.707106781187,1.
))) REPRESENTATION_ITEM('') SURFACE() );
#489 = CARTESIAN_POINT('',(2.939152317954E-18,0.,-1.8E-02));
#490 = CARTESIAN_POINT('',(4.8E-02,0.,-1.8E-02));
#491 = CARTESIAN_POINT('',(4.8E-02,0.,0.));
#492 = CARTESIAN_POINT('',(4.8E-02,0.,1.8E-02));
#493 = CARTESIAN_POINT('',(2.939152317954E-18,0.,1.8E-02));
#494 = CARTESIAN_POINT('',(2.939152317954E-18,2.96961066843E-18,-1.8E-02
    ));
#495 = CARTESIAN_POINT('',(4.8E-02,4.849742261193E-02,-1.8E-02));
#496 = CARTESIAN_POINT('',(4.8E-02,4.849742261193E-02,0.));
#497 = CARTESIAN_POINT('',(4.8E-02,4.849742261193E-02,1.8E-02));
#498 = CARTESIAN_POINT('',(2.939152317954E-18,2.96961066843E-18,1.8E-02)
  );
#499 = CARTESIAN_POINT('',(-1.469576158977E-18,1.484805334215E-18,
    -1.8E-02));
#500 = CARTESIAN_POINT('',(-2.4E-02,2.424871130596E-02,-1.8E-02));
#501 = CARTESIAN_POINT('',(-2.4E-02,2.424871130596E-02,0.));
#502 = CARTESIAN_POINT('',(-2.4E-02,2.424871130596E-02,1.8E-02));
#503 = CARTESIAN_POINT('',(-1.469576158977E-18,1.484805334215E-18,
    1.8E-02));
#504 = CARTESIAN_POINT('',(-5.878304635907E-18,4.199327391453E-34,
    -1.8E-02));
#505 = CARTESIAN_POINT('',(-9.6E-02,6.858022075225E-18,-1.8E-02));
#506 = CARTESIAN_POINT('',(-9.6E-02,6.858022075225E-18,0.));
#507 = CARTESIAN_POINT('',(-9.6E-02,6.858022075225E-18,1.8E-02));
#508 = CARTESIAN_POINT('',(-5.878304635907E-18,4.199327391453E-34,
    1.8E-02));
#509 = CARTESIAN_POINT('',(-1.469576158977E-18,-1.484805334215E-18,
    -1.8E-02));
#510 = CARTESIAN_POINT('',(-2.4E-02,-2.424871130596E-02,-1.8E-02));
#511 = CARTESIAN_POINT('',(-2.4E-02,-2.424871130596E-02,0.));
#512 = CARTESIAN_POINT('',(-2.4E-02,-2.424871130596E-02,1.8E-02));
#513 = CARTESIAN_POINT('',(-1.469576158977E-18,-1.484805334215E-18,
    1.8E-02));
#514 = CARTESIAN_POINT('',(2.939152317954E-18,-2.96961066843E-18,
    -1.8E-02));
#515 = CARTESIAN_POINT('',(4.8E-02,-4.849742261193E-02,-1.8E-02));
#516 = CARTESIAN_POINT('',(4.8E-02,-4.849742261193E-02,0.));
#517 = CARTESIAN_POINT('',(4.8E-02,-4.849742261193E-02,1.8E-02));
#518 = CARTESIAN_POINT('',(2.939152317954E-18,-2.96961066843E-18,1.8E-02
    ));
#519 = CARTESIAN_POINT('',(2.939152317954E-18,0.,-1.8E-02));
#520 = CARTESIAN_POINT('',(4.8E-02,0.,-1.8E-02));
#521 = CARTESIAN_POINT('',(4.8E-02,0.,0.));
#522 = CARTESIAN_POINT('',(4.8E-02,0.,1.8E-02));
#523 = CARTESIAN_POINT('',(2.939152317954E-18,0.,1.8E-02));
#524 = DEFINITIONAL_REPRESENTATION('',(#525),#598);
#525 = B_SPLINE_CURVE_WITH_KNOTS('',8,(#526,#527,#528,#529,#530,#531,
    #532,#533,#534,#535,#536,#537,#538,#539,#540,#541,#542,#543,#544,
    #545,#546,#547,#548,#549,#550,#551,#552,#553,#554,#555,#556,#557,
    #558,#559,#560,#561,#562,#563,#564,#565,#566,#567,#568,#569,#570,
    #571,#572,#573,#574,#575,#576,#577,#578,#579,#580,#581,#582,#583,
    #584,#585,#586,#587,#588,#589,#590,#591,#592,#593,#594,#595,#596,
    #597),.UNSPECIFIED.,.F.,.F.,(9,7,7,7,7,7,7,7,7,7,9),(0.,
    9.896539642852E-02,0.229006168636,0.305029513305,0.334028669703,
    0.499999999999,0.665971330296,0.694970486694,0.770993831363,
    0.901034603571,1.),.UNSPECIFIED.);
#526 = CARTESIAN_POINT('',(6.28318530718,7.88860905221E-31));
#527 = CARTESIAN_POINT('',(6.205418608096,7.938815614243E-31));
#528 = CARTESIAN_POINT('',(6.127653514734,7.91482788268E-31));
#529 = CARTESIAN_POINT('',(6.049890797628,7.897545918406E-31));
#530 = CARTESIAN_POINT('',(5.972131402146,7.905192107726E-31));
#531 = CARTESIAN_POINT('',(5.894376410967,7.921105579559E-31));
#532 = CARTESIAN_POINT('',(5.816627006562,7.921536622616E-31));
#533 = CARTESIAN_POINT('',(5.738884433667,7.903441102596E-31));
#534 = CARTESIAN_POINT('',(5.55900667616,7.912274879367E-31));
#535 = CARTESIAN_POINT('',(5.456876093359,7.912274879367E-31));
#536 = CARTESIAN_POINT('',(5.354761722997,7.912274879367E-31));
#537 = CARTESIAN_POINT('',(5.252663280235,7.912274879367E-31));
#538 = CARTESIAN_POINT('',(5.150577304469,7.912274879367E-31));
#539 = CARTESIAN_POINT('',(5.048498168837,7.912274879367E-31));
#540 = CARTESIAN_POINT('',(4.946419480519,7.912274879367E-31));
#541 = CARTESIAN_POINT('',(4.784656609429,7.912274879367E-31));
#542 = CARTESIAN_POINT('',(4.724975701888,7.912274879367E-31));
#543 = CARTESIAN_POINT('',(4.665292127957,7.912274879367E-31));
#544 = CARTESIAN_POINT('',(4.605605075802,7.912274879367E-31));
#545 = CARTESIAN_POINT('',(4.545913953906,7.912274879367E-31));
#546 = CARTESIAN_POINT('',(4.486218401985,7.912274879367E-31));
#547 = CARTESIAN_POINT('',(4.426518301884,7.912274879367E-31));
#548 = CARTESIAN_POINT('',(4.344039461353,7.912274879367E-31));
#549 = CARTESIAN_POINT('',(4.321264519523,7.912274879367E-31));
#550 = CARTESIAN_POINT('',(4.298488807389,7.912274879367E-31));
#551 = CARTESIAN_POINT('',(4.275712728143,7.912274879367E-31));
#552 = CARTESIAN_POINT('',(4.25293561097,7.912274879367E-31));
#553 = CARTESIAN_POINT('',(4.230158305176,7.912274879367E-31));
#554 = CARTESIAN_POINT('',(4.207380068463,7.912274879367E-31));
#555 = CARTESIAN_POINT('',(4.054231984686,6.662802892599E-18));
#556 = CARTESIAN_POINT('',(3.923869178491,1.33262245915E-17));
#557 = CARTESIAN_POINT('',(3.793506429663,1.974441292746E-17));
#558 = CARTESIAN_POINT('',(3.663139543882,2.560774456234E-17));
#559 = CARTESIAN_POINT('',(3.532764605857,3.046410874929E-17));
#560 = CARTESIAN_POINT('',(3.402379170559,3.38717631732E-17));
#561 = CARTESIAN_POINT('',(3.271985255845,3.559171127104E-17));
#562 = CARTESIAN_POINT('',(3.011200051334,3.566280559804E-17));
#563 = CARTESIAN_POINT('',(2.880806136625,3.401389566352E-17));
#564 = CARTESIAN_POINT('',(2.750420701319,3.067075134432E-17));
#565 = CARTESIAN_POINT('',(2.620045763297,2.586502889634E-17));
#566 = CARTESIAN_POINT('',(2.489678877521,2.003619608653E-17));
#567 = CARTESIAN_POINT('',(2.359316128686,1.36382596503E-17));
#568 = CARTESIAN_POINT('',(2.228953322495,6.983693676068E-18));
#569 = CARTESIAN_POINT('',(2.075805238717,-1.123277799912E-18));
#570 = CARTESIAN_POINT('',(2.053027002004,2.413552102012E-18));
#571 = CARTESIAN_POINT('',(2.030249696209,-3.391280050221E-18));
#572 = CARTESIAN_POINT('',(2.007472579038,3.178220184716E-18));
#573 = CARTESIAN_POINT('',(1.98469649979,-1.955020496134E-18));
#574 = CARTESIAN_POINT('',(1.961920787657,7.373965613369E-19));
#575 = CARTESIAN_POINT('',(1.939145845827,-1.376563456247E-19));
#576 = CARTESIAN_POINT('',(1.856667005296,1.465526761532E-29));
#577 = CARTESIAN_POINT('',(1.796966905195,1.465526761532E-29));
#578 = CARTESIAN_POINT('',(1.737271353274,1.465526761532E-29));
#579 = CARTESIAN_POINT('',(1.677580231378,1.465526761532E-29));
#580 = CARTESIAN_POINT('',(1.617893179222,1.465526761532E-29));
#581 = CARTESIAN_POINT('',(1.558209605292,1.465526761532E-29));
#582 = CARTESIAN_POINT('',(1.49852869775,1.465526761532E-29));
#583 = CARTESIAN_POINT('',(1.33676582666,1.465526761532E-29));
#584 = CARTESIAN_POINT('',(1.234687138342,1.465526761532E-29));
#585 = CARTESIAN_POINT('',(1.132608002711,1.465526761532E-29));
#586 = CARTESIAN_POINT('',(1.030522026945,1.465526761532E-29));
#587 = CARTESIAN_POINT('',(0.928423584183,1.465526761532E-29));
#588 = CARTESIAN_POINT('',(0.826309213821,1.465526761532E-29));
#589 = CARTESIAN_POINT('',(0.72417863102,1.465526761532E-29));
#590 = CARTESIAN_POINT('',(0.544300873513,9.479334373113E-30));
#591 = CARTESIAN_POINT('',(0.466558300618,2.008195724219E-29));
#592 = CARTESIAN_POINT('',(0.388808896212,1.982939821238E-29));
#593 = CARTESIAN_POINT('',(0.311053905034,1.050529256687E-29));
#594 = CARTESIAN_POINT('',(0.233294509551,6.025196849096E-30));
#595 = CARTESIAN_POINT('',(0.155531792445,1.615113682965E-29));
#596 = CARTESIAN_POINT('',(7.77666990834E-02,3.020615547316E-29));
#597 = CARTESIAN_POINT('',(0.,7.88860905221E-31));
#598 = ( GEOMETRIC_REPRESENTATION_CONTEXT(2) 
PARAMETRIC_REPRESENTATION_CONTEXT() REPRESENTATION_CONTEXT('2D SPACE',''
  ) );
#599 = ADVANCED_FACE('',(#600),#488,.F.);
#600 = FACE_BOUND('',#601,.F.);
#601 = EDGE_LOOP('',(#602,#631,#632));
#602 = ORIENTED_EDGE('',*,*,#603,.T.);
#603 = EDGE_CURVE('',#335,#604,#606,.T.);
#604 = VERTEX_POINT('',#605);
#605 = CARTESIAN_POINT('',(2.939152317954E-18,-4.199327391453E-34,
    1.8E-02));
#606 = SEAM_CURVE('',#607,(#613,#622),.PCURVE_S1.);
#607 = ( BOUNDED_CURVE() B_SPLINE_CURVE(2,(#608,#609,#610,#611,#612),
.UNSPECIFIED.,.F.,.F.) B_SPLINE_CURVE_WITH_KNOTS((3,2,3),(4.712388980385
,6.28318530718,7.853981633974),.PIECEWISE_BEZIER_KNOTS.) CURVE() 
GEOMETRIC_REPRESENTATION_ITEM() RATIONAL_B_SPLINE_CURVE((1.,
0.707106781187,1.,0.707106781187,1.)) REPRESENTATION_ITEM('') );
#608 = CARTESIAN_POINT('',(-8.817456953861E-18,1.259798217436E-33,
    -1.8E-02));
#609 = CARTESIAN_POINT('',(4.8E-02,-6.858022075225E-18,-1.8E-02));
#610 = CARTESIAN_POINT('',(4.8E-02,-6.858022075225E-18,
    -4.40872847693E-18));
#611 = CARTESIAN_POINT('',(4.8E-02,-6.858022075225E-18,1.8E-02));
#612 = CARTESIAN_POINT('',(1.469576158977E-17,-2.099663695727E-33,
    1.8E-02));
#613 = PCURVE('',#488,#614);
#614 = DEFINITIONAL_REPRESENTATION('',(#615),#621);
#615 = B_SPLINE_CURVE_WITH_KNOTS('',2,(#616,#617,#618,#619,#620),
  .UNSPECIFIED.,.F.,.F.,(3,2,3),(4.712388980385,6.28318530718,
    7.853981633974),.PIECEWISE_BEZIER_KNOTS.);
#616 = CARTESIAN_POINT('',(6.28318530718,-1.570796326795));
#617 = CARTESIAN_POINT('',(6.28318530718,-0.785398163397));
#618 = CARTESIAN_POINT('',(6.28318530718,-2.720481184601E-16));
#619 = CARTESIAN_POINT('',(6.28318530718,0.785398163397));
#620 = CARTESIAN_POINT('',(6.28318530718,1.570796326795));
#621 = ( GEOMETRIC_REPRESENTATION_CONTEXT(2) 
PARAMETRIC_REPRESENTATION_CONTEXT() REPRESENTATION_CONTEXT('2D SPACE',''
  ) );
#622 = PCURVE('',#488,#623);
#623 = DEFINITIONAL_REPRESENTATION('',(#624),#630);
#624 = B_SPLINE_CURVE_WITH_KNOTS('',2,(#625,#626,#627,#628,#629),
  .UNSPECIFIED.,.F.,.F.,(3,2,3),(4.712388980385,6.28318530718,
    7.853981633974),.PIECEWISE_BEZIER_KNOTS.);
#625 = CARTESIAN_POINT('',(0.,-1.570796326795));
#626 = CARTESIAN_POINT('',(8.881784197001E-16,-0.785398163397));
#627 = CARTESIAN_POINT('',(0.,-2.720481184601E-16));
#628 = CARTESIAN_POINT('',(8.881784197001E-16,0.785398163397));
#629 = CARTESIAN_POINT('',(0.,1.570796326795));
#630 = ( GEOMETRIC_REPRESENTATION_CONTEXT(2) 
PARAMETRIC_REPRESENTATION_CONTEXT() REPRESENTATION_CONTEXT('2D SPACE',''
  ) );
#631 = ORIENTED_EDGE('',*,*,#603,.F.);
#632 = ORIENTED_EDGE('',*,*,#334,.F.);
#633 = ( GEOMETRIC_REPRESENTATION_CONTEXT(3) 
GLOBAL_UNCERTAINTY_ASSIGNED_CONTEXT((#637)) GLOBAL_UNIT_ASSIGNED_CONTEXT
((#634,#635,#636)) REPRESENTATION_CONTEXT('Context #1',
  '3D Context with UNIT and UNCERTAINTY') );
#634 = ( LENGTH_UNIT() NAMED_UNIT(*) SI_UNIT(.MILLI.,.METRE.) );
#635 = ( NAMED_UNIT(*) PLANE_ANGLE_UNIT() SI_UNIT($,.RADIAN.) );
#636 = ( NAMED_UNIT(*) SI_UNIT($,.STERADIAN.) SOLID_ANGLE_UNIT() );
#637 = UNCERTAINTY_MEASURE_WITH_UNIT(LENGTH_MEASURE(2.E-06),#634,
  'distance_accuracy_value','confusion accuracy');
#638 = PRODUCT_RELATED_PRODUCT_CATEGORY('part',$,(#7));
ENDSEC;
END-ISO-10303-21;
